<svg xmlns="http://www.w3.org/2000/svg" viewBox="0 0 77.75 70"><defs><style>.cls-1{fill:#fff;stroke:#969696;stroke-miterlimit:10;stroke-width:0.5px;}</style></defs><title>Asset 2</title><g id="Layer_2" data-name="Layer 2"><g id="Navbar"><path class="cls-1" d="M2,.25H24.21A1.78,1.78,0,0,1,26,2V15.24a1.75,1.75,0,0,1-.67,1.37l-5.86,4.62a1.73,1.73,0,0,0-.19,2.58L37.57,43a1.82,1.82,0,0,0,2.62,0L58.48,23.81a1.75,1.75,0,0,0-.19-2.58l-5.86-4.62a1.73,1.73,0,0,1-.68-1.37V2A1.78,1.78,0,0,1,53.55.25H75.71A1.78,1.78,0,0,1,77.5,2V15.24a1.72,1.72,0,0,1-.67,1.37l-6.7,5.28a1.73,1.73,0,0,0-.67,1.38V46.73a1.73,1.73,0,0,0,.67,1.38l6.7,5.28a1.72,1.72,0,0,1,.67,1.37V68a1.78,1.78,0,0,1-1.79,1.76H53.53A1.78,1.78,0,0,1,51.73,68L51.58,55a1.78,1.78,0,0,1,.67-1.4l6.87-5.43a1.75,1.75,0,0,0,.67-1.4l-.11-10a1.8,1.8,0,0,0-3.15-1.13L41,53.3a1.78,1.78,0,0,1-1.35.61H38.09a1.8,1.8,0,0,1-1.36-.61L21.1,35.51A1.8,1.8,0,0,0,18,36.66V46.73a1.74,1.74,0,0,0,.68,1.38l6.7,5.28A1.75,1.75,0,0,1,26,54.76V68a1.78,1.78,0,0,1-1.79,1.76H2A1.78,1.78,0,0,1,.25,68V54.64A1.77,1.77,0,0,1,.77,53.4l5.39-5.3a1.74,1.74,0,0,0,.53-1.25V21.72A1.75,1.75,0,0,0,6,20.31l-5-3.7A1.75,1.75,0,0,1,.25,15.2V2A1.78,1.78,0,0,1,2,.25Z"/></g></g></svg>