<?xml version="1.0" encoding="UTF-8" standalone="no"?>
<!-- Created with Inkscape (http://www.inkscape.org/) -->

<svg
   xmlns:dc="http://purl.org/dc/elements/1.1/"
   xmlns:cc="http://creativecommons.org/ns#"
   xmlns:rdf="http://www.w3.org/1999/02/22-rdf-syntax-ns#"
   xmlns:svg="http://www.w3.org/2000/svg"
   xmlns="http://www.w3.org/2000/svg"
   xmlns:sodipodi="http://sodipodi.sourceforge.net/DTD/sodipodi-0.dtd"
   xmlns:inkscape="http://www.inkscape.org/namespaces/inkscape"
   sodipodi:docname="Comic FX f1 - Copy (4).svg"
   inkscape:version="0.92.1 r15371"
   id="svg8"
   version="1.1"
   viewBox="0 0 33.03569 23.094566"
   height="23.094566mm"
   width="33.03569mm">
  <defs
     id="defs2" />
  <sodipodi:namedview
     inkscape:window-maximized="1"
     inkscape:window-y="-8"
     inkscape:window-x="-8"
     inkscape:window-height="705"
     inkscape:window-width="1368"
     showgrid="false"
     inkscape:current-layer="layer1"
     inkscape:document-units="mm"
     inkscape:cy="19.216762"
     inkscape:cx="-495.50996"
     inkscape:zoom="0.60728983"
     inkscape:pageshadow="2"
     inkscape:pageopacity="0.0"
     borderopacity="1.0"
     bordercolor="#666666"
     pagecolor="#ffffff"
     id="base" />
  <metadata
     id="metadata5">
    <rdf:RDF>
      <cc:Work
         rdf:about="">
        <dc:format>image/svg+xml</dc:format>
        <dc:type
           rdf:resource="http://purl.org/dc/dcmitype/StillImage" />
        <dc:title />
      </cc:Work>
    </rdf:RDF>
  </metadata>
  <g
     inkscape:label="Layer 1"
     inkscape:groupmode="layer"
     id="layer1"
     transform="translate(-70.743079,107.44089)">
    <path
       inkscape:connector-curvature="0"
       id="path1411"
       d="m 76.197949,-91.0188 c -2.435775,-0.08136 -3.265737,0.400848 -4.518576,-1.141668 -0.437343,-0.556731 -0.448281,-0.723069 -0.448281,-6.812031 0,-7.014371 -0.0255,-6.888001 1.526562,-7.593721 0.804129,-0.36566 1.609551,-0.38717 14.499,-0.38717 12.889446,0 13.694876,0.0216 14.499006,0.38717 1.55196,0.70572 1.52656,0.57935 1.52656,7.593721 0,8.538237 0.59124,7.953699 -8.04487,7.953699 H 85.115488 c -2.734791,3.001341 -8.638725,5.958357 -11.937342,6.134586 1.105848,-1.704147 3.317541,-4.174902 3.019803,-6.134586 z"
       style="fill:#ffffff;stroke:#000000;stroke-width:0.97499996;stroke-linecap:butt;stroke-miterlimit:4;stroke-dasharray:none" />
    <path
       inkscape:connector-curvature="0"
       id="path5426"
       style="font-style:normal;font-variant:normal;font-weight:bold;font-stretch:normal;font-size:2.82222223px;line-height:13.22916603px;font-family:'Comic Sans MS';-inkscape-font-specification:'Comic Sans MS Bold';text-align:center;letter-spacing:0px;word-spacing:0px;text-anchor:middle;fill:#000000;fill-opacity:1;stroke:none;stroke-width:0.79374993px;stroke-linecap:butt;stroke-linejoin:miter;stroke-opacity:1"
       d="m 81.658105,-102.10721 q -0.05607,0.30785 -0.0366,0.53024 0.0102,0.11532 0.0066,0.36046 3.06e-4,0.24066 0.0105,0.35598 0.03423,0.39125 0.06042,1.164989 0.0261,0.773742 0.06042,1.16499 0.0264,0.300642 0.12384,0.893844 0.09756,0.593202 0.12384,0.893844 0.0198,0.2265 -0.12711,0.397062 -0.14691,0.17055 -0.385791,0.19146 -0.243,0.0213 -0.433767,-0.11976 -0.19041,-0.13689 -0.20988,-0.35928 -0.0264,-0.300642 -0.10773,-0.899403 -0.07731,-0.599121 -0.10362,-0.899763 -0.0204,-0.23475 -0.0282,-0.416679 -0.644064,0.08541 -1.580277,0.341601 -0.778119,0.21333 -1.555878,0.430767 0.0162,0.28077 0.024,0.939915 0.0093,0.580179 0.04131,0.946713 0.0198,0.2265 -0.12711,0.397062 -0.14691,0.17055 -0.385791,0.19146 -0.23886,0.021 -0.413175,-0.12156 -0.1743,-0.14244 -0.19413,-0.368955 -0.03639,-0.415959 -0.03879,-1.249878 0.0017,-0.834282 -0.03468,-1.250238 -0.04611,-0.527154 -0.114,-1.587741 -0.06825,-1.0647 -0.11436,-1.59186 -0.0198,-0.2265 0.12711,-0.39706 0.14691,-0.17055 0.385791,-0.19146 0.23886,-0.021 0.413175,0.12156 0.1743,0.14244 0.19413,0.36896 0.0273,0.313 0.05781,0.94527 0.03417,0.6278 0.06156,0.940796 0.009,0.10296 0.0057,0.397887 -9.3e-4,0.27396 0.0159,0.417759 l 1.555515,-0.434883 q 0.912225,-0.24582 1.58136,-0.329247 -0.0078,-0.277382 -0.07617,-1.487302 -0.0195,-0.31783 0.12978,-0.74589 0.1863,-0.52674 0.478716,-0.55232 0.21828,-0.0192 0.399738,0.11028 0.19491,0.14064 0.21543,0.3754 0.0054,0.0618 -0.0057,0.12498 z" />
    <path
       inkscape:connector-curvature="0"
       id="path5428"
       style="font-style:normal;font-variant:normal;font-weight:bold;font-stretch:normal;font-size:2.82222223px;line-height:13.22916603px;font-family:'Comic Sans MS';-inkscape-font-specification:'Comic Sans MS Bold';text-align:center;letter-spacing:0px;word-spacing:0px;text-anchor:middle;fill:#000000;fill-opacity:1;stroke:none;stroke-width:0.79374993px;stroke-linecap:butt;stroke-linejoin:miter;stroke-opacity:1"
       d="m 87.059725,-100.25412 q -0.08268,0 -0.17364,-0.0249 -0.669726,-0.18189 -1.302246,-0.18189 -0.310059,0 -0.665592,0.0496 -0.355533,0.0496 -0.756543,0.14883 0,0.549834 -0.0372,1.632972 0.23151,-0.0165 1.616439,-0.15297 0.789618,-0.07854 1.000458,-0.07854 0.2439,0 0.417543,0.15711 0.17364,0.15297 0.17364,0.409275 0,0.491961 -0.525033,0.558108 -0.330729,0.0249 -0.988053,0.08268 -0.587043,0.06615 -1.7694,0.16122 -0.0288,0.525033 -0.0288,0.847494 0,0.810285 0.09507,0.921906 0.04548,0.05373 0.520899,0.05373 0.25632,0 0.773079,-0.0123 0.516765,-0.0123 0.773079,-0.0123 0.08268,0 0.24393,-0.0249 0.16122,-0.0249 0.23979,-0.0249 0.23979,0 0.409278,0.13644 0.19431,0.15297 0.19431,0.429948 0,0.463023 -0.483693,0.553971 -0.413412,0.07854 -1.715658,0.07854 -1.34772,0 -1.756998,-0.363801 -0.450618,-0.40101 -0.450618,-1.736328 0,-0.553971 0.07854,-1.661916 0.08268,-1.112076 0.08268,-1.661913 0,-0.144686 -0.04134,-0.425816 -0.04134,-0.28524 -0.04134,-0.42995 0,-0.62838 0.578775,-0.62838 0.18189,0 0.334863,0.10335 0.479556,-0.11988 0.909504,-0.17778 0.434082,-0.062 0.818556,-0.062 1.041798,0 1.666047,0.23979 0.38034,0.14469 0.38034,0.52503 0,0.21498 -0.14883,0.38034 -0.16536,0.19017 -0.421677,0.19017 z" />
    <path
       inkscape:connector-curvature="0"
       id="path5430"
       style="font-style:normal;font-variant:normal;font-weight:bold;font-stretch:normal;font-size:2.82222223px;line-height:13.22916603px;font-family:'Comic Sans MS';-inkscape-font-specification:'Comic Sans MS Bold';text-align:center;letter-spacing:0px;word-spacing:0px;text-anchor:middle;fill:#000000;fill-opacity:1;stroke:none;stroke-width:0.79374993px;stroke-linecap:butt;stroke-linejoin:miter;stroke-opacity:1"
       d="m 92.074405,-96.011283 q -0.487827,0.21498 -1.508952,0.384471 -0.934311,0.15711 -1.533756,0.15711 -1.01286,0 -1.01286,-0.888834 0,0.07029 0.08268,-1.310514 0.10749,-1.794207 0.10749,-3.99356 0,-0.23565 0.16122,-0.40101 0.16536,-0.16536 0.413409,-0.16536 0.24804,0 0.413412,0.16536 0.16536,0.16536 0.16536,0.40101 0,2.203487 -0.11163,4.059704 -0.0372,0.330729 -0.07854,1.01286 0.979785,-0.0165 2.513541,-0.479559 0.09507,-0.0288 0.18189,-0.0288 0.26046,0 0.42168,0.19017 0.14469,0.1695 0.14469,0.380337 0,0.355533 -0.359667,0.516765 z" />
    <path
       inkscape:connector-curvature="0"
       id="path5432"
       style="font-style:normal;font-variant:normal;font-weight:bold;font-stretch:normal;font-size:2.82222223px;line-height:13.22916603px;font-family:'Comic Sans MS';-inkscape-font-specification:'Comic Sans MS Bold';text-align:center;letter-spacing:0px;word-spacing:0px;text-anchor:middle;fill:#000000;fill-opacity:1;stroke:none;stroke-width:0.79374993px;stroke-linecap:butt;stroke-linejoin:miter;stroke-opacity:1"
       d="m 94.331884,-97.103436 q -0.07002,-0.006 -0.343422,-0.0591 -0.07515,0.57441 -0.19044,1.892295 -0.0192,0.21828 -0.18516,0.36144 -0.16608,0.14316 -0.400821,0.12264 -0.23475,-0.0204 -0.377553,-0.19074 -0.13869,-0.16983 -0.11958,-0.388104 l 0.10053,-1.149027 q 0.05586,-0.638352 0.24774,-1.883133 0.1896,-1.265733 0.24846,-1.891365 0.0978,-1.07042 0.691002,-0.97288 0.14328,-0.0249 0.391812,-0.0198 0.24891,0.001 0.603087,0.032 0.807201,0.0706 1.469805,0.65563 0.735447,0.653634 0.661941,1.493784 -0.09225,1.054305 -0.982677,1.603038 -0.789231,0.482889 -1.814709,0.393171 z m 0.477954,-3.091364 q -0.13179,-0.0114 -0.23511,-0.0165 -0.09885,-0.009 -0.16956,-0.007 -0.0168,0.19356 -0.05493,0.580331 -0.04824,0.45642 -0.20292,1.418112 0.20715,0.05133 0.27717,0.05745 0.642468,0.05622 1.093323,-0.21144 0.481488,-0.28572 0.52833,-0.821109 0.03063,-0.350061 -0.369789,-0.658986 -0.38466,-0.299248 -0.866511,-0.341408 z" />
    <path
       inkscape:connector-curvature="0"
       id="path5434"
       style="font-style:normal;font-variant:normal;font-weight:bold;font-stretch:normal;font-size:2.82222223px;line-height:13.22916603px;font-family:'Comic Sans MS';-inkscape-font-specification:'Comic Sans MS Bold';text-align:center;letter-spacing:0px;word-spacing:0px;text-anchor:middle;fill:#000000;fill-opacity:1;stroke:none;stroke-width:0.79374993px;stroke-linecap:butt;stroke-linejoin:miter;stroke-opacity:1"
       d="m 98.142859,-96.889638 q -0.228,-0.0402 -0.353505,-0.20925 -0.12144,-0.16833 -0.0834,-0.38412 0.0279,-0.15879 0.07107,-0.474423 0.04785,-0.318999 0.07584,-0.47778 0.09906,-0.56184 0.305343,-1.684089 0.21036,-1.12152 0.309417,-1.68337 0.03804,-0.21579 0.21381,-0.33171 0.17649,-0.12 0.400404,-0.0805 0.22392,0.0395 0.348717,0.21261 0.12552,0.16905 0.08748,0.38484 l -0.761673,4.319656 q -0.03804,0.21579 -0.21381,0.331713 -0.17169,0.11664 -0.399687,0.07644 z m -0.27282,1.47573 q -0.24429,-0.04308 -0.410043,-0.340965 -0.14901,-0.27396 -0.11238,-0.481584 0.03732,-0.21171 0.22938,-0.324771 0.19206,-0.11307 0.403758,-0.07572 0.24429,0.04308 0.405972,0.340248 0.14901,0.27396 0.1131,0.477513 -0.0366,0.20763 -0.22938,0.324771 -0.1887,0.11784 -0.400404,0.08052 z" />
  </g>
</svg>
