<?xml version="1.0" encoding="UTF-8" standalone="no"?>
<!-- Generator: Adobe Illustrator 24.2.1, SVG Export Plug-In . SVG Version: 6.00 Build 0)  -->

<svg
   xmlns:dc="http://purl.org/dc/elements/1.1/"
   xmlns:cc="http://creativecommons.org/ns#"
   xmlns:rdf="http://www.w3.org/1999/02/22-rdf-syntax-ns#"
   xmlns:svg="http://www.w3.org/2000/svg"
   xmlns="http://www.w3.org/2000/svg"
   xmlns:sodipodi="http://sodipodi.sourceforge.net/DTD/sodipodi-0.dtd"
   xmlns:inkscape="http://www.inkscape.org/namespaces/inkscape"
   version="1.1"
   id="Слой_1"
   x="0px"
   y="0px"
   viewBox="0 0 5000 3500"
   style="enable-background:new 0 0 5000 3500;"
   xml:space="preserve"
   sodipodi:docname="shapes 4.svg"
   inkscape:version="0.92.5 (2060ec1f9f, 2020-04-08)"><metadata
   id="metadata1700"><rdf:RDF><cc:Work
       rdf:about=""><dc:format>image/svg+xml</dc:format><dc:type
         rdf:resource="http://purl.org/dc/dcmitype/StillImage" /><dc:title></dc:title></cc:Work></rdf:RDF></metadata><defs
   id="defs1698" /><sodipodi:namedview
   pagecolor="#ffffff"
   bordercolor="#666666"
   borderopacity="1"
   objecttolerance="10"
   gridtolerance="10"
   guidetolerance="10"
   inkscape:pageopacity="0"
   inkscape:pageshadow="2"
   inkscape:window-width="1920"
   inkscape:window-height="1012"
   id="namedview1696"
   showgrid="false"
   inkscape:zoom="0.16122035"
   inkscape:cx="2124.4392"
   inkscape:cy="1575.7323"
   inkscape:window-x="0"
   inkscape:window-y="35"
   inkscape:window-maximized="1"
   inkscape:current-layer="Слой_1" />
<style
   type="text/css"
   id="style1385">
	.st0{fill:#D0F0E4;}
	.st1{fill:none;stroke:#FFCF2D;stroke-width:6;stroke-miterlimit:10;}
	.st2{fill:#FFCF2D;stroke:#FFFFFF;stroke-width:6;stroke-miterlimit:10;}
	.st3{fill:none;stroke:#9A3B82;stroke-width:6;stroke-linecap:round;stroke-miterlimit:10;}
	.st4{fill:#66B0F0;}
	.st5{fill:#9A3B82;}
	.st6{fill:#FFFFFF;stroke:#FFCF2D;stroke-width:6;stroke-miterlimit:10;}
	.st7{fill:#FE5244;}
	.st8{fill:#FFCF2D;}
	.st9{fill:none;stroke:#FFCF2D;stroke-width:6;stroke-linecap:round;stroke-miterlimit:10;}
	.st10{fill:#FFFFFF;stroke:#9A3B82;stroke-width:6;stroke-linecap:round;stroke-miterlimit:10;}
	.st11{fill:#FFFFFF;stroke:#3FB1B5;stroke-width:6;stroke-miterlimit:10;}
	.st12{fill:none;stroke:#3FB1B5;stroke-width:6;stroke-miterlimit:10;}
	.st13{fill:none;stroke:#9A3B82;stroke-width:6;stroke-linecap:round;stroke-linejoin:round;stroke-miterlimit:10;}
	.st14{fill:#FFFFFF;}
	.st15{fill:none;stroke:#FE5244;stroke-width:5;stroke-miterlimit:10;}
	.st16{fill:#FFFFFF;stroke:#FE5244;stroke-width:6;stroke-miterlimit:10;}
	.st17{fill:none;stroke:#FE5244;stroke-width:6;stroke-miterlimit:10;}
	.st18{fill:#3FB1B5;}
	.st19{fill:none;stroke:#9A3B82;stroke-width:6;stroke-miterlimit:10;}
	.st20{fill:none;stroke:#FFFFFF;stroke-width:6;stroke-miterlimit:10;}
	.st21{fill:#E57281;}
	.st22{fill:none;stroke:#9A3B82;stroke-width:5;stroke-linecap:round;stroke-miterlimit:10;}
	.st23{fill:#FE5244;stroke:#FE5244;stroke-width:6;stroke-miterlimit:10;}
	.st24{fill:none;stroke:#FFFFFF;stroke-width:6;stroke-linecap:round;stroke-miterlimit:10;}
</style>





<ellipse
   style="opacity:0.60100002;fill:#ffc551;fill-opacity:1;stroke:none;stroke-width:1.77014482;stroke-miterlimit:4;stroke-dasharray:none;stroke-opacity:1;paint-order:markers fill stroke"
   id="path1809"
   cx="2891.8972"
   cy="2470.353"
   rx="392.21326"
   ry="378.36411" /><circle
   style="opacity:0.60100002;fill:#ff9a51;fill-opacity:1;stroke:none;stroke-width:2.4000001;stroke-miterlimit:4;stroke-dasharray:none;stroke-opacity:1;paint-order:markers fill stroke"
   id="path1815"
   cx="3402.1763"
   cy="587.83655"
   r="604.76239" /><circle
   style="opacity:0.60100002;fill:#ff9a68;fill-opacity:1;stroke:none;stroke-width:1.37313437;stroke-miterlimit:4;stroke-dasharray:none;stroke-opacity:1;paint-order:markers fill stroke"
   id="path1817"
   cx="3650.2834"
   cy="2206.739"
   r="356.65469" /><circle
   style="opacity:1;fill:#ff6d4a;fill-opacity:1;stroke:none;stroke-width:2.4000001;stroke-miterlimit:4;stroke-dasharray:none;stroke-opacity:1;paint-order:markers fill stroke"
   id="path1819"
   cx="3640.9797"
   cy="1353.8689"
   r="440.39105" /><circle
   style="opacity:1;fill:#ff9a3d;fill-opacity:1;stroke:none;stroke-width:3.26538467;stroke-miterlimit:4;stroke-dasharray:none;stroke-opacity:1;paint-order:markers fill stroke"
   id="path1821"
   cx="1510.3551"
   cy="2405.2249"
   r="877.68079" /><circle
   style="opacity:1;fill:#ff8857;fill-opacity:1;stroke:none;stroke-width:2.4000001;stroke-miterlimit:4;stroke-dasharray:none;stroke-opacity:1;paint-order:markers fill stroke"
   id="path1823"
   cx="2037.584"
   cy="922.78186"
   r="338.04666" /><ellipse
   style="opacity:0.60100002;fill:#ff6724;fill-opacity:1;stroke:none;stroke-width:1.93378651;stroke-miterlimit:4;stroke-dasharray:none;stroke-opacity:1;paint-order:markers fill stroke"
   id="path1825"
   cx="1225.0314"
   cy="954.20709"
   rx="114.74979"
   ry="120.54079" /><circle
   style="opacity:0.96799999;fill:#ff9a49;fill-opacity:1;stroke:none;stroke-width:2.4000001;stroke-miterlimit:4;stroke-dasharray:none;stroke-opacity:1;paint-order:markers fill stroke"
   id="path1829"
   cx="1708.8413"
   cy="866.95764"
   r="77.533638" /><circle
   style="opacity:0.60100002;fill:#ff9a51;fill-opacity:1;stroke:none;stroke-width:2.4000001;stroke-miterlimit:4;stroke-dasharray:none;stroke-opacity:1;paint-order:markers fill stroke"
   id="path1831"
   cx="1448.3282"
   cy="426.56662"
   r="201.58746" /><style
   id="style2"
   type="text/css">
	.st0{fill:none;stroke:#66B0F0;stroke-width:6;stroke-miterlimit:10;}
	.st1{fill:none;stroke:#66B0F0;stroke-width:6;stroke-linecap:round;stroke-miterlimit:10;}
	.st2{fill:#66B0F0;}
	.st3{fill:#D0F0E4;}
	.st4{fill:#3FB1B5;}
	.st5{fill:none;stroke:#FFCF2D;stroke-width:6;stroke-linecap:round;stroke-miterlimit:10;}
	.st6{fill:none;stroke:#FFCF2D;stroke-width:6;stroke-miterlimit:10;}
	.st7{fill:#FE5244;}
	.st8{opacity:0.2;}
	.st9{fill:#FFFFFF;}
	.st10{fill:#E57281;}
	.st11{fill:none;stroke:#FFFFFF;stroke-width:6;stroke-miterlimit:10;}
	.st12{fill:none;stroke:#FFFFFF;stroke-width:5;stroke-miterlimit:10;}
	.st13{fill:none;stroke:#FFFFFF;stroke-width:5;stroke-linecap:round;stroke-miterlimit:10;}
	.st14{fill:#FFFFFF;stroke:#FE5244;stroke-width:5;stroke-miterlimit:10;}
	.st15{fill:#FFFFFF;stroke:#9A3B82;stroke-width:6;stroke-linecap:round;stroke-miterlimit:10;}
	.st16{fill:none;stroke:#9A3B82;stroke-width:6;stroke-linecap:round;stroke-miterlimit:10;}
	.st17{fill:#9A3B82;}
	.st18{fill:#FFCF2D;}
	.st19{fill:#FFFFFF;stroke:#FFCF2D;stroke-width:5;stroke-miterlimit:10;}
	.st20{fill:none;stroke:#E57281;stroke-width:4;stroke-linecap:round;stroke-miterlimit:10;}
	.st21{fill:#73325A;}
	.st22{fill:none;stroke:#73325A;stroke-width:4;stroke-linecap:round;stroke-miterlimit:10;}
	.st23{fill:#3FB1B5;stroke:#3FB1B5;stroke-width:5;stroke-linecap:round;stroke-miterlimit:10;}
	.st24{fill:#FFFFFF;stroke:#3FB1B5;stroke-width:6;stroke-miterlimit:10;}
	.st25{fill:#FFFFFF;stroke:#3FB1B5;stroke-width:6;stroke-linecap:round;stroke-miterlimit:10;}
	.st26{fill:#A0505A;}
	.st27{fill:#0096A0;}
	.st28{fill:#FFFFFF;stroke:#FE5244;stroke-width:6;stroke-miterlimit:10;}
	.st29{fill:none;stroke:#FE5244;stroke-width:6;stroke-miterlimit:10;}
	.st30{fill:none;stroke:#FE5244;stroke-width:6;stroke-linejoin:round;stroke-miterlimit:10;}
	.st31{fill:#FE5244;stroke:#FFFFFF;stroke-width:6;stroke-miterlimit:10;}
	.st32{fill:none;stroke:#9A3B82;stroke-width:4;stroke-linecap:round;stroke-miterlimit:10;}
	.st33{fill:none;stroke:#FE5244;stroke-width:5;stroke-miterlimit:10;}
	.st34{fill:#FFFFFF;stroke:#FE5244;stroke-width:5;stroke-linejoin:round;stroke-miterlimit:10;}
	.st35{fill:#FFFFFF;stroke:#3FB1B5;stroke-width:5;stroke-linecap:round;stroke-miterlimit:10;}
</style><style
   id="style9255"
   type="text/css">
	.st0{fill:#D0F0E4;}
	.st1{fill:#FFFFFF;stroke:#66B0F0;stroke-width:6;stroke-miterlimit:10;}
	.st2{fill:#66B0F0;}
	.st3{fill:#66B0F0;stroke:#66B0F0;stroke-width:6;stroke-miterlimit:10;}
	.st4{fill:none;stroke:#66B0F0;stroke-width:6;stroke-miterlimit:10;}
	.st5{fill:#FFCF2D;}
	.st6{fill:#FFFFFF;}
	.st7{fill:#FFFFFF;stroke:#66B0F0;stroke-width:4;stroke-miterlimit:10;}
	.st8{fill:none;stroke:#66B0F0;stroke-width:4;stroke-linecap:round;stroke-miterlimit:10;}
	.st9{fill:#E57281;}
	.st10{fill:#9A3B82;}
	.st11{fill:#3FB1B5;}
	.st12{fill:#E6E6E6;}
	.st13{fill:none;stroke:#FFFFFF;stroke-width:6;stroke-linecap:round;stroke-miterlimit:10;}
	.st14{fill:none;stroke:#FFFFFF;stroke-width:6;stroke-miterlimit:10;}
	.st15{fill:#FFFFFF;stroke:#FFCF2D;stroke-width:6;stroke-miterlimit:10;}
	.st16{fill:none;stroke:#FFCF2D;stroke-width:6;stroke-linecap:round;stroke-miterlimit:10;}
	.st17{fill:#FFFFFF;stroke:#FE5244;stroke-width:6;stroke-miterlimit:10;}
	.st18{fill:none;stroke:#FE5244;stroke-width:6;stroke-miterlimit:10;}
	.st19{fill:#FFCF2D;stroke:#FE5244;stroke-width:6;stroke-linejoin:round;stroke-miterlimit:10;}
	.st20{fill:none;stroke:#9A3B82;stroke-width:5;stroke-linecap:round;stroke-miterlimit:10;}
	.st21{fill:#FE5244;}
	.st22{fill:#FFFFFF;stroke:#3FB1B5;stroke-width:5;stroke-miterlimit:10;}
	.st23{fill:none;stroke:#3FB1B5;stroke-width:5;stroke-miterlimit:10;}
	.st24{fill:#A0505A;}
	.st25{fill:#73325A;}
	.st26{fill:#FFFFFF;stroke:#FFCF2D;stroke-width:6;stroke-linecap:round;stroke-miterlimit:10;}
	.st27{fill:none;stroke:#73325A;stroke-width:5;stroke-linecap:round;stroke-miterlimit:10;}
</style><style
   id="style10024"
   type="text/css">
	.st0{fill:#A0505A;}
	.st1{fill:#73325A;}
	.st2{fill:#FFFFFF;stroke:#FFCF2D;stroke-width:5;stroke-miterlimit:10;}
	.st3{fill:none;stroke:#FFCF2D;stroke-width:5;stroke-miterlimit:10;}
	.st4{fill:#FFCF2D;}
	.st5{fill:none;stroke:#FFFFFF;stroke-width:5;stroke-linecap:round;stroke-linejoin:round;stroke-miterlimit:10;}
	.st6{fill:#FE5244;}
	.st7{fill:none;stroke:#FFFFFF;stroke-width:6;stroke-linecap:round;stroke-miterlimit:10;}
	.st8{fill:none;stroke:#FFFFFF;stroke-width:6;stroke-miterlimit:10;}
	.st9{fill:none;stroke:#FFCF2D;stroke-width:5;stroke-linecap:round;stroke-miterlimit:10;}
	.st10{fill:#D0F0E4;}
	.st11{fill:none;stroke:#FFCF2D;stroke-width:7;stroke-miterlimit:10;}
	.st12{fill:none;stroke:#FFFFFF;stroke-width:10;stroke-linecap:round;stroke-miterlimit:10;stroke-dasharray:30.0263,35.0307;}
	.st13{fill:none;stroke:#FFFFFF;stroke-width:15;stroke-linecap:round;stroke-miterlimit:10;}
	.st14{fill:#D0F0E4;stroke:#FFFFFF;stroke-width:15;stroke-linecap:round;stroke-linejoin:round;stroke-miterlimit:10;}
	.st15{fill:none;stroke:#FE5244;stroke-width:7;stroke-linecap:round;stroke-miterlimit:10;}
	.st16{fill:#D0F0E4;stroke:#FFFFFF;stroke-width:15;stroke-linecap:round;stroke-miterlimit:10;}
	.st17{fill:none;stroke:#66B0F0;stroke-width:6;stroke-miterlimit:10;}
	.st18{fill:#FFFFFF;stroke:#66B0F0;stroke-width:6;stroke-miterlimit:10;}
	.st19{fill:#66B0F0;}
	.st20{fill:none;stroke:#FFCF2D;stroke-width:6;stroke-miterlimit:10;}
	.st21{fill:#3FB1B5;}
	.st22{fill:#FFFFFF;stroke:#FFCF2D;stroke-width:6;stroke-miterlimit:10;}
	.st23{fill:#FFFFFF;stroke:#3FB1B5;stroke-width:6;stroke-miterlimit:10;}
	.st24{fill:none;stroke:#FFFFFF;stroke-width:5;stroke-linecap:round;stroke-miterlimit:10;}
	.st25{fill:#FFFFFF;}
	.st26{fill:#FE5244;stroke:#FE5244;stroke-width:5;stroke-miterlimit:10;}
	.st27{fill:#FFFFFF;stroke:#FE5244;stroke-width:5;stroke-miterlimit:10;}
	.st28{fill:#FFFFFF;stroke:#FE5244;stroke-width:6;stroke-miterlimit:10;}
	.st29{fill:none;stroke:#FE5244;stroke-width:6;stroke-miterlimit:10;}
	.st30{fill:none;stroke:#73325A;stroke-width:5;stroke-linecap:round;stroke-miterlimit:10;}
	.st31{fill:none;stroke:#3FB1B5;stroke-width:6;stroke-miterlimit:10;}
	.st32{fill:#FFCF2D;stroke:#FFCF2D;stroke-width:6;stroke-miterlimit:10;}
</style><g
   id="g10583"
   transform="translate(12.476766,-0.65893742)"><g
     id="LEGS-3">
	<g
   id="LEFT_LEG">
		<path
   id="path10026"
   d="m 2655.5,2541.8 -16.9,46.1 -78.1,212.6 c -29.3,20.7 -66.3,34 -107.8,34 -4.9,0 -10.8,-1.2 -15.8,-1.5 -43.4,-3 -85,-22 -113.8,-46.2 l 23.3,-256.4 1.7,-18.6 c 125.9,48.8 272.7,40.6 307.4,30 z"
   class="st0"
   inkscape:connector-curvature="0"
   style="fill:#a0505a" />
		<path
   id="path10028"
   d="m 2655.5,2541.8 -33.1,90 c -101,13.7 -249,-68.9 -275.9,-101.4 l 1.7,-18.6 c 125.8,48.8 272.6,40.6 307.3,30 z"
   class="st1"
   inkscape:connector-curvature="0"
   style="fill:#73325a" />
		<g
   id="g10040">
			<path
   id="path10030"
   d="m 2562.1,2800.2 -23.9,250.3 c -4.3,66 -54.9,116.5 -114.9,116.5 -2.7,0 -5.4,-0.1 -8.2,-0.3 -63.6,-4.8 -111.5,-64.7 -107,-133.7 l 14.5,-221.2 1.5,-23.7 c 12.8,12 27.7,22.3 44.2,30.3 20.7,10 43.8,16.5 68.5,18.4 5,0.4 9.9,0.6 14.8,0.6 14.2,0 28.1,-1.6 41.3,-4.6 0.4,-0.1 0.9,-0.2 1.3,-0.3 24.7,-5.8 47.3,-16.5 66.1,-31 0.7,-0.4 1.3,-0.8 1.8,-1.3 z"
   class="st2"
   inkscape:connector-curvature="0"
   style="fill:#ffffff;stroke:#ffcf2d;stroke-width:5;stroke-miterlimit:10" />
			<path
   id="path10032"
   d="m 2539.2,2815.4 -16.9,200.3 c -3.6,55.8 -46.4,98.5 -97.2,98.5 -2.3,0 -4.6,-0.1 -6.9,-0.3 -53.7,-4.1 -94.3,-54.7 -90.5,-113.1 l 13.3,-199.3"
   class="st3"
   inkscape:connector-curvature="0"
   style="fill:none;stroke:#ffcf2d;stroke-width:5;stroke-miterlimit:10" />
			<path
   id="path10034"
   d="m 2494,2830.3 c -13.2,2.7 -28.1,3.2 -42.3,3.2 -4.9,0 -9.8,-0.2 -14.8,-0.5 -24.7,-1.7 -47.9,-7.7 -68.5,-16.9 l -6.6,-32.4 c -4.2,-13.8 6.3,-27.7 20.8,-27.2 l 96,2.8 c 12.2,0.3 21.5,10.9 20.4,23 z"
   class="st4"
   inkscape:connector-curvature="0"
   style="fill:#ffcf2d" />
			<path
   id="path10036"
   d="m 2493,2829.3 -12.1,152.1 c -2.1,29.5 -30.1,51.3 -56.5,46.5 l -2.1,-0.2 c -37.6,-6.9 -66.4,-46.1 -61.5,-88.1 l 7.6,-123.6 c 20.7,9.2 43.8,15.2 68.5,16.9 5,0.4 9.9,0.5 14.8,0.5 14.2,0.1 28.1,-1.4 41.3,-4.1 z"
   class="st4"
   inkscape:connector-curvature="0"
   style="fill:#ffcf2d" />
			<path
   id="path10038"
   d="m 2478.3,2994.1 -109.5,-25 c -11.1,-2.5 -10.3,-18.6 1.1,-20 l 104.7,-12.3 c 12.5,-1.5 14.2,-19 2.2,-22.8 l -100.3,-31.8 c -15.3,-4.9 -14.1,-26.9 1.7,-30.1 l 114.9,-19.9 c 0,0 -85.8,7.5 -124.6,-13.9"
   class="st5"
   inkscape:connector-curvature="0"
   style="fill:none;stroke:#ffffff;stroke-width:5;stroke-linecap:round;stroke-linejoin:round;stroke-miterlimit:10" />
		</g>
		<path
   id="path10042"
   d="m 2862.1,1979.3 -206.6,562.5 c -34.7,10.6 -198.4,24.6 -358.2,-49.5 L 2423,1910.8 c 11.7,-88 86.7,-153.8 175.6,-153.8 h 92.4 c 116.1,-0.1 200.9,109.9 171.1,222.3 z"
   class="st6"
   inkscape:connector-curvature="0"
   style="fill:#fe5244" />
		<path
   id="path10044"
   d="m 2679.5,2481.8 c -34.7,10.6 -212.4,23.6 -372.2,-50.5"
   class="st7"
   inkscape:connector-curvature="0"
   style="fill:none;stroke:#ffffff;stroke-width:6;stroke-linecap:round;stroke-miterlimit:10" />
	</g>
	<g
   id="RIGHT_LEG">
		<path
   id="path10047"
   d="m 2931,2552.9 -20.8,36.9 -133.1,232.9 c -51.3,20.3 -111.8,27.8 -166,16.4 l -6.8,-1.9 c -26.8,-5.6 -54.2,-20.6 -73.6,-37.4 l 97.1,-259.5 c 0,0 0.1,0 0.2,0 33.5,11.1 148.7,42.3 303,12.6 z"
   class="st0"
   inkscape:connector-curvature="0"
   style="fill:#a0505a" />
		<path
   id="path10049"
   d="m 2931,2552.9 -43.9,77.3 c -169,27 -264.8,-74.7 -264.8,-74.7 l 5.6,-15.1 c 33.6,11 148.8,42.2 303.1,12.5 z"
   class="st1"
   inkscape:connector-curvature="0"
   style="fill:#73325a" />
		<path
   id="path10051"
   d="m 3215.8,2068.5 -230.5,473.6 c -195.1,48.8 -324.1,9.3 -357.4,-1.7 l 241.2,-645.1 c 16.5,-39.1 43.9,-71.4 77.8,-93.9 33.9,-22.5 74.3,-35.2 116.7,-35.2 160.6,0 229.8,161.6 152.2,302.3 z"
   class="st6"
   inkscape:connector-curvature="0"
   style="fill:#fe5244" />
		<path
   id="path10053"
   d="m 3011.2,2491.1 c -195.1,48.8 -328.1,9.3 -361.4,-1.7"
   class="st7"
   inkscape:connector-curvature="0"
   style="fill:none;stroke:#ffffff;stroke-width:6;stroke-linecap:round;stroke-miterlimit:10" />
		<line
   id="line10055"
   y2="2850.8999"
   x2="2514.6001"
   y1="1895.3"
   x1="2869.1001"
   class="st8"
   style="fill:none;stroke:#ffffff;stroke-width:6;stroke-miterlimit:10" />
		<g
   id="g10067">
			<path
   id="path10057"
   d="m 2775.1,2823.4 -7.8,20.5 -88.4,231.3 c -25.3,79.3 -108.5,126.4 -181.6,108.3 l -4,-1.3 c -51.3,-12.7 -83.9,-74.5 -63.8,-129.1 l 101,-246.8 2.1,-5.1 c 12.7,11.4 27.5,20.8 44,27.6 8.8,3.6 18.1,6.5 27.8,8.6 l 6.8,1.9 c 28.7,6 58.3,7.1 87.5,3.7 26.2,-3.2 52,-9.8 76.4,-19.6 z"
   class="st2"
   inkscape:connector-curvature="0"
   style="fill:#ffffff;stroke:#ffcf2d;stroke-width:5;stroke-miterlimit:10" />
			<path
   id="path10059"
   d="m 2746.5,2834.1 -77.5,204.8 c -21.2,66.4 -90.9,105.9 -152.1,90.7 l -3.3,-1.1 c -43,-10.7 -70.3,-62.4 -53.5,-108.2 l 85.6,-207.8"
   class="st9"
   inkscape:connector-curvature="0"
   style="fill:none;stroke:#ffcf2d;stroke-width:5;stroke-linecap:round;stroke-miterlimit:10" />
			<path
   id="path10061"
   d="m 2716.8,2812 -18.2,30.8 c -29.1,3.4 -58.7,2.3 -87.5,-3.7 l -6.8,-1.9 c -9.7,-2 -19,-4.9 -27.8,-8.6 l 7.2,-50 c 1.7,-12 13.3,-20.1 25.2,-17.6 l 94,19.7 c 14.2,2.9 21.3,18.9 13.9,31.3 z"
   class="st4"
   inkscape:connector-curvature="0"
   style="fill:#ffcf2d" />
			<path
   id="path10063"
   d="m 2698.6,2842.8 -0.5,0.8 -47,124.2 c -12.9,40.3 -55.1,64.2 -92.3,55 l -2,-0.7 c -26.1,-6.5 -42.7,-37.9 -32.4,-65.6 l 51.9,-126 0.3,-1.9 c 8.8,3.6 18.1,6.5 27.8,8.6 l 6.8,1.9 c 28.7,6.1 58.3,7.1 87.4,3.7 z"
   class="st4"
   inkscape:connector-curvature="0"
   style="fill:#ffcf2d" />
			<path
   id="path10065"
   d="m 2521.4,2978.6 108,11.7 c 13.3,1.4 18.9,-16.6 7.1,-22.9 l -84.1,-44.9 c -11.5,-6.1 -6.7,-23.5 6.3,-22.9 l 106.2,4.8 c 14.3,0.7 19.5,-18.5 6.9,-25.2 l -95.3,-50.8 c 0,0 49.1,23.1 121.8,14.1"
   class="st5"
   inkscape:connector-curvature="0"
   style="fill:none;stroke:#ffffff;stroke-width:5;stroke-linecap:round;stroke-linejoin:round;stroke-miterlimit:10" />
		</g>
	</g>
</g><g
     id="TIMER">
	<circle
   id="circle10071"
   r="737.40002"
   cy="1049.3"
   cx="2267.8999"
   class="st10"
   style="fill:#d0f0e4" />
	<path
   id="path10073"
   d="M 2020.9,1786.8 C 1712.6,1683.6 1490.4,1392.4 1490.4,1049.3"
   class="st11"
   inkscape:connector-curvature="0"
   style="fill:none;stroke:#ffcf2d;stroke-width:7;stroke-miterlimit:10" />
	<g
   id="g10077">
		<circle
   id="circle10075"
   r="476.29999"
   cy="1049.3"
   cx="2267.8999"
   class="st12"
   style="fill:none;stroke:#ffffff;stroke-width:10;stroke-linecap:round;stroke-miterlimit:10;stroke-dasharray:30.0263, 35.0307" />
	</g>
	<g
   id="g10083">
		<line
   id="line10079"
   y2="652.40002"
   x2="2267.8999"
   y1="573.09998"
   x1="2267.8999"
   class="st13"
   style="fill:none;stroke:#ffffff;stroke-width:15;stroke-linecap:round;stroke-miterlimit:10" />
		<line
   id="line10081"
   y2="1525.6"
   x2="2267.8999"
   y1="1446.2"
   x1="2267.8999"
   class="st13"
   style="fill:none;stroke:#ffffff;stroke-width:15;stroke-linecap:round;stroke-miterlimit:10" />
	</g>
	<g
   id="g10089">
		<line
   id="line10085"
   y2="768.70001"
   x2="1987.2"
   y1="712.5"
   x1="1931.1"
   class="st13"
   style="fill:none;stroke:#ffffff;stroke-width:15;stroke-linecap:round;stroke-miterlimit:10" />
		<line
   id="line10087"
   y2="1386.1"
   x2="2604.6001"
   y1="1330"
   x1="2548.5"
   class="st13"
   style="fill:none;stroke:#ffffff;stroke-width:15;stroke-linecap:round;stroke-miterlimit:10" />
	</g>
	<g
   id="g10095">
		<line
   id="line10091"
   y2="1049.3"
   x2="1871"
   y1="1049.3"
   x1="1791.6"
   class="st13"
   style="fill:none;stroke:#ffffff;stroke-width:15;stroke-linecap:round;stroke-miterlimit:10" />
		<line
   id="line10093"
   y2="1049.3"
   x2="2744.1001"
   y1="1049.3"
   x1="2664.8"
   class="st13"
   style="fill:none;stroke:#ffffff;stroke-width:15;stroke-linecap:round;stroke-miterlimit:10" />
	</g>
	<g
   id="g10101">
		<line
   id="line10097"
   y2="1330"
   x2="1987.2"
   y1="1386.1"
   x1="1931.1"
   class="st13"
   style="fill:none;stroke:#ffffff;stroke-width:15;stroke-linecap:round;stroke-miterlimit:10" />
		<line
   id="line10099"
   y2="712.5"
   x2="2604.6001"
   y1="768.70001"
   x1="2548.5"
   class="st13"
   style="fill:none;stroke:#ffffff;stroke-width:15;stroke-linecap:round;stroke-miterlimit:10" />
	</g>
	<g
   id="g10105">
		<path
   id="path10103"
   d="m 2267.9,1555.6 c -68.3,0 -134.6,-13.4 -197.1,-39.8 -60.3,-25.5 -114.4,-62 -160.9,-108.5 -46.5,-46.5 -83,-100.6 -108.5,-160.9 -26.4,-62.4 -39.8,-128.7 -39.8,-197.1 0,-140.3 54.4,-269.1 152.3,-358 l 40.3,44.4 c -41.7,37.9 -72.4,79.5 -96.2,135.3 -23.9,56.1 -36.5,117.7 -36.5,178.2 0,60.3 11.8,118.7 35.1,173.7 22.5,53.1 54.7,100.9 95.7,141.9 41,41 88.7,73.2 141.9,95.6 55,23.3 113.4,35.1 173.7,35.1 60.3,0 118.7,-11.8 173.7,-35.1 53.1,-22.5 100.9,-54.7 141.9,-95.6 41,-41 73.2,-88.7 95.7,-141.9 23.3,-55 35.1,-113.4 35.1,-173.7 0,-60 -12.2,-118.3 -36.3,-173.4 -23.2,-53 -56.4,-100.8 -98.6,-141.9 -42.1,-41 -90.9,-73.3 -145.1,-95.9 -55.9,-23.3 -105.9,-33.1 -166.2,-33.1 v -60 c 68.3,0 126.1,11.4 189.3,37.7 61.2,25.5 116.3,61.9 163.9,108.3 47.8,46.6 85.4,100.7 111.7,160.8 27.4,62.7 41.4,129.1 41.4,197.4 0,68.3 -13.4,134.6 -39.8,197.1 -25.5,60.3 -62,114.4 -108.5,160.9 -46.5,46.5 -100.6,83 -160.9,108.5 -62.7,26.6 -129,40 -197.3,40 z"
   class="st14"
   inkscape:connector-curvature="0"
   style="fill:#d0f0e4;stroke:#ffffff;stroke-width:15;stroke-linecap:round;stroke-linejoin:round;stroke-miterlimit:10" />
	</g>
	<line
   id="line10107"
   y2="1117.4"
   x2="2332.6001"
   y1="795"
   x1="2018.3"
   class="st15"
   style="fill:none;stroke:#fe5244;stroke-width:7;stroke-linecap:round;stroke-miterlimit:10" />
	<circle
   id="circle10109"
   r="24.9"
   cy="1052.6"
   cx="2271.3"
   class="st16"
   style="fill:#d0f0e4;stroke:#ffffff;stroke-width:15;stroke-linecap:round;stroke-miterlimit:10" />
	<path
   id="path10111"
   d="m 2407.1,522.8 4.5,-32.1 c 2.2,-14.8 17.1,-24.2 31.4,-19.8 l 31.4,9.5 c 14.3,4.3 21.5,20.4 15.1,34 l -15.2,30.6"
   class="st13"
   inkscape:connector-curvature="0"
   style="fill:none;stroke:#ffffff;stroke-width:15;stroke-linecap:round;stroke-miterlimit:10" />
</g><g
     id="TABLE-5">
	<polyline
   id="polyline10114"
   points="2192.8,3187.2 2192.8,1898.7 3359.1,1898.7 3359.1,3187.2  "
   class="st17"
   style="fill:none;stroke:#66b0f0;stroke-width:6;stroke-miterlimit:10" />
	<path
   id="path10116"
   d="M 3400.4,1941.8 H 2151.5 c -28.2,0 -51.1,-22.9 -51.1,-51.1 V 1696 c 0,-28.2 22.9,-51.1 51.1,-51.1 h 1248.9 c 28.2,0 51.1,22.9 51.1,51.1 v 194.7 c 0,28.2 -22.9,51.1 -51.1,51.1 z"
   class="st18"
   inkscape:connector-curvature="0"
   style="fill:#ffffff;stroke:#66b0f0;stroke-width:6;stroke-miterlimit:10" />
	<path
   id="path10118"
   d="M 3403.4,1906.8 H 2148.5 c -28.2,0 -51.1,-22.9 -51.1,-51.1 V 1661 c 0,-28.2 22.9,-51.1 51.1,-51.1 h 1254.9 c 28.2,0 51.1,22.9 51.1,51.1 v 194.7 c 0,28.2 -22.9,51.1 -51.1,51.1 z"
   class="st19"
   inkscape:connector-curvature="0"
   style="fill:#66b0f0" />
</g><g
     id="BACKPACK">
	<path
   id="path10121"
   d="m 3395.6,2686.3 v -152.6 c 0,-52 42.2,-94.2 94.2,-94.2 v 0 c 52,0 94.2,42.2 94.2,94.2 v 152.6"
   class="st20"
   inkscape:connector-curvature="0"
   style="fill:none;stroke:#ffcf2d;stroke-width:6;stroke-miterlimit:10" />
	<path
   id="path10123"
   d="m 3302.5,3188.1 h 350.9 c 40.9,0 74.1,-33.2 74.1,-74.1 v -488.8 c 0,-40.9 -33.2,-74.1 -74.1,-74.1 h -350.9 c -40.9,0 -74.1,33.2 -74.1,74.1 V 3114 c 0,41 33.2,74.1 74.1,74.1 z"
   class="st21"
   inkscape:connector-curvature="0"
   style="fill:#3fb1b5" />
	<path
   id="path10125"
   d="m 3727.4,2664.6 c 0,-46.8 -38,-84.8 -84.8,-84.8 h -273.4 c -46.8,0 -84.8,38 -84.8,84.8 v 337.8"
   class="st8"
   inkscape:connector-curvature="0"
   style="fill:none;stroke:#ffffff;stroke-width:6;stroke-miterlimit:10" />
	<path
   id="path10127"
   d="m 3654.5,3188.1 h -239.3 c -40.3,0 -72.9,-32.6 -72.9,-72.9 v -435.3 c 0,-40.3 32.6,-72.9 72.9,-72.9 h 239.3 c 40.3,0 72.9,32.6 72.9,72.9 v 435.3 c 0,40.3 -32.6,72.9 -72.9,72.9 z"
   class="st22"
   inkscape:connector-curvature="0"
   style="fill:#ffffff;stroke:#ffcf2d;stroke-width:6;stroke-miterlimit:10" />
	<path
   id="path10129"
   d="M 3448.3,2720.6 V 2568 c 0,-52 42.2,-94.2 94.2,-94.2 v 0 c 52,0 94.2,42.2 94.2,94.2 v 152.6"
   class="st20"
   inkscape:connector-curvature="0"
   style="fill:none;stroke:#ffcf2d;stroke-width:6;stroke-miterlimit:10" />
	<path
   id="path10131"
   d="m 3653.7,3130.8 h -235.4 c -19.1,0 -34.6,-15.5 -34.6,-34.6 v -179.9 c 0,-19.1 15.5,-34.6 34.6,-34.6 h 235.4 c 19.1,0 34.6,15.5 34.6,34.6 v 179.9 c 0.1,19.1 -15.4,34.6 -34.6,34.6 z"
   class="st4"
   inkscape:connector-curvature="0"
   style="fill:#ffcf2d" />
	<line
   id="line10133"
   y2="3002.3999"
   x2="3269.8"
   y1="3002.3999"
   x1="3299.3999"
   class="st20"
   style="fill:none;stroke:#ffcf2d;stroke-width:6;stroke-miterlimit:10" />
	<path
   id="path10135"
   d="m 3233,2689.5 c 0,145.8 -159.4,362.1 -104.5,431.4 52.4,66.1 104.5,-0.1 104.5,-0.1 z"
   class="st23"
   inkscape:connector-curvature="0"
   style="fill:#ffffff;stroke:#3fb1b5;stroke-width:6;stroke-miterlimit:10" />
	<line
   id="line10137"
   y2="2948.5"
   x2="3667"
   y1="2948.5"
   x1="3402.5"
   class="st24"
   style="fill:none;stroke:#ffffff;stroke-width:5;stroke-linecap:round;stroke-miterlimit:10" />
	<rect
   id="rect10139"
   height="18.200001"
   width="38"
   class="st20"
   y="2717.6001"
   x="3429.3"
   style="fill:none;stroke:#ffcf2d;stroke-width:6;stroke-miterlimit:10" />
	<rect
   id="rect10141"
   height="18.200001"
   width="38"
   class="st20"
   y="2717.6001"
   x="3617"
   style="fill:none;stroke:#ffcf2d;stroke-width:6;stroke-miterlimit:10" />
	<g
   id="g10167">
		<line
   id="line10143"
   y2="2948.5"
   x2="3402.5"
   y1="2960.7"
   x1="3402.5"
   class="st24"
   style="fill:none;stroke:#ffffff;stroke-width:5;stroke-linecap:round;stroke-miterlimit:10" />
		<line
   id="line10145"
   y2="2948.5"
   x2="3426.5"
   y1="2960.7"
   x1="3426.5"
   class="st24"
   style="fill:none;stroke:#ffffff;stroke-width:5;stroke-linecap:round;stroke-miterlimit:10" />
		<line
   id="line10147"
   y2="2948.5"
   x2="3450.6001"
   y1="2960.7"
   x1="3450.6001"
   class="st24"
   style="fill:none;stroke:#ffffff;stroke-width:5;stroke-linecap:round;stroke-miterlimit:10" />
		<line
   id="line10149"
   y2="2948.5"
   x2="3474.6001"
   y1="2960.7"
   x1="3474.6001"
   class="st24"
   style="fill:none;stroke:#ffffff;stroke-width:5;stroke-linecap:round;stroke-miterlimit:10" />
		<line
   id="line10151"
   y2="2948.5"
   x2="3498.7"
   y1="2960.7"
   x1="3498.7"
   class="st24"
   style="fill:none;stroke:#ffffff;stroke-width:5;stroke-linecap:round;stroke-miterlimit:10" />
		<line
   id="line10153"
   y2="2948.5"
   x2="3522.7"
   y1="2960.7"
   x1="3522.7"
   class="st24"
   style="fill:none;stroke:#ffffff;stroke-width:5;stroke-linecap:round;stroke-miterlimit:10" />
		<line
   id="line10155"
   y2="2948.5"
   x2="3547.8999"
   y1="2960.7"
   x1="3547.8999"
   class="st24"
   style="fill:none;stroke:#ffffff;stroke-width:5;stroke-linecap:round;stroke-miterlimit:10" />
		<line
   id="line10157"
   y2="2948.5"
   x2="3572"
   y1="2960.7"
   x1="3572"
   class="st24"
   style="fill:none;stroke:#ffffff;stroke-width:5;stroke-linecap:round;stroke-miterlimit:10" />
		<line
   id="line10159"
   y2="2948.5"
   x2="3594.8999"
   y1="2960.7"
   x1="3594.8999"
   class="st24"
   style="fill:none;stroke:#ffffff;stroke-width:5;stroke-linecap:round;stroke-miterlimit:10" />
		<line
   id="line10161"
   y2="2948.5"
   x2="3618.8999"
   y1="2960.7"
   x1="3618.8999"
   class="st24"
   style="fill:none;stroke:#ffffff;stroke-width:5;stroke-linecap:round;stroke-miterlimit:10" />
		<line
   id="line10163"
   y2="2948.5"
   x2="3643"
   y1="2960.7"
   x1="3643"
   class="st24"
   style="fill:none;stroke:#ffffff;stroke-width:5;stroke-linecap:round;stroke-miterlimit:10" />
		<line
   id="line10165"
   y2="2948.5"
   x2="3667"
   y1="2960.7"
   x1="3667"
   class="st24"
   style="fill:none;stroke:#ffffff;stroke-width:5;stroke-linecap:round;stroke-miterlimit:10" />
	</g>
	<path
   id="path10169"
   d="m 3430.4,3002.4 v 0 c -6.5,0 -11.4,-5.7 -10.6,-12.1 l 5.3,-41.9 h 10.6 l 5.3,41.9 c 0.9,6.4 -4.1,12.1 -10.6,12.1 z"
   class="st23"
   inkscape:connector-curvature="0"
   style="fill:#ffffff;stroke:#3fb1b5;stroke-width:6;stroke-miterlimit:10" />
</g><g
     id="CHARACTER">
	<g
   id="TEST">
		<rect
   id="rect10172"
   height="236.7"
   width="447.5"
   class="st25"
   y="1609.8"
   x="2589.3999"
   style="fill:#ffffff" />
		<g
   id="g10210">
			<g
   id="g10180">
				<circle
   id="circle10174"
   r="9.3000002"
   cy="1786.7"
   cx="2984.5"
   class="st26"
   style="fill:#fe5244;stroke:#fe5244;stroke-width:5;stroke-miterlimit:10" />
				<circle
   id="circle10176"
   r="9.3000002"
   cy="1786.7"
   cx="2950.1001"
   class="st27"
   style="fill:#ffffff;stroke:#fe5244;stroke-width:5;stroke-miterlimit:10" />
				<circle
   id="circle10178"
   r="9.3000002"
   cy="1786.7"
   cx="2915.8"
   class="st27"
   style="fill:#ffffff;stroke:#fe5244;stroke-width:5;stroke-miterlimit:10" />
			</g>
			<g
   id="g10188">
				<circle
   id="circle10182"
   r="9.3000002"
   cy="1752"
   cx="2984.5"
   class="st26"
   style="fill:#fe5244;stroke:#fe5244;stroke-width:5;stroke-miterlimit:10" />
				<circle
   id="circle10184"
   r="9.3000002"
   cy="1752"
   cx="2950.1001"
   class="st27"
   style="fill:#ffffff;stroke:#fe5244;stroke-width:5;stroke-miterlimit:10" />
				<circle
   id="circle10186"
   r="9.3000002"
   cy="1752"
   cx="2915.8"
   class="st27"
   style="fill:#ffffff;stroke:#fe5244;stroke-width:5;stroke-miterlimit:10" />
			</g>
			<g
   id="g10198">
				<g
   id="g10196">
					<circle
   id="circle10190"
   r="9.3000002"
   cy="1682.8"
   cx="2984.5"
   class="st27"
   style="fill:#ffffff;stroke:#fe5244;stroke-width:5;stroke-miterlimit:10" />
					<circle
   id="circle10192"
   r="9.3000002"
   cy="1682.8"
   cx="2950.1001"
   class="st26"
   style="fill:#fe5244;stroke:#fe5244;stroke-width:5;stroke-miterlimit:10" />
					<circle
   id="circle10194"
   r="9.3000002"
   cy="1682.8"
   cx="2915.8"
   class="st27"
   style="fill:#ffffff;stroke:#fe5244;stroke-width:5;stroke-miterlimit:10" />
				</g>
			</g>
			<g
   id="g10208">
				<g
   id="g10206">
					<circle
   id="circle10200"
   r="9.3000002"
   cy="1717.4"
   cx="2984.5"
   class="st27"
   style="fill:#ffffff;stroke:#fe5244;stroke-width:5;stroke-miterlimit:10" />
					<circle
   id="circle10202"
   r="9.3000002"
   cy="1717.4"
   cx="2950.1001"
   class="st27"
   style="fill:#ffffff;stroke:#fe5244;stroke-width:5;stroke-miterlimit:10" />
					<circle
   id="circle10204"
   r="9.3000002"
   cy="1717.4"
   cx="2915.8"
   class="st26"
   style="fill:#fe5244;stroke:#fe5244;stroke-width:5;stroke-miterlimit:10" />
				</g>
			</g>
		</g>
		<g
   id="g10234">
			<g
   id="g10216">
				<circle
   id="circle10212"
   r="9.3000002"
   cy="1717.4"
   cx="2713.5"
   class="st26"
   style="fill:#fe5244;stroke:#fe5244;stroke-width:5;stroke-miterlimit:10" />
				<circle
   id="circle10214"
   r="9.3000002"
   cy="1717.4"
   cx="2679.1001"
   class="st27"
   style="fill:#ffffff;stroke:#fe5244;stroke-width:5;stroke-miterlimit:10" />
			</g>
			<g
   id="g10222">
				<g
   id="g10220">
					<circle
   id="circle10218"
   r="9.3000002"
   cy="1648.2"
   cx="2644.8"
   class="st27"
   style="fill:#ffffff;stroke:#fe5244;stroke-width:5;stroke-miterlimit:10" />
				</g>
			</g>
			<g
   id="g10232">
				<g
   id="g10230">
					<circle
   id="circle10224"
   r="9.3000002"
   cy="1682.8"
   cx="2713.5"
   class="st27"
   style="fill:#ffffff;stroke:#fe5244;stroke-width:5;stroke-miterlimit:10" />
					<circle
   id="circle10226"
   r="9.3000002"
   cy="1682.8"
   cx="2679.1001"
   class="st27"
   style="fill:#ffffff;stroke:#fe5244;stroke-width:5;stroke-miterlimit:10" />
					<circle
   id="circle10228"
   r="9.3000002"
   cy="1682.8"
   cx="2644.8"
   class="st26"
   style="fill:#fe5244;stroke:#fe5244;stroke-width:5;stroke-miterlimit:10" />
				</g>
			</g>
		</g>
		<g
   id="g10264">
			<g
   id="g10242">
				<circle
   id="circle10236"
   r="9.3000002"
   cy="1752"
   cx="2843.5"
   class="st27"
   style="fill:#ffffff;stroke:#fe5244;stroke-width:5;stroke-miterlimit:10" />
				<circle
   id="circle10238"
   r="9.3000002"
   cy="1752"
   cx="2809.1001"
   class="st27"
   style="fill:#ffffff;stroke:#fe5244;stroke-width:5;stroke-miterlimit:10" />
				<circle
   id="circle10240"
   r="9.3000002"
   cy="1752"
   cx="2774.8"
   class="st26"
   style="fill:#fe5244;stroke:#fe5244;stroke-width:5;stroke-miterlimit:10" />
			</g>
			<g
   id="g10252">
				<g
   id="g10250">
					<circle
   id="circle10244"
   r="9.3000002"
   cy="1682.8"
   cx="2843.5"
   class="st26"
   style="fill:#fe5244;stroke:#fe5244;stroke-width:5;stroke-miterlimit:10" />
					<circle
   id="circle10246"
   r="9.3000002"
   cy="1682.8"
   cx="2809.1001"
   class="st27"
   style="fill:#ffffff;stroke:#fe5244;stroke-width:5;stroke-miterlimit:10" />
					<circle
   id="circle10248"
   r="9.3000002"
   cy="1682.8"
   cx="2774.8"
   class="st27"
   style="fill:#ffffff;stroke:#fe5244;stroke-width:5;stroke-miterlimit:10" />
				</g>
			</g>
			<g
   id="g10262">
				<g
   id="g10260">
					<circle
   id="circle10254"
   r="9.3000002"
   cy="1717.4"
   cx="2843.5"
   class="st27"
   style="fill:#ffffff;stroke:#fe5244;stroke-width:5;stroke-miterlimit:10" />
					<circle
   id="circle10256"
   r="9.3000002"
   cy="1717.4"
   cx="2809.1001"
   class="st26"
   style="fill:#fe5244;stroke:#fe5244;stroke-width:5;stroke-miterlimit:10" />
					<circle
   id="circle10258"
   r="9.3000002"
   cy="1717.4"
   cx="2774.8"
   class="st27"
   style="fill:#ffffff;stroke:#fe5244;stroke-width:5;stroke-miterlimit:10" />
				</g>
			</g>
		</g>
	</g>
	<g
   id="BLOUSE">
		<path
   id="path10267"
   d="M 3338.5,1663.6 H 2877 l 0.4,-53.8 h -278 l -80.9,-237 -86.6,159.5 244.5,208.6 -116.9,158.4 -288.8,-185.1 c -52.3,-34.1 -83.8,-92.2 -83.8,-154.6 v 0 c 0,-31.2 7.9,-62 23.1,-89.3 l 134.8,-243.8 c 56.6,-102.3 164.2,-165.7 281,-165.7 h 432.9 c 72,0 139.5,35 181,93.8 l 209.9,292.2 c 65.3,90.5 0.5,216.8 -111.1,216.8 z"
   class="st28"
   inkscape:connector-curvature="0"
   style="fill:#ffffff;stroke:#fe5244;stroke-width:6;stroke-miterlimit:10" />
		<path
   id="path10269"
   d="m 2654.3,1844.7 c -34.2,46 -76.3,72.4 -94.2,59.1 -17.9,-13.3 -4.7,-61.3 29.4,-107.3 34.2,-46 72.3,-70.4 90.2,-57.1 17.9,13.3 8.7,59.4 -25.4,105.3 z"
   class="st6"
   inkscape:connector-curvature="0"
   style="fill:#fe5244" />
		<polygon
   id="polygon10271"
   points="2663.1,1061.2 2801.6,1253.1 2929.4,1061.2 "
   class="st29"
   style="fill:none;stroke:#fe5244;stroke-width:6;stroke-miterlimit:10" />
		<circle
   id="circle10273"
   r="14.5"
   cy="1308.5"
   cx="2803.1001"
   class="st29"
   style="fill:none;stroke:#fe5244;stroke-width:6;stroke-miterlimit:10" />
		<circle
   id="circle10275"
   r="14.5"
   cy="1400.5"
   cx="2803.1001"
   class="st29"
   style="fill:none;stroke:#fe5244;stroke-width:6;stroke-miterlimit:10" />
		<polyline
   id="polyline10277"
   points="3092.8,1360.6 3158.9,1463.1 2880.9,1463.1 2880.9,1667.1   "
   class="st29"
   style="fill:none;stroke:#fe5244;stroke-width:6;stroke-miterlimit:10" />
		<line
   id="line10279"
   y2="1463.1"
   x2="3231.8"
   y1="1463.1"
   x1="3158.8999"
   class="st29"
   style="fill:none;stroke:#fe5244;stroke-width:6;stroke-miterlimit:10" />
		<ellipse
   id="ellipse10281"
   ry="103.7"
   rx="40.400002"
   cy="1563.4"
   cx="2880.8999"
   class="st6"
   style="fill:#fe5244" />
		<path
   id="path10283"
   d="m 2920.9,1463.4 c 22.3,0 40.4,44.8 40.4,100 0,55.2 -18.1,100 -40.4,100"
   class="st29"
   inkscape:connector-curvature="0"
   style="fill:none;stroke:#fe5244;stroke-width:6;stroke-miterlimit:10" />
		<path
   id="path10285"
   d="m 2529,1879.9 c -17.9,-13.3 -4.7,-61.3 29.4,-107.3 34.2,-46 70.3,-70.4 88.2,-57.1"
   class="st29"
   inkscape:connector-curvature="0"
   style="fill:none;stroke:#fe5244;stroke-width:6;stroke-miterlimit:10" />
	</g>
	<g
   id="HAIR-6">
		<path
   id="path10288"
   d="m 2664.1,978.3 c 0.7,-98.6 66.2,-125.6 173.8,-117 116,9.3 68.5,168.9 132.9,174.2 27,2.2 57.8,-28.4 98.8,-53.6 33.8,-22.8 74.5,-36.1 118.4,-36.1 117.1,0 212.1,95 212.1,212.1 0,53.9 -25.1,106 -58.2,143.4 0,0 -125.1,-175.7 -173.6,-192.2 -95.4,-32.4 -125.7,51.4 -191.9,64.4 -8.7,1.7 -18,2.2 -28.2,1 -94.2,-10.8 -76.2,-166.1 -76.2,-166.1 -24.4,-10 -29.7,-35.3 -30.6,-50.6 0.5,-7.4 0.2,-12.3 0.2,-12.3 0,0 -0.6,5 -0.2,12.3 -2,28.8 -19.6,97.7 -117.7,73 v 33.5 c 0,202.9 3.3,242.3 -37.8,293.3 -6.1,7.6 -46.9,68.9 26.2,102 94.2,42.6 27.7,154.7 27.7,154.7 h -199.3 c 0,0 -118.3,-21 -128.6,-128.4 -14.7,-153.5 177.8,-194.6 202.9,-199.3 -48.8,-7.5 -96.5,-55.6 -96.5,-113.9 0,-51.7 39.7,-95.4 80.5,-109.8 0.1,0 0.1,0 0.2,-0.1 1.2,-0.4 2.4,-0.8 3.6,-1.2 31.9,-11 55.4,-35.2 60.6,-64.5 z"
   class="st4"
   inkscape:connector-curvature="0"
   style="fill:#ffcf2d" />
		<g
   id="g10292">
			<path
   id="path10290"
   d="m 2841.9,979.4 c -0.1,0 -0.1,0 0,0 -1.4,0 -2.5,-1.2 -2.5,-2.5 l 0.8,-51.1 c 0,-1.4 1.1,-2.5 2.5,-2.5 0,0 0,0 0,0 1.4,0 2.5,1.2 2.5,2.5 l -0.8,51.1 c -0.1,1.4 -1.2,2.5 -2.5,2.5 z"
   class="st0"
   inkscape:connector-curvature="0"
   style="fill:#a0505a" />
		</g>
		<g
   id="g10296">
			<path
   id="path10294"
   d="m 2728.1,1037.6 c -0.4,0 -0.8,-0.1 -1.2,-0.3 -24.2,-12.7 -29.3,-25.7 -29.6,-26.2 -0.5,-1.3 0.2,-2.7 1.5,-3.2 1.3,-0.5 2.7,0.2 3.2,1.4 0.1,0.2 5,11.9 27.2,23.6 1.2,0.6 1.7,2.2 1.1,3.4 -0.4,0.8 -1.3,1.3 -2.2,1.3 z"
   class="st0"
   inkscape:connector-curvature="0"
   style="fill:#a0505a" />
		</g>
		<circle
   id="circle10298"
   r="30"
   cy="920.70001"
   cx="3064"
   class="st4"
   style="fill:#ffcf2d" />
		<circle
   id="circle10300"
   r="24.1"
   cy="1401"
   cx="2710.8999"
   class="st4"
   style="fill:#ffcf2d" />
	</g>
	<g
   id="ARMS">
		<g
   id="g10313">
			<path
   id="path10303"
   d="m 2862.7,1763.7 -0.1,18.2 c 0,1.6 -0.4,3.2 -1,4.6 l -43.8,97.6 c -6.5,14.1 -20.6,23.1 -36.1,23.1 H 2688 c -23.4,0 -46.1,-7.9 -64.5,-22.3 l -3.3,-2.6 -55.8,-43.9 v 0 c 6.2,-13.4 14.7,-27.7 25.2,-41.8 20,-27 42.9,-47.2 61.9,-56.7 H 2786 c 10.7,23.9 -24.1,43.1 -24.1,43.1 h 60.8 l 22,-23.9 c 5.7,-6.2 16,-3.5 18,4.6 z"
   class="st0"
   inkscape:connector-curvature="0"
   style="fill:#a0505a" />
			<path
   id="path10305"
   d="m 2828.1,1854.4 c -6.5,14.1 -20.6,23.1 -36.1,23.1 h -78.9"
   class="st30"
   inkscape:connector-curvature="0"
   style="fill:none;stroke:#73325a;stroke-width:5;stroke-linecap:round;stroke-miterlimit:10" />
			<path
   id="path10307"
   d="m 2841.9,1823.5 c -6.5,14.1 -20.6,23.1 -36.1,23.1 h -78.9"
   class="st30"
   inkscape:connector-curvature="0"
   style="fill:none;stroke:#73325a;stroke-width:5;stroke-linecap:round;stroke-miterlimit:10" />
			<path
   id="path10309"
   d="m 2856.8,1789.1 c -6.5,14.1 -20.6,23.1 -36.1,23.1 h -78.9"
   class="st30"
   inkscape:connector-curvature="0"
   style="fill:none;stroke:#73325a;stroke-width:5;stroke-linecap:round;stroke-miterlimit:10" />
			<path
   id="path10311"
   d="m 2653.3,1842.7 c -8.9,14.5 -22,29.6 -33.1,39.6 l -0.1,-0.1 -55.8,-43.9 v 0 c 6.2,-13.4 14.7,-27.7 25.2,-41.8 20,-27 42.9,-47.2 61.9,-56.7 h 28.9 c 2.6,22.7 -1.2,60.9 -27,102.9 z"
   class="st1"
   inkscape:connector-curvature="0"
   style="fill:#73325a" />
		</g>
		<g
   id="g10329">
			<path
   id="path10315"
   d="m 2749.2,1534.2 c 0,0 48.6,-129.7 67.4,-127.1 18.7,2.5 -41.9,117.5 -41.9,117.5 z"
   class="st6"
   inkscape:connector-curvature="0"
   style="fill:#fe5244" />
			<g
   id="g10327">
				<path
   id="path10317"
   d="m 2921.3,1563.4 c 0,55.5 -17,100.7 -38.3,103.5 -0.7,0.1 -1.4,0.1 -2.1,0.1 h -198 c -6,0 -10.8,-4.8 -10.8,-10.8 V 1593 c 0,-17.9 11,-33.9 27.7,-40.2 l 82.9,-31.4 c 7.5,-2.8 15.5,-4.3 23.5,-4.3 H 2917 c 2.7,14 4.3,29.7 4.3,46.3 z"
   class="st0"
   inkscape:connector-curvature="0"
   style="fill:#a0505a" />
				<path
   id="path10319"
   d="m 2759.1,1566.8 -62.6,23.7 c -12.6,4.8 -20.9,16.9 -20.9,30.3"
   class="st30"
   inkscape:connector-curvature="0"
   style="fill:none;stroke:#73325a;stroke-width:5;stroke-linecap:round;stroke-miterlimit:10" />
				<path
   id="path10321"
   d="m 2759.1,1604.6 -62.6,23.7 c -12.6,4.8 -20.9,16.9 -20.9,30.3"
   class="st30"
   inkscape:connector-curvature="0"
   style="fill:none;stroke:#73325a;stroke-width:5;stroke-linecap:round;stroke-miterlimit:10" />
				<line
   id="line10323"
   y2="1663.6"
   x2="2693.1001"
   y1="1639.9"
   x1="2755.7"
   class="st30"
   style="fill:none;stroke:#73325a;stroke-width:5;stroke-linecap:round;stroke-miterlimit:10" />
				<path
   id="path10325"
   d="m 2921.3,1563.4 c 0,55.5 -17,100.7 -38.3,103.5 -0.7,0.1 -1.4,0.1 -2.1,0.1 -22.3,0 -40.4,-46.4 -40.4,-103.7 0,-15.3 2.3,-32.7 4.7,-46.3 h 71.3 c 2.5,13.7 4.8,31.1 4.8,46.4 z"
   class="st1"
   inkscape:connector-curvature="0"
   style="fill:#73325a" />
			</g>
		</g>
	</g>
	<g
   id="HEAD-2">
		<path
   d="m 2904.7,1030.7 c 0,5.8 -2,11.3 -5.3,15.6 -3.4,4.4 -8.1,7.6 -13.8,9.1 l -13.8,3.6 v 15.4 c 0,37.2 -30.1,67.3 -67.3,67.3 h -13.3 c -37.1,0 -67.1,-30 -67.3,-67 v -44 c 98.1,24.8 115.7,-44.2 117.7,-73 0.8,14.6 5.7,38.2 27.3,49.1 l 3.8,-1 c 16.2,-4 32,8.2 32,24.9 z"
   class="st0"
   id="HEAD_1_-9"
   inkscape:connector-curvature="0"
   style="fill:#a0505a" />
		<g
   id="FACE-1">
			<path
   id="path10333"
   d="m 2821.3,1043.1 c 0,0 20.4,-2 32.2,8.1"
   class="st30"
   inkscape:connector-curvature="0"
   style="fill:none;stroke:#73325a;stroke-width:5;stroke-linecap:round;stroke-miterlimit:10" />
			<path
   id="path10335"
   d="m 2742.1,1048.8 c 0,0 15,-8.1 31.8,-0.7 10,4.4 16.6,28 16.8,59.2"
   class="st30"
   inkscape:connector-curvature="0"
   style="fill:none;stroke:#73325a;stroke-width:5;stroke-linecap:round;stroke-miterlimit:10" />
			<ellipse
   id="ellipse10337"
   ry="7.5"
   rx="3.9000001"
   cy="1071.8"
   cx="2761.3"
   class="st1"
   style="fill:#73325a" />
			<ellipse
   id="ellipse10339"
   ry="7.5"
   rx="3.9000001"
   cy="1071.8"
   cx="2833.8999"
   class="st1"
   style="fill:#73325a" />
			<path
   id="path10341"
   d="m 2875.6,1040.4 c 0,-8.7 6.1,-16.2 14.6,-18"
   class="st30"
   inkscape:connector-curvature="0"
   style="fill:none;stroke:#73325a;stroke-width:5;stroke-linecap:round;stroke-miterlimit:10" />
		</g>
	</g>
</g><g
     id="PLANT">
	<g
   id="g10376">
		<path
   id="path10346"
   d="m 2074.7,2576.9 c 11.9,28 8.4,85.6 -51.5,84.8 -74.3,-1 -72.4,-201.2 -72.4,-201.2 0,0 75.9,3.5 123.9,116.4 z"
   class="st21"
   inkscape:connector-curvature="0"
   style="fill:#3fb1b5" />
		<path
   id="path10348"
   d="m 1382.7,2509.2 c -18.6,39.4 6.4,71.1 27.4,60.2 36.7,-19.1 52.5,-68.2 52.5,-68.2 0,0 -63.2,-27.2 -79.9,8 z"
   class="st21"
   inkscape:connector-curvature="0"
   style="fill:#3fb1b5" />
		<path
   id="path10350"
   d="m 2073.7,2576.9 c -39.8,-79.7 -84.7,-117.6 -156.6,-117.6 -121.1,0 -198.8,129.6 -213.6,297.2 -1.8,-20.8 -23.3,-42.1 -24.9,-63.7 -21.6,-287 135.7,-400.2 253.7,-400.2 96.6,-0.1 120.7,138.7 141.4,284.3 z"
   class="st23"
   inkscape:connector-curvature="0"
   style="fill:#ffffff;stroke:#3fb1b5;stroke-width:6;stroke-miterlimit:10" />
		<path
   id="path10352"
   d="m 1678.7,2760.5 c -21.6,-287 143,-400.2 251.7,-400.2 60.3,0 98.1,35.6 127.2,116.6"
   class="st31"
   inkscape:connector-curvature="0"
   style="fill:none;stroke:#3fb1b5;stroke-width:6;stroke-miterlimit:10" />
		<path
   id="path10354"
   d="m 1225.6,2171.5 c -32.3,32 -90.7,163.2 -18.4,189.2 72.3,26.1 157,-230.8 157,-230.8 0,0 -61.3,-35.1 -138.6,41.6 z"
   class="st32"
   inkscape:connector-curvature="0"
   style="fill:#ffcf2d;stroke:#ffcf2d;stroke-width:6;stroke-miterlimit:10" />
		<g
   id="g10360">
			<path
   id="path10356"
   d="m 1821.7,2767.6 -25.8,139.9 c -13,70.2 -74.2,121.2 -145.6,121.2 -71.4,0 -132.6,-51 -145.6,-121.2 l -25.8,-139.9 c 0,-7 1.6,-13.7 4.4,-19.7 20.7,20.8 88,36 167.7,36 78.6,0 145,-14.8 166.8,-35 2.5,5.7 3.9,12.1 3.9,18.7 z"
   class="st10"
   inkscape:connector-curvature="0"
   style="fill:#d0f0e4" />
			<path
   id="path10358"
   d="m 1804.8,2734.4 c 0,19.8 -68.9,35.8 -153.9,35.8 -85,0 -153.9,-16 -153.9,-35.8 0,-1.6 0.4,-3.1 1.3,-4.6 9.8,-17.6 74.4,-31.1 152.6,-31.1 80.6,0 146.7,14.4 153.3,32.7 0.4,1 0.6,2 0.6,3 z"
   class="st19"
   inkscape:connector-curvature="0"
   style="fill:#66b0f0" />
		</g>
		<path
   id="path10362"
   d="m 1706.1,2525.7 c 0,82.8 -11.4,161 -31.7,229.8 H 1616 c -0.2,-347.7 -127,-629.4 -283.3,-629.4 -40.6,0 -79.2,19 -114.1,53.2 102.8,-120.3 145.5,-153.3 204.2,-153.3 140.2,0 283.3,223.7 283.3,499.7 z"
   class="st22"
   inkscape:connector-curvature="0"
   style="fill:#ffffff;stroke:#ffcf2d;stroke-width:6;stroke-miterlimit:10" />
		<path
   id="path10364"
   d="m 1284,2106 c 33.4,-24.3 54.9,-35.6 93.2,-35.6 156.4,0 314.7,261 273,685"
   class="st20"
   inkscape:connector-curvature="0"
   style="fill:none;stroke:#ffcf2d;stroke-width:6;stroke-miterlimit:10" />
		<path
   id="path10366"
   d="m 1650.6,2755.4 c 0,0 8.6,-326.5 -169.3,-327.6 -47.1,-0.3 -91.2,74.4 -91.2,74.4 0,0 208.3,-54.4 218.6,253.2 z"
   class="st23"
   inkscape:connector-curvature="0"
   style="fill:#ffffff;stroke:#3fb1b5;stroke-width:6;stroke-miterlimit:10" />
		<path
   id="path10368"
   d="m 1628.8,2756.4 c 2.5,-92 -20.7,-314 -200.5,-302.1"
   class="st31"
   inkscape:connector-curvature="0"
   style="fill:none;stroke:#3fb1b5;stroke-width:6;stroke-miterlimit:10" />
		<circle
   id="circle10370"
   r="16.5"
   cy="2176"
   cx="1389.3"
   class="st22"
   style="fill:#ffffff;stroke:#ffcf2d;stroke-width:6;stroke-miterlimit:10" />
		<circle
   id="circle10372"
   r="24.1"
   cy="2640.3"
   cx="1778.2"
   class="st22"
   style="fill:#ffffff;stroke:#ffcf2d;stroke-width:6;stroke-miterlimit:10" />
		<circle
   id="circle10374"
   r="45.5"
   cy="2154"
   cx="1738.2"
   class="st10"
   style="fill:#d0f0e4" />
	</g>
	<g
   id="g10382">
		<path
   id="path10378"
   d="m 1857.7,3187.2 -40.3,-200.7 c -3.4,-17.1 -26.2,-21.1 -35.2,-6.1 v 0 c -55.6,92.5 -206.6,93.1 -263.1,0.9 l -1,-1.7 c -9.1,-14.8 -31.7,-10.8 -35.1,6.2 l -40.4,201.3"
   class="st17"
   inkscape:connector-curvature="0"
   style="fill:none;stroke:#66b0f0;stroke-width:6;stroke-miterlimit:10" />
		<line
   id="line10380"
   y2="3188.1001"
   x2="1650.2"
   y1="3050.2"
   x1="1650.2"
   class="st17"
   style="fill:none;stroke:#66b0f0;stroke-width:6;stroke-miterlimit:10" />
	</g>
	<line
   id="line10384"
   y2="3187.2"
   x2="2691.5"
   y1="3187.2"
   x1="1351.1"
   class="st17"
   style="fill:none;stroke:#66b0f0;stroke-width:6;stroke-miterlimit:10" />
</g></g></svg>