<?xml version="1.0" encoding="UTF-8" standalone="no"?>
<!-- Generator: Adobe Illustrator 24.2.1, SVG Export Plug-In . SVG Version: 6.00 Build 0)  -->

<svg
   xmlns:dc="http://purl.org/dc/elements/1.1/"
   xmlns:cc="http://creativecommons.org/ns#"
   xmlns:rdf="http://www.w3.org/1999/02/22-rdf-syntax-ns#"
   xmlns:svg="http://www.w3.org/2000/svg"
   xmlns="http://www.w3.org/2000/svg"
   xmlns:sodipodi="http://sodipodi.sourceforge.net/DTD/sodipodi-0.dtd"
   xmlns:inkscape="http://www.inkscape.org/namespaces/inkscape"
   version="1.1"
   id="Слой_1"
   x="0px"
   y="0px"
   viewBox="0 0 5000 3500"
   style="enable-background:new 0 0 5000 3500;"
   xml:space="preserve"
   sodipodi:docname="shapes 3.svg"
   inkscape:version="0.92.5 (2060ec1f9f, 2020-04-08)"><metadata
   id="metadata1700"><rdf:RDF><cc:Work
       rdf:about=""><dc:format>image/svg+xml</dc:format><dc:type
         rdf:resource="http://purl.org/dc/dcmitype/StillImage" /><dc:title></dc:title></cc:Work></rdf:RDF></metadata><defs
   id="defs1698" /><sodipodi:namedview
   pagecolor="#ffffff"
   bordercolor="#666666"
   borderopacity="1"
   objecttolerance="10"
   gridtolerance="10"
   guidetolerance="10"
   inkscape:pageopacity="0"
   inkscape:pageshadow="2"
   inkscape:window-width="1920"
   inkscape:window-height="1012"
   id="namedview1696"
   showgrid="false"
   inkscape:zoom="0.16122035"
   inkscape:cx="2124.4392"
   inkscape:cy="1575.7323"
   inkscape:window-x="0"
   inkscape:window-y="35"
   inkscape:window-maximized="1"
   inkscape:current-layer="Слой_1" />
<style
   type="text/css"
   id="style1385">
	.st0{fill:#D0F0E4;}
	.st1{fill:none;stroke:#FFCF2D;stroke-width:6;stroke-miterlimit:10;}
	.st2{fill:#FFCF2D;stroke:#FFFFFF;stroke-width:6;stroke-miterlimit:10;}
	.st3{fill:none;stroke:#9A3B82;stroke-width:6;stroke-linecap:round;stroke-miterlimit:10;}
	.st4{fill:#66B0F0;}
	.st5{fill:#9A3B82;}
	.st6{fill:#FFFFFF;stroke:#FFCF2D;stroke-width:6;stroke-miterlimit:10;}
	.st7{fill:#FE5244;}
	.st8{fill:#FFCF2D;}
	.st9{fill:none;stroke:#FFCF2D;stroke-width:6;stroke-linecap:round;stroke-miterlimit:10;}
	.st10{fill:#FFFFFF;stroke:#9A3B82;stroke-width:6;stroke-linecap:round;stroke-miterlimit:10;}
	.st11{fill:#FFFFFF;stroke:#3FB1B5;stroke-width:6;stroke-miterlimit:10;}
	.st12{fill:none;stroke:#3FB1B5;stroke-width:6;stroke-miterlimit:10;}
	.st13{fill:none;stroke:#9A3B82;stroke-width:6;stroke-linecap:round;stroke-linejoin:round;stroke-miterlimit:10;}
	.st14{fill:#FFFFFF;}
	.st15{fill:none;stroke:#FE5244;stroke-width:5;stroke-miterlimit:10;}
	.st16{fill:#FFFFFF;stroke:#FE5244;stroke-width:6;stroke-miterlimit:10;}
	.st17{fill:none;stroke:#FE5244;stroke-width:6;stroke-miterlimit:10;}
	.st18{fill:#3FB1B5;}
	.st19{fill:none;stroke:#9A3B82;stroke-width:6;stroke-miterlimit:10;}
	.st20{fill:none;stroke:#FFFFFF;stroke-width:6;stroke-miterlimit:10;}
	.st21{fill:#E57281;}
	.st22{fill:none;stroke:#9A3B82;stroke-width:5;stroke-linecap:round;stroke-miterlimit:10;}
	.st23{fill:#FE5244;stroke:#FE5244;stroke-width:6;stroke-miterlimit:10;}
	.st24{fill:none;stroke:#FFFFFF;stroke-width:6;stroke-linecap:round;stroke-miterlimit:10;}
</style>





<ellipse
   style="opacity:0.60100002;fill:#ffc551;fill-opacity:1;stroke:none;stroke-width:1.77014482;stroke-miterlimit:4;stroke-dasharray:none;stroke-opacity:1;paint-order:markers fill stroke"
   id="path1809"
   cx="4529.4077"
   cy="1329.058"
   rx="392.21326"
   ry="378.36411" /><circle
   style="opacity:0.60100002;fill:#ff9a51;fill-opacity:1;stroke:none;stroke-width:2.4000001;stroke-miterlimit:4;stroke-dasharray:none;stroke-opacity:1;paint-order:markers fill stroke"
   id="path1815"
   cx="2862.5422"
   cy="773.9173"
   r="604.76239" /><circle
   style="opacity:0.60100002;fill:#ff9a68;fill-opacity:1;stroke:none;stroke-width:1.37313437;stroke-miterlimit:4;stroke-dasharray:none;stroke-opacity:1;paint-order:markers fill stroke"
   id="path1817"
   cx="4134.0933"
   cy="1989.6449"
   r="356.65469" /><circle
   style="opacity:1;fill:#ff6d4a;fill-opacity:1;stroke:none;stroke-width:2.4000001;stroke-miterlimit:4;stroke-dasharray:none;stroke-opacity:1;paint-order:markers fill stroke"
   id="path1819"
   cx="3777.439"
   cy="1025.1262"
   r="440.39105" /><circle
   style="opacity:1;fill:#ff9a3d;fill-opacity:1;stroke:none;stroke-width:3.26538467;stroke-miterlimit:4;stroke-dasharray:none;stroke-opacity:1;paint-order:markers fill stroke"
   id="path1821"
   cx="1144.3964"
   cy="2175.7253"
   r="877.68079" /><circle
   style="opacity:1;fill:#ff8857;fill-opacity:1;stroke:none;stroke-width:2.4000001;stroke-miterlimit:4;stroke-dasharray:none;stroke-opacity:1;paint-order:markers fill stroke"
   id="path1823"
   cx="2037.584"
   cy="922.78186"
   r="338.04666" /><ellipse
   style="opacity:0.60100002;fill:#ff6724;fill-opacity:1;stroke:none;stroke-width:1.93378651;stroke-miterlimit:4;stroke-dasharray:none;stroke-opacity:1;paint-order:markers fill stroke"
   id="path1825"
   cx="772.23499"
   cy="1183.7067"
   rx="114.74979"
   ry="120.54079" /><circle
   style="opacity:0.96799999;fill:#ff9a49;fill-opacity:1;stroke:none;stroke-width:2.4000001;stroke-miterlimit:4;stroke-dasharray:none;stroke-opacity:1;paint-order:markers fill stroke"
   id="path1829"
   cx="1708.8413"
   cy="866.95764"
   r="77.533638" /><circle
   style="opacity:0.60100002;fill:#ff9a51;fill-opacity:1;stroke:none;stroke-width:2.4000001;stroke-miterlimit:4;stroke-dasharray:none;stroke-opacity:1;paint-order:markers fill stroke"
   id="path1831"
   cx="1262.2476"
   cy="854.55231"
   r="201.58746" /><style
   id="style2"
   type="text/css">
	.st0{fill:none;stroke:#66B0F0;stroke-width:6;stroke-miterlimit:10;}
	.st1{fill:none;stroke:#66B0F0;stroke-width:6;stroke-linecap:round;stroke-miterlimit:10;}
	.st2{fill:#66B0F0;}
	.st3{fill:#D0F0E4;}
	.st4{fill:#3FB1B5;}
	.st5{fill:none;stroke:#FFCF2D;stroke-width:6;stroke-linecap:round;stroke-miterlimit:10;}
	.st6{fill:none;stroke:#FFCF2D;stroke-width:6;stroke-miterlimit:10;}
	.st7{fill:#FE5244;}
	.st8{opacity:0.2;}
	.st9{fill:#FFFFFF;}
	.st10{fill:#E57281;}
	.st11{fill:none;stroke:#FFFFFF;stroke-width:6;stroke-miterlimit:10;}
	.st12{fill:none;stroke:#FFFFFF;stroke-width:5;stroke-miterlimit:10;}
	.st13{fill:none;stroke:#FFFFFF;stroke-width:5;stroke-linecap:round;stroke-miterlimit:10;}
	.st14{fill:#FFFFFF;stroke:#FE5244;stroke-width:5;stroke-miterlimit:10;}
	.st15{fill:#FFFFFF;stroke:#9A3B82;stroke-width:6;stroke-linecap:round;stroke-miterlimit:10;}
	.st16{fill:none;stroke:#9A3B82;stroke-width:6;stroke-linecap:round;stroke-miterlimit:10;}
	.st17{fill:#9A3B82;}
	.st18{fill:#FFCF2D;}
	.st19{fill:#FFFFFF;stroke:#FFCF2D;stroke-width:5;stroke-miterlimit:10;}
	.st20{fill:none;stroke:#E57281;stroke-width:4;stroke-linecap:round;stroke-miterlimit:10;}
	.st21{fill:#73325A;}
	.st22{fill:none;stroke:#73325A;stroke-width:4;stroke-linecap:round;stroke-miterlimit:10;}
	.st23{fill:#3FB1B5;stroke:#3FB1B5;stroke-width:5;stroke-linecap:round;stroke-miterlimit:10;}
	.st24{fill:#FFFFFF;stroke:#3FB1B5;stroke-width:6;stroke-miterlimit:10;}
	.st25{fill:#FFFFFF;stroke:#3FB1B5;stroke-width:6;stroke-linecap:round;stroke-miterlimit:10;}
	.st26{fill:#A0505A;}
	.st27{fill:#0096A0;}
	.st28{fill:#FFFFFF;stroke:#FE5244;stroke-width:6;stroke-miterlimit:10;}
	.st29{fill:none;stroke:#FE5244;stroke-width:6;stroke-miterlimit:10;}
	.st30{fill:none;stroke:#FE5244;stroke-width:6;stroke-linejoin:round;stroke-miterlimit:10;}
	.st31{fill:#FE5244;stroke:#FFFFFF;stroke-width:6;stroke-miterlimit:10;}
	.st32{fill:none;stroke:#9A3B82;stroke-width:4;stroke-linecap:round;stroke-miterlimit:10;}
	.st33{fill:none;stroke:#FE5244;stroke-width:5;stroke-miterlimit:10;}
	.st34{fill:#FFFFFF;stroke:#FE5244;stroke-width:5;stroke-linejoin:round;stroke-miterlimit:10;}
	.st35{fill:#FFFFFF;stroke:#3FB1B5;stroke-width:5;stroke-linecap:round;stroke-miterlimit:10;}
</style><style
   id="style9255"
   type="text/css">
	.st0{fill:#D0F0E4;}
	.st1{fill:#FFFFFF;stroke:#66B0F0;stroke-width:6;stroke-miterlimit:10;}
	.st2{fill:#66B0F0;}
	.st3{fill:#66B0F0;stroke:#66B0F0;stroke-width:6;stroke-miterlimit:10;}
	.st4{fill:none;stroke:#66B0F0;stroke-width:6;stroke-miterlimit:10;}
	.st5{fill:#FFCF2D;}
	.st6{fill:#FFFFFF;}
	.st7{fill:#FFFFFF;stroke:#66B0F0;stroke-width:4;stroke-miterlimit:10;}
	.st8{fill:none;stroke:#66B0F0;stroke-width:4;stroke-linecap:round;stroke-miterlimit:10;}
	.st9{fill:#E57281;}
	.st10{fill:#9A3B82;}
	.st11{fill:#3FB1B5;}
	.st12{fill:#E6E6E6;}
	.st13{fill:none;stroke:#FFFFFF;stroke-width:6;stroke-linecap:round;stroke-miterlimit:10;}
	.st14{fill:none;stroke:#FFFFFF;stroke-width:6;stroke-miterlimit:10;}
	.st15{fill:#FFFFFF;stroke:#FFCF2D;stroke-width:6;stroke-miterlimit:10;}
	.st16{fill:none;stroke:#FFCF2D;stroke-width:6;stroke-linecap:round;stroke-miterlimit:10;}
	.st17{fill:#FFFFFF;stroke:#FE5244;stroke-width:6;stroke-miterlimit:10;}
	.st18{fill:none;stroke:#FE5244;stroke-width:6;stroke-miterlimit:10;}
	.st19{fill:#FFCF2D;stroke:#FE5244;stroke-width:6;stroke-linejoin:round;stroke-miterlimit:10;}
	.st20{fill:none;stroke:#9A3B82;stroke-width:5;stroke-linecap:round;stroke-miterlimit:10;}
	.st21{fill:#FE5244;}
	.st22{fill:#FFFFFF;stroke:#3FB1B5;stroke-width:5;stroke-miterlimit:10;}
	.st23{fill:none;stroke:#3FB1B5;stroke-width:5;stroke-miterlimit:10;}
	.st24{fill:#A0505A;}
	.st25{fill:#73325A;}
	.st26{fill:#FFFFFF;stroke:#FFCF2D;stroke-width:6;stroke-linecap:round;stroke-miterlimit:10;}
	.st27{fill:none;stroke:#73325A;stroke-width:5;stroke-linecap:round;stroke-miterlimit:10;}
</style><g
   id="g10003"
   transform="translate(176.47871,224.95496)"><polygon
     points="3711.5,2598.7 4374,2996 626,2996 1298.8,2598.7 "
     class="st0"
     id="FLOOR"
     style="fill:#d0f0e4" /><g
     id="LAPTOP">
	<g
   id="g9298">
		<path
   id="path9258"
   d="M 2774.9,1053.7 H 2100.6 V 663.8 c 0,-26.4 21.4,-47.8 47.8,-47.8 h 578.7 c 26.4,0 47.8,21.4 47.8,47.8 z"
   class="st1"
   inkscape:connector-curvature="0"
   style="fill:#ffffff;stroke:#66b0f0;stroke-width:6;stroke-miterlimit:10" />
		<path
   id="path9260"
   d="m 2724,1028.3 h -569.7 c -15,0 -27.2,-12.2 -27.2,-27.2 V 666.9 c 0,-15 12.2,-27.2 27.2,-27.2 H 2724 c 15,0 27.2,12.2 27.2,27.2 v 334.3 c 0,15 -12.2,27.1 -27.2,27.1 z"
   class="st2"
   inkscape:connector-curvature="0"
   style="fill:#66b0f0" />
		<path
   id="path9262"
   d="m 2893.1,1145.2 c 25.8,16.8 19.8,49.7 -10.7,49.7 h -918.6 c -25.7,0 -34.5,-34.7 -9.3,-50.6 z"
   class="st3"
   inkscape:connector-curvature="0"
   style="fill:#66b0f0;stroke:#66b0f0;stroke-width:6;stroke-miterlimit:10" />
		<path
   id="path9264"
   d="m 2882.4,1172 h -918.6 c -16.4,0 -22.9,-19.3 -9.3,-27.7 l 146.3,-90.6 H 2773 l 120,91.5 c 12,9.1 5,26.8 -10.6,26.8 z"
   class="st1"
   inkscape:connector-curvature="0"
   style="fill:#ffffff;stroke:#66b0f0;stroke-width:6;stroke-miterlimit:10" />
		<g
   id="g9296">
			<path
   id="path9266"
   d="m 2776.4,1144.7 h -706.6 c -12.6,0 -17.6,-14.9 -7.2,-21.3 l 101.6,-69.7 h 528 l 92.3,70.4 c 9.3,7 3.9,20.6 -8.1,20.6 z"
   class="st1"
   inkscape:connector-curvature="0"
   style="fill:#ffffff;stroke:#66b0f0;stroke-width:6;stroke-miterlimit:10" />
			<g
   id="g9278">
				<line
   id="line9268"
   y2="1144.7"
   x2="2738.8999"
   y1="1053.7"
   x1="2646.5"
   class="st4"
   style="fill:none;stroke:#66b0f0;stroke-width:6;stroke-miterlimit:10" />
				<line
   id="line9270"
   y2="1144.7"
   x2="2678.8999"
   y1="1053.7"
   x1="2597.5"
   class="st4"
   style="fill:none;stroke:#66b0f0;stroke-width:6;stroke-miterlimit:10" />
				<line
   id="line9272"
   y2="1144.7"
   x2="2622.3"
   y1="1053.7"
   x1="2551.7"
   class="st4"
   style="fill:none;stroke:#66b0f0;stroke-width:6;stroke-miterlimit:10" />
				<line
   id="line9274"
   y2="1144.7"
   x2="2560.2"
   y1="1053.7"
   x1="2500.5"
   class="st4"
   style="fill:none;stroke:#66b0f0;stroke-width:6;stroke-miterlimit:10" />
				<line
   id="line9276"
   y2="1144.7"
   x2="2487.1001"
   y1="1053.7"
   x1="2458"
   class="st4"
   style="fill:none;stroke:#66b0f0;stroke-width:6;stroke-miterlimit:10" />
			</g>
			<g
   id="g9290">
				<line
   id="line9280"
   y2="1144.7"
   x2="2114.7"
   y1="1053.7"
   x1="2207.1001"
   class="st4"
   style="fill:none;stroke:#66b0f0;stroke-width:6;stroke-miterlimit:10" />
				<line
   id="line9282"
   y2="1144.7"
   x2="2174.7"
   y1="1053.7"
   x1="2256.1001"
   class="st4"
   style="fill:none;stroke:#66b0f0;stroke-width:6;stroke-miterlimit:10" />
				<line
   id="line9284"
   y2="1144.7"
   x2="2231.3"
   y1="1053.7"
   x1="2301.8999"
   class="st4"
   style="fill:none;stroke:#66b0f0;stroke-width:6;stroke-miterlimit:10" />
				<line
   id="line9286"
   y2="1144.7"
   x2="2293.3999"
   y1="1053.7"
   x1="2353.1001"
   class="st4"
   style="fill:none;stroke:#66b0f0;stroke-width:6;stroke-miterlimit:10" />
				<line
   id="line9288"
   y2="1144.7"
   x2="2366.5"
   y1="1053.7"
   x1="2395.6001"
   class="st4"
   style="fill:none;stroke:#66b0f0;stroke-width:6;stroke-miterlimit:10" />
			</g>
			<line
   id="line9292"
   y2="1053.7"
   x2="2424.3999"
   y1="1145.8"
   x1="2424.3999"
   class="st1"
   style="fill:#ffffff;stroke:#66b0f0;stroke-width:6;stroke-miterlimit:10" />
			<line
   id="line9294"
   y2="1087.7"
   x2="2736.8999"
   y1="1087.7"
   x1="2114.7"
   class="st4"
   style="fill:none;stroke:#66b0f0;stroke-width:6;stroke-miterlimit:10" />
		</g>
	</g>
	<g
   id="g9371">
		<g
   id="SHIRT">
			<path
   id="path9300"
   d="m 2676.6,1028.3 h -505.9 l 9.1,-64.5 c 5.6,-39.7 34.1,-72.3 72.6,-83.3 l 123.3,-25.6 h 95.9 l 123.3,25.6 c 38.6,10.9 67.1,43.6 72.6,83.3 z"
   class="st5"
   inkscape:connector-curvature="0"
   style="fill:#ffcf2d" />
			<g
   id="g9318">
				<g
   id="g9304">
					<path
   id="path9302"
   d="m 2457.8,928.6 -36.5,-36.9 c -0.8,-0.8 -0.8,-2.1 0,-2.8 0.8,-0.8 2.1,-0.8 2.8,0 l 33.5,33.9 52,-58.9 c 0.7,-0.8 2,-0.9 2.8,-0.2 0.8,0.7 0.9,2 0.2,2.8 z"
   class="st6"
   inkscape:connector-curvature="0"
   style="fill:#ffffff" />
				</g>
				<g
   id="g9308">
					<path
   id="path9306"
   d="m 2390,928.6 -54.8,-62.1 c -0.7,-0.8 -0.7,-2.1 0.2,-2.8 0.8,-0.7 2.1,-0.7 2.8,0.2 l 52,58.9 33.5,-33.9 c 0.8,-0.8 2,-0.8 2.8,0 0.8,0.8 0.8,2 0,2.8 z"
   class="st6"
   inkscape:connector-curvature="0"
   style="fill:#ffffff" />
				</g>
				<g
   id="g9312">
					<path
   id="path9310"
   d="m 2424.5,952.7 c -4.8,0 -8.7,-3.9 -8.7,-8.7 0,-4.8 3.9,-8.7 8.7,-8.7 4.8,0 8.7,3.9 8.7,8.7 0,4.8 -3.9,8.7 -8.7,8.7 z m 0,-13.4 c -2.6,0 -4.7,2.1 -4.7,4.7 0,2.6 2.1,4.7 4.7,4.7 2.6,0 4.7,-2.1 4.7,-4.7 0,-2.6 -2.1,-4.7 -4.7,-4.7 z"
   class="st6"
   inkscape:connector-curvature="0"
   style="fill:#ffffff" />
				</g>
				<g
   id="g9316">
					<path
   id="path9314"
   d="m 2424.5,1001.7 c -4.8,0 -8.7,-3.9 -8.7,-8.7 0,-4.8 3.9,-8.7 8.7,-8.7 4.8,0 8.7,3.9 8.7,8.7 0,4.8 -3.9,8.7 -8.7,8.7 z m 0,-13.4 c -2.6,0 -4.7,2.1 -4.7,4.7 0,2.6 2.1,4.7 4.7,4.7 2.6,0 4.7,-2.1 4.7,-4.7 0,-2.6 -2.1,-4.7 -4.7,-4.7 z"
   class="st6"
   inkscape:connector-curvature="0"
   style="fill:#ffffff" />
				</g>
			</g>
		</g>
		<g
   id="HAND_1_">
			<polygon
   id="polygon9321"
   points="2331.5,850 2375.1,1026.2 2211.7,1026.2 2168.1,896.8 "
   class="st7"
   style="fill:#ffffff;stroke:#66b0f0;stroke-width:4;stroke-miterlimit:10" />
			<g
   id="g9339">
				<path
   id="path9323"
   d="m 2220.2,913.6 h -3.1 c -7.9,0 -14.3,-6.4 -14.3,-14.3 v -44.9 c 0,-3.2 2.6,-5.8 5.8,-5.8 h 13.5 c 3.2,0 5.8,2.6 5.8,5.8 v 51.4 c 0.1,4.3 -3.4,7.8 -7.7,7.8 z"
   class="st6"
   inkscape:connector-curvature="0"
   style="fill:#ffffff" />
				<path
   id="path9325"
   d="m 2220.2,913.6 h -3.1 c -7.9,0 -14.3,-6.4 -14.3,-14.3 v -44.9 c 0,-3.2 2.6,-5.8 5.8,-5.8 h 13.5 c 3.2,0 5.8,2.6 5.8,5.8 v 51.4 c 0.1,4.3 -3.4,7.8 -7.7,7.8 z"
   class="st8"
   inkscape:connector-curvature="0"
   style="fill:none;stroke:#66b0f0;stroke-width:4;stroke-linecap:round;stroke-miterlimit:10" />
				<path
   id="path9327"
   d="m 2286,913.6 h 3.1 c 7.9,0 14.3,-6.4 14.3,-14.3 v -44.9 c 0,-3.2 -2.6,-5.8 -5.8,-5.8 H 2284 c -3.2,0 -5.8,2.6 -5.8,5.8 v 51.4 c 0,4.3 3.5,7.8 7.8,7.8 z"
   class="st6"
   inkscape:connector-curvature="0"
   style="fill:#ffffff" />
				<path
   id="path9329"
   d="m 2245.3,918.8 h -7.2 c -5.6,0 -10.1,-4.5 -10.1,-10.1 v -54.2 c 0,-3.2 2.6,-5.8 5.8,-5.8 h 13.5 c 3.2,0 5.8,2.6 5.8,5.8 V 911 c 0,4.3 -3.5,7.8 -7.8,7.8 z"
   class="st6"
   inkscape:connector-curvature="0"
   style="fill:#ffffff" />
				<path
   id="path9331"
   d="m 2270.5,920.8 h -6 c -6.3,0 -11.4,-5.1 -11.4,-11.4 v -55 c 0,-3.2 2.6,-5.8 5.8,-5.8 h 13.5 c 3.2,0 5.8,2.6 5.8,5.8 V 913 c 0,4.3 -3.5,7.8 -7.7,7.8 z"
   class="st6"
   inkscape:connector-curvature="0"
   style="fill:#ffffff" />
				<path
   id="path9333"
   d="m 2286,913.6 h 3.1 c 7.9,0 14.3,-6.4 14.3,-14.3 v -44.9 c 0,-3.2 -2.6,-5.8 -5.8,-5.8 H 2284 c -3.2,0 -5.8,2.6 -5.8,5.8 v 51.4 c 0,4.3 3.5,7.8 7.8,7.8 z"
   class="st8"
   inkscape:connector-curvature="0"
   style="fill:none;stroke:#66b0f0;stroke-width:4;stroke-linecap:round;stroke-miterlimit:10" />
				<path
   id="path9335"
   d="m 2245.3,918.8 h -7.2 c -5.6,0 -10.1,-4.5 -10.1,-10.1 v -54.2 c 0,-3.2 2.6,-5.8 5.8,-5.8 h 13.5 c 3.2,0 5.8,2.6 5.8,5.8 V 911 c 0,4.3 -3.5,7.8 -7.8,7.8 z"
   class="st8"
   inkscape:connector-curvature="0"
   style="fill:none;stroke:#66b0f0;stroke-width:4;stroke-linecap:round;stroke-miterlimit:10" />
				<path
   id="path9337"
   d="m 2270.5,920.8 h -6 c -6.3,0 -11.4,-5.1 -11.4,-11.4 v -55 c 0,-3.2 2.6,-5.8 5.8,-5.8 h 13.5 c 3.2,0 5.8,2.6 5.8,5.8 V 913 c 0,4.3 -3.5,7.8 -7.7,7.8 z"
   class="st8"
   inkscape:connector-curvature="0"
   style="fill:none;stroke:#66b0f0;stroke-width:4;stroke-linecap:round;stroke-miterlimit:10" />
			</g>
		</g>
		<g
   id="HEAD_5_">
			<g
   id="NECK_2_">
				<path
   id="path9342"
   d="m 2471.7,796.1 v 73 c 0,12.6 -21.5,22.9 -48,22.9 -26.5,0 -48,-10.3 -48,-22.9 v -73 z"
   class="st6"
   inkscape:connector-curvature="0"
   style="fill:#ffffff" />
				<path
   id="path9344"
   d="m 2471.7,796.1 c 0,55.1 -35.3,71.5 -69.2,68.6 -0.1,0 -0.2,0 -0.3,0 -15,-1.4 -26.4,-14.2 -26.4,-29.2 v -39.3 h 95.9 z"
   class="st2"
   inkscape:connector-curvature="0"
   style="fill:#66b0f0" />
			</g>
			<path
   d="m 2494,777.3 v 3.7 c 0,8.2 -6.6,14.8 -14.8,14.8 h -7.6 l 0.1,1.7 c 0,23.6 -19.1,42.7 -42.7,42.7 h -10.5 c -23.6,0 -42.7,-19.1 -42.7,-42.7 l 0.1,-1.7 h -7.6 c -8.2,0 -14.8,-6.6 -14.8,-14.8 v -3.7 c 0,-8.2 6.6,-14.8 14.8,-14.8 h 9.7 l 1.1,-18.1 c 0,-2.8 0.4,-5.5 1.2,-8 28.6,7.1 62.1,-11.3 71.1,-16.8 10,3.8 17.1,13.4 17.1,24.7 l 1.1,18.1 h 9.7 c 8.1,0.1 14.7,6.7 14.7,14.9 z"
   class="st6"
   id="HEAD_4_"
   inkscape:connector-curvature="0"
   style="fill:#ffffff" />
			<path
   d="m 2479.9,762.5 h -10.4 l -1.1,-18.1 c 0,-11.3 -7.1,-20.9 -17.1,-24.7 -9,5.4 -42.5,23.8 -71.1,16.8 -0.8,2.5 -1.2,5.2 -1.2,8 l -1.1,18.1 h -6.5 c 0,0 -13.3,-64.4 -0.2,-76.2 9.7,-8.7 98.5,10.3 108.3,23.8 5.5,7.7 0.4,52.3 0.4,52.3 z"
   class="st9"
   id="HAIR_2_"
   inkscape:connector-curvature="0"
   style="fill:#e57281" />
			<g
   id="FACE">
				<g
   id="g9351">
					<path
   id="path9349"
   d="m 2454.9,758.6 c -0.3,0 -0.7,-0.1 -1,-0.4 v 0 c -0.1,-0.1 -6.6,-5.4 -17,-5.4 -0.8,0 -1.5,-0.7 -1.5,-1.5 0,-0.8 0.7,-1.5 1.5,-1.5 11.5,0 18.6,5.8 18.9,6.1 0.6,0.5 0.7,1.5 0.2,2.1 -0.2,0.4 -0.7,0.6 -1.1,0.6 z"
   class="st2"
   inkscape:connector-curvature="0"
   style="fill:#66b0f0" />
				</g>
				<g
   id="g9355">
					<path
   id="path9353"
   d="m 2416.9,789.6 c -0.2,0 -0.4,0 -0.5,-0.1 -0.8,-0.3 -1.2,-1.2 -0.9,-1.9 2.8,-7.4 2.1,-16.7 -1.8,-24.9 -2.3,-5 -5.6,-8.6 -8.5,-9.6 -6.4,-2.2 -15.4,0.9 -15.5,0.9 -0.8,0.3 -1.6,-0.1 -1.9,-0.9 -0.3,-0.8 0.1,-1.6 0.9,-1.9 0.4,-0.1 10,-3.4 17.4,-0.9 3.7,1.3 7.5,5.4 10.2,11.2 4.2,8.9 4.9,19.1 1.9,27.3 -0.1,0.4 -0.7,0.8 -1.3,0.8 z"
   class="st2"
   inkscape:connector-curvature="0"
   style="fill:#66b0f0" />
				</g>
				<g
   id="g9359">
					<path
   id="path9357"
   d="m 2436.6,805.5 c 0.1,0.8 -0.6,1.5 -1.4,1.6 h -0.1 c -0.8,0 -1.4,-0.6 -1.5,-1.4 -0.1,-1 -0.3,-2 -0.6,-2.9 -4.3,2.1 -8.2,2.8 -11.4,2.8 -6.3,0 -10.1,-2.6 -10.3,-2.8 -0.7,-0.5 -0.8,-1.4 -0.4,-2.1 0.5,-0.7 1.4,-0.8 2.1,-0.4 0.2,0.1 3.4,2.3 8.6,2.3 2.8,0 6.2,-0.6 10.1,-2.5 -0.6,-1 -1.2,-1.6 -1.2,-1.6 -0.6,-0.6 -0.5,-1.6 0.1,-2.1 0.6,-0.5 1.6,-0.5 2.1,0.1 0.2,0.3 3.6,4.1 3.9,9 z"
   class="st2"
   inkscape:connector-curvature="0"
   style="fill:#66b0f0" />
				</g>
				
					<ellipse
   id="ellipse9361"
   ry="5"
   rx="2.5"
   cy="771.90002"
   cx="2441.6001"
   class="st2"
   transform="matrix(0.9981,-0.0622123,0.0622123,0.9981,-43.2943,153.3953)"
   style="fill:#66b0f0" />
				
					<ellipse
   id="ellipse9363"
   ry="4.5999999"
   rx="2.3"
   cy="771.90002"
   cx="2400.8"
   class="st2"
   transform="matrix(0.9981,-0.0622123,0.0622123,0.9981,-43.3734,150.8559)"
   style="fill:#66b0f0" />
				<path
   id="path9365"
   d="m 2373.2,782.1 c -0.8,0 -1.5,-0.7 -1.5,-1.5 0,-4.4 -3.6,-7.9 -7.9,-7.9 -0.8,0 -1.5,-0.7 -1.5,-1.5 0,-0.8 0.7,-1.5 1.5,-1.5 6,0 10.9,4.9 10.9,10.9 0,0.9 -0.7,1.5 -1.5,1.5 z"
   class="st2"
   inkscape:connector-curvature="0"
   style="fill:#66b0f0" />
				<path
   id="path9367"
   d="m 2473.8,782.1 c -0.8,0 -1.5,-0.7 -1.5,-1.5 0,-6 4.9,-10.9 10.9,-10.9 0.8,0 1.5,0.7 1.5,1.5 0,0.8 -0.7,1.5 -1.5,1.5 -4.4,0 -7.9,3.6 -7.9,7.9 0,0.9 -0.6,1.5 -1.5,1.5 z"
   class="st2"
   inkscape:connector-curvature="0"
   style="fill:#66b0f0" />
			</g>
		</g>
	</g>
</g><g
     id="TABLE">
	<path
   id="path9374"
   d="M 4284,2996 3855.7,1579.8 c -8.5,-28.2 -34.6,-47.5 -64.1,-47.5 H 1192.1 c -29.8,0 -56,19.7 -64.3,48.4 L 719.1,2996"
   class="st4"
   inkscape:connector-curvature="0"
   style="fill:none;stroke:#66b0f0;stroke-width:6;stroke-miterlimit:10" />
	<line
   id="line9376"
   y2="1053.7"
   x2="3041.2"
   y1="1053.7"
   x1="1904.2"
   class="st4"
   style="fill:none;stroke:#66b0f0;stroke-width:6;stroke-miterlimit:10" />
</g><g
     id="BOY">
	<path
   d="m 2298.8,1268.9 h 268.6 v 230.7 h -268.6 c 0,0 0,-239.4 0,-230.7 z"
   class="st5"
   id="PAPER_1_"
   inkscape:connector-curvature="0"
   style="fill:#ffcf2d" />
	<g
   id="BOY_1_">
		<g
   id="LEGS_1_">
			<g
   id="g9384">
				<polygon
   id="polygon9380"
   points="3303.2,2340.8 3178.3,2029.8 3379.4,2029.8 "
   class="st10"
   style="fill:#9a3b82" />
				<path
   id="path9382"
   d="m 2960.5,1614.7 v 0 c 26.8,-50.7 79.5,-82.4 136.8,-82.4 H 3252 l 105.1,82.4 z"
   class="st10"
   inkscape:connector-curvature="0"
   style="fill:#9a3b82" />
			</g>
			<g
   id="g9420">
				<g
   id="g9402">
					<path
   id="path9386"
   d="m 3547,1978.8 h -389.7 l 146.7,356.1 c -10.2,-16.6 -71.3,0.7 -136,40.4 -63.9,39.2 -107.1,86.4 -98.3,103.6 l -316.2,-550.2 c -82,-138.8 18,-314 179.2,-314 H 3806 l 1.9,6 c 57,177 -75,358.1 -260.9,358.1 z"
   class="st11"
   inkscape:connector-curvature="0"
   style="fill:#3fb1b5" />
					<path
   id="path9388"
   d="m 3821.1,1716.8 c -1.4,32.5 -8.6,63.9 -20.8,93 l -458,-195 h 454.6 l 10.6,31 c 7.4,18.6 11.5,44.7 13.6,71 z"
   class="st12"
   inkscape:connector-curvature="0"
   style="fill:#e6e6e6" />
					<path
   id="path9390"
   d="m 3304.1,2334.9 c 10.2,16.6 -34.4,61.9 -99,101.6 -64.7,39.7 -124.8,59.6 -135,43 -10.2,-16.6 33.3,-63.5 98,-103.2 64.6,-39.7 125.7,-58 136,-41.4 z"
   class="st2"
   inkscape:connector-curvature="0"
   style="fill:#66b0f0" />
					<g
   id="g9400">
						<path
   id="path9392"
   d="m 3160.6,2376.5 -284.4,-502.8 c -22.3,-39.8 6.4,-89 52.1,-89 h 553.9 c 74.6,0 130.3,-68.7 114.9,-141.7"
   class="st13"
   inkscape:connector-curvature="0"
   style="fill:none;stroke:#ffffff;stroke-width:6;stroke-linecap:round;stroke-miterlimit:10" />
						<path
   id="path9394"
   d="m 3066.8,2480.6 c -10.2,-16.6 33.9,-69.4 101.3,-108.7 75.7,-44.1 124.7,-57.2 139.3,-33.8"
   class="st13"
   inkscape:connector-curvature="0"
   style="fill:none;stroke:#ffffff;stroke-width:6;stroke-linecap:round;stroke-miterlimit:10" />
						<line
   id="line9396"
   y2="1897.3"
   x2="3123.8"
   y1="2340.3"
   x1="3309.6001"
   class="st13"
   style="fill:none;stroke:#ffffff;stroke-width:6;stroke-linecap:round;stroke-miterlimit:10" />
						<line
   id="line9398"
   y2="1611.4"
   x2="3375.1001"
   y1="1611.4"
   x1="2921.8"
   class="st14"
   style="fill:none;stroke:#ffffff;stroke-width:6;stroke-miterlimit:10" />
					</g>
				</g>
				<g
   id="g9408">
					<path
   id="path9404"
   d="m 3178.2,2502.4 -27,-36.8 -37.2,-50.6 c 15.2,-12.8 33.5,-26.1 54,-38.7 40.8,-25 80.1,-41.6 106.2,-46.2 l 18.1,36.1 22.6,45 c -16,56.9 -136.7,91.2 -136.7,91.2 z"
   class="st9"
   inkscape:connector-curvature="0"
   style="fill:#e57281" />
					<path
   id="path9406"
   d="m 3292.4,2366.2 c -16.8,20.5 -48.4,46.4 -87.3,70.3 -18.7,11.5 -37,21.3 -53.8,29.1 l -37.2,-50.6 c 15.2,-12.8 33.5,-26.1 54,-38.7 40.8,-25 80.1,-41.6 106.2,-46.2 z"
   class="st10"
   inkscape:connector-curvature="0"
   style="fill:#9a3b82" />
				</g>
				<g
   id="g9418">
					<path
   id="path9410"
   d="m 3438.5,2609.5 -274.4,197.1 c -23.3,16.2 -59.5,29.7 -54.7,-28.9 6.7,-80.8 24.6,-201 68.8,-275.4 0,0 0,0 0,0 1.9,-0.5 120.7,-34.8 136.7,-91.2 L 3440,2500 c 36,28 35.2,82.6 -1.5,109.5 z"
   class="st15"
   inkscape:connector-curvature="0"
   style="fill:#ffffff;stroke:#ffcf2d;stroke-width:6;stroke-miterlimit:10" />
					<path
   id="path9412"
   d="m 3165.5,2528.4 c 21.8,4.1 144.2,-39.3 163.2,-106.2"
   class="st16"
   inkscape:connector-curvature="0"
   style="fill:none;stroke:#ffcf2d;stroke-width:6;stroke-linecap:round;stroke-miterlimit:10" />
					<path
   id="path9414"
   d="m 3136,2786.3 c 0,0 179.1,-248.8 306.5,-234.8 138.7,15.1 -419.9,379.9 -306.5,234.8 z"
   class="st5"
   inkscape:connector-curvature="0"
   style="fill:#ffcf2d" />
					<path
   id="path9416"
   d="m 3130.9,2820.2 c -13.9,0.9 -28.6,-15.3 -8.3,-41.3 0,0 186.4,-258 319.1,-243.4 20.5,2.2 27.4,18.9 22.6,33.3"
   class="st16"
   inkscape:connector-curvature="0"
   style="fill:none;stroke:#ffcf2d;stroke-width:6;stroke-linecap:round;stroke-miterlimit:10" />
				</g>
			</g>
		</g>
		<g
   id="T-SHIRT">
			<path
   id="path9423"
   d="m 3822.1,1737.1 c -63.4,-15 -221.2,-54.5 -401.2,-96.1 -84.6,-19.5 -155.4,-77.1 -191.9,-155.9 l -163.9,-354.6 99.2,-157.2 c 30.5,-48.4 82.5,-79.2 139.6,-82.7 l 97.6,-6 c 98.4,-6 177.4,55.4 207.4,149.3 l 198.5,580.8 c 21.8,54.4 14.7,122.4 14.7,122.4 z"
   class="st17"
   inkscape:connector-curvature="0"
   style="fill:#ffffff;stroke:#fe5244;stroke-width:6;stroke-miterlimit:10" />
			<path
   id="path9425"
   d="m 3151.4,1150.4 c 0,0 52.2,82 171.1,100.1"
   class="st18"
   inkscape:connector-curvature="0"
   style="fill:none;stroke:#fe5244;stroke-width:6;stroke-miterlimit:10" />
			<g
   id="g9477">
				<path
   id="path9427"
   d="m 3221.8,1001.2 v 0 c -5.4,-5.8 -14.9,-4.2 -18.2,2.9 v 0 c -3.7,8 3,16.9 11.7,15.6 v 0 c 8.9,-1.3 12.6,-12 6.5,-18.5 z"
   class="st19"
   inkscape:connector-curvature="0"
   style="fill:#ffcf2d;stroke:#fe5244;stroke-width:6;stroke-linejoin:round;stroke-miterlimit:10" />
				<path
   id="path9429"
   d="m 3470.9,1172.1 v 0 c -5.4,-5.8 -14.9,-4.2 -18.2,2.9 v 0 c -3.7,8 3,16.9 11.7,15.6 v 0 c 8.9,-1.3 12.6,-12 6.5,-18.5 z"
   class="st19"
   inkscape:connector-curvature="0"
   style="fill:#ffcf2d;stroke:#fe5244;stroke-width:6;stroke-linejoin:round;stroke-miterlimit:10" />
				<path
   id="path9431"
   d="m 3549.8,1242.1 v 0 c -5.4,-5.8 -14.9,-4.2 -18.2,2.9 v 0 c -3.7,8 3,16.9 11.7,15.6 v 0 c 8.8,-1.2 12.5,-11.9 6.5,-18.5 z"
   class="st19"
   inkscape:connector-curvature="0"
   style="fill:#ffcf2d;stroke:#fe5244;stroke-width:6;stroke-linejoin:round;stroke-miterlimit:10" />
				<path
   id="path9433"
   d="m 3701.1,1638.2 v 0 c -5.4,-5.8 -14.9,-4.2 -18.2,2.9 v 0 c -3.7,8 3,16.9 11.7,15.6 v 0 c 8.8,-1.3 12.5,-11.9 6.5,-18.5 z"
   class="st19"
   inkscape:connector-curvature="0"
   style="fill:#ffcf2d;stroke:#fe5244;stroke-width:6;stroke-linejoin:round;stroke-miterlimit:10" />
				<path
   id="path9435"
   d="m 3616.4,1448.9 v 0 c -5.4,-5.8 -14.9,-4.2 -18.2,2.9 v 0 c -3.7,8 3,16.9 11.7,15.6 v 0 c 8.9,-1.3 12.6,-12 6.5,-18.5 z"
   class="st19"
   inkscape:connector-curvature="0"
   style="fill:#ffcf2d;stroke:#fe5244;stroke-width:6;stroke-linejoin:round;stroke-miterlimit:10" />
				<path
   id="path9437"
   d="m 3651.5,1312.7 v 0 c -7.8,1 -12.1,9.7 -8.2,16.5 v 0 c 4.4,7.7 15.5,7.4 19.5,-0.5 v 0 c 4.1,-8 -2.5,-17.2 -11.3,-16 z"
   class="st19"
   inkscape:connector-curvature="0"
   style="fill:#ffcf2d;stroke:#fe5244;stroke-width:6;stroke-linejoin:round;stroke-miterlimit:10" />
				<path
   id="path9439"
   d="m 3715.4,1514.7 v 0 c -7.8,1 -12.1,9.7 -8.2,16.5 v 0 c 4.4,7.7 15.5,7.4 19.5,-0.5 v 0 c 4.1,-8 -2.4,-17.2 -11.3,-16 z"
   class="st19"
   inkscape:connector-curvature="0"
   style="fill:#ffcf2d;stroke:#fe5244;stroke-width:6;stroke-linejoin:round;stroke-miterlimit:10" />
				<path
   id="path9441"
   d="m 3450.4,1296.8 v 0 c -5.4,-5.8 -14.9,-4.2 -18.2,2.9 v 0 c -3.7,8 3,16.9 11.7,15.6 v 0 c 8.8,-1.3 12.5,-11.9 6.5,-18.5 z"
   class="st19"
   inkscape:connector-curvature="0"
   style="fill:#ffcf2d;stroke:#fe5244;stroke-width:6;stroke-linejoin:round;stroke-miterlimit:10" />
				<path
   id="path9443"
   d="m 3395.3,1410.1 v 0 c -5.4,-5.8 -14.9,-4.2 -18.2,2.9 v 0 c -3.7,8 3,16.9 11.7,15.6 v 0 c 8.9,-1.3 12.6,-12 6.5,-18.5 z"
   class="st19"
   inkscape:connector-curvature="0"
   style="fill:#ffcf2d;stroke:#fe5244;stroke-width:6;stroke-linejoin:round;stroke-miterlimit:10" />
				<path
   id="path9445"
   d="m 3296.7,1370.5 v 0 c 5.8,-5.4 4.2,-14.9 -2.9,-18.2 v 0 c -8,-3.7 -16.9,3 -15.6,11.7 v 0 c 1.3,8.8 11.9,12.5 18.5,6.5 z"
   class="st19"
   inkscape:connector-curvature="0"
   style="fill:#ffcf2d;stroke:#fe5244;stroke-width:6;stroke-linejoin:round;stroke-miterlimit:10" />
				<path
   id="path9447"
   d="m 3384.2,1565.5 v 0 c 5.8,-5.4 4.2,-14.9 -2.9,-18.2 v 0 c -8,-3.7 -16.9,3 -15.6,11.7 v 0 c 1.3,8.9 12,12.6 18.5,6.5 z"
   class="st19"
   inkscape:connector-curvature="0"
   style="fill:#ffcf2d;stroke:#fe5244;stroke-width:6;stroke-linejoin:round;stroke-miterlimit:10" />
				<path
   id="path9449"
   d="m 3531.5,1398.2 v 0 c 5.8,-5.4 4.2,-14.9 -2.9,-18.2 v 0 c -8,-3.7 -16.9,3 -15.6,11.7 v 0 c 1.3,8.8 12,12.6 18.5,6.5 z"
   class="st19"
   inkscape:connector-curvature="0"
   style="fill:#ffcf2d;stroke:#fe5244;stroke-width:6;stroke-linejoin:round;stroke-miterlimit:10" />
				<path
   id="path9451"
   d="m 3581.8,1607.6 v 0 c 5.8,-5.4 4.2,-14.9 -2.9,-18.2 v 0 c -8,-3.7 -16.9,3 -15.6,11.7 v 0 c 1.2,8.9 11.9,12.6 18.5,6.5 z"
   class="st19"
   inkscape:connector-curvature="0"
   style="fill:#ffcf2d;stroke:#fe5244;stroke-width:6;stroke-linejoin:round;stroke-miterlimit:10" />
				<path
   id="path9453"
   d="m 3280.2,1183.5 v 0 c -5.4,-5.8 -14.9,-4.2 -18.2,2.9 v 0 c -3.7,8 3,16.9 11.7,15.6 v 0 c 8.9,-1.3 12.6,-12 6.5,-18.5 z"
   class="st19"
   inkscape:connector-curvature="0"
   style="fill:#ffcf2d;stroke:#fe5244;stroke-width:6;stroke-linejoin:round;stroke-miterlimit:10" />
				<path
   id="path9455"
   d="m 3298.1,924.1 v 0 c -5.4,-5.8 -14.9,-4.2 -18.2,2.9 v 0 c -3.7,8 3,16.9 11.7,15.6 v 0 c 8.9,-1.3 12.6,-12 6.5,-18.5 z"
   class="st19"
   inkscape:connector-curvature="0"
   style="fill:#ffcf2d;stroke:#fe5244;stroke-width:6;stroke-linejoin:round;stroke-miterlimit:10" />
				<path
   id="path9457"
   d="m 3470.9,924.1 v 0 c -5.4,-5.8 -14.9,-4.2 -18.2,2.9 v 0 c -3.7,8 3,16.9 11.7,15.6 v 0 c 8.9,-1.3 12.6,-12 6.5,-18.5 z"
   class="st19"
   inkscape:connector-curvature="0"
   style="fill:#ffcf2d;stroke:#fe5244;stroke-width:6;stroke-linejoin:round;stroke-miterlimit:10" />
				<path
   id="path9459"
   d="m 3471.2,1036.1 v 0 c -7.3,2.9 -9.4,12.3 -3.9,18 v 0 c 6.1,6.3 16.8,3.4 18.8,-5.2 v 0 c 2,-8.7 -6.6,-16.1 -14.9,-12.8 z"
   class="st19"
   inkscape:connector-curvature="0"
   style="fill:#ffcf2d;stroke:#fe5244;stroke-width:6;stroke-linejoin:round;stroke-miterlimit:10" />
				<path
   id="path9461"
   d="m 3373,972.3 v 0 c -7.6,2.2 -10.5,11.3 -5.7,17.5 v 0 c 5.5,6.9 16.4,5 19.2,-3.3 v 0 c 2.9,-8.5 -5,-16.7 -13.5,-14.2 z"
   class="st19"
   inkscape:connector-curvature="0"
   style="fill:#ffcf2d;stroke:#fe5244;stroke-width:6;stroke-linejoin:round;stroke-miterlimit:10" />
				<path
   id="path9463"
   d="m 3358.5,1249.3 v 0 c -7.8,0.9 -12.2,9.5 -8.4,16.4 v 0 c 4.3,7.7 15.4,7.6 19.5,-0.2 v 0 c 4.2,-7.9 -2.2,-17.2 -11.1,-16.2 z"
   class="st19"
   inkscape:connector-curvature="0"
   style="fill:#ffcf2d;stroke:#fe5244;stroke-width:6;stroke-linejoin:round;stroke-miterlimit:10" />
				<path
   id="path9465"
   d="m 3272.8,1457.6 v 0 c -7.8,0.9 -12.2,9.5 -8.4,16.4 v 0 c 4.3,7.7 15.4,7.6 19.5,-0.2 v 0 c 4.2,-7.9 -2.2,-17.2 -11.1,-16.2 z"
   class="st19"
   inkscape:connector-curvature="0"
   style="fill:#ffcf2d;stroke:#fe5244;stroke-width:6;stroke-linejoin:round;stroke-miterlimit:10" />
				<path
   id="path9467"
   d="m 3301.6,1054.9 v 0 c -7.6,2.2 -10.5,11.3 -5.7,17.5 v 0 c 5.5,6.9 16.4,5 19.2,-3.3 v 0 c 2.9,-8.4 -4.9,-16.6 -13.5,-14.2 z"
   class="st19"
   inkscape:connector-curvature="0"
   style="fill:#ffcf2d;stroke:#fe5244;stroke-width:6;stroke-linejoin:round;stroke-miterlimit:10" />
				<path
   id="path9469"
   d="m 3384.4,1110.9 v 0 c -7.6,2.2 -10.5,11.3 -5.7,17.5 v 0 c 5.5,6.9 16.4,5 19.2,-3.3 v 0 c 2.9,-8.5 -4.9,-16.7 -13.5,-14.2 z"
   class="st19"
   inkscape:connector-curvature="0"
   style="fill:#ffcf2d;stroke:#fe5244;stroke-width:6;stroke-linejoin:round;stroke-miterlimit:10" />
				<path
   id="path9471"
   d="m 3205.1,1108.5 v 0 c 5,-6.1 2.3,-15.3 -5.3,-17.6 v 0 c -8.4,-2.6 -16.4,5.2 -13.9,13.6 v 0 c 2.5,8.6 13.5,10.9 19.2,4 z"
   class="st19"
   inkscape:connector-curvature="0"
   style="fill:#ffcf2d;stroke:#fe5244;stroke-width:6;stroke-linejoin:round;stroke-miterlimit:10" />
				<path
   id="path9473"
   d="m 3584.2,1108.8 v 0 c 5,-6.1 2.3,-15.3 -5.3,-17.6 v 0 c -8.4,-2.6 -16.4,5.2 -13.9,13.6 v 0 c 2.4,8.6 13.5,10.9 19.2,4 z"
   class="st19"
   inkscape:connector-curvature="0"
   style="fill:#ffcf2d;stroke:#fe5244;stroke-width:6;stroke-linejoin:round;stroke-miterlimit:10" />
				<path
   id="path9475"
   d="m 3488,1514.2 v 0 c 5,-6.1 2.3,-15.3 -5.3,-17.6 v 0 c -8.4,-2.6 -16.4,5.2 -13.9,13.6 v 0 c 2.4,8.5 13.5,10.8 19.2,4 z"
   class="st19"
   inkscape:connector-curvature="0"
   style="fill:#ffcf2d;stroke:#fe5244;stroke-width:6;stroke-linejoin:round;stroke-miterlimit:10" />
			</g>
		</g>
		<g
   id="HEAD_2_">
			<g
   id="NECK_1_">
				<path
   id="path9480"
   d="m 3408.2,881.3 c -2.2,0.1 -4.4,0.2 -6.7,0.3 l -97.6,6 c -24.9,1.5 -48.7,8.2 -70.3,19.3 l -30,-89.8 133.7,-98 z"
   class="st9"
   inkscape:connector-curvature="0"
   style="fill:#e57281" />
				<path
   id="path9482"
   d="m 3233.2,905.5 v 0 c 27.8,-12.6 50,-35 62.6,-62.8 l 48.6,-107.5 -7.1,-16.2 -133.7,98 z"
   class="st10"
   inkscape:connector-curvature="0"
   style="fill:#9a3b82" />
			</g>
			<g
   id="HEAD_3_">
				<path
   id="path9485"
   d="m 3345.9,728.1 c 0,9.3 -3.8,17.7 -9.9,23.8 -6.1,6.1 -14.5,9.9 -23.8,9.9 h -29.4 c -11.6,45.1 -56.5,76 -104.8,67.5 l -22.1,-3.9 c -24.2,-4.3 -40.7,-26.9 -37.3,-51.2 l 25.9,-129.7 c 4.5,-27.7 33,-44.6 59.5,-35.1 l 42.9,17.2 c 23.2,8 38.8,29.8 38.8,54.3 v 12.5 l 26.5,1 c 18.6,0 33.7,15.1 33.7,33.7 z"
   class="st9"
   inkscape:connector-curvature="0"
   style="fill:#e57281" />
				<g
   id="g9493">
					<path
   id="path9487"
   d="m 3296.1,734.6 c 0,-12.9 10.4,-23.3 23.3,-23.3"
   class="st20"
   inkscape:connector-curvature="0"
   style="fill:none;stroke:#9a3b82;stroke-width:5;stroke-linecap:round;stroke-miterlimit:10" />
					<path
   id="path9489"
   d="m 3158.9,671.8 c 0,0 21,0 36,20.1"
   class="st20"
   inkscape:connector-curvature="0"
   style="fill:none;stroke:#9a3b82;stroke-width:5;stroke-linecap:round;stroke-miterlimit:10" />
					
						<ellipse
   id="ellipse9491"
   ry="5"
   rx="10.7"
   cy="708.40002"
   cx="3168"
   class="st10"
   transform="matrix(0.1788,-0.9839,0.9839,0.1788,1904.504,3698.6665)"
   style="fill:#9a3b82" />
				</g>
			</g>
			<g
   id="HAIR_1_">
				<path
   id="path9496"
   d="m 3312.2,694.4 c 18.6,0 33.7,15.1 33.7,33.7 0,0.1 0,0.3 0,0.5 15,-23.1 51.8,-81.9 51.8,-101.8 0,-26.7 -33.3,-53.4 -67.8,-41.2 2.3,-1.7 4.7,-3.5 7.2,-5.4 13.3,-10.4 20.3,-18.2 21.4,-23.8 0.4,-2 0.1,-3.8 -0.9,-5.2 -4,-5.7 -8.4,-8.2 -13.1,-7.4 -6.9,1.1 -14,9.6 -21.1,25.2 -3.2,7.1 -5.7,14.1 -7.1,18.4 -2.8,-16.7 -16.3,-72 -74.3,-63.5 -20,2.9 -29.4,11.2 -32,20.3 -16.6,-13 -38.8,-23.2 -57.2,-13.5 -31.8,16.7 -27.9,44.1 -9.5,63.5 -17.4,-0.3 -29.6,4.8 -29.6,19.5 0,13.5 13.9,20 33,22.6 19.1,2.6 43.6,1.2 64.8,-1.2 15.1,-1.7 28.7,-3.8 37.4,-5.3 -5.8,11.9 -8.1,22.1 -7.6,30.7 0.9,17.8 13.8,28.3 32,32 3.9,0.8 8.1,1.3 12.4,1.5 z m 32.9,-146.6 c 0.3,-0.1 0.6,-0.1 1,-0.1 2.8,0 5.5,2 8.2,5.8 0.2,0.4 0.5,1 0.3,2.1 -1.6,8.1 -22.1,23.5 -34,31.6 4.7,-13.8 14.6,-37.7 24.5,-39.4 z"
   class="st5"
   inkscape:connector-curvature="0"
   style="fill:#ffcf2d" />
				<g
   id="g9500">
					<path
   id="path9498"
   d="m 3232.4,577.4 c -6.9,0 -13.9,-3.7 -19,-10.2 -5.7,-7.2 -7.6,-16.1 -5.2,-23.8 0.3,-1 1.3,-1.6 2.3,-1.4 0.4,0 0.8,0.1 1.1,0.4 15.1,10.8 27.2,26.2 25.4,32.3 -0.4,1.6 -1.7,2.6 -3.4,2.7 -0.4,0 -0.8,0 -1.2,0 z m -21,-30.2 c -0.9,5.8 0.9,12.2 5.1,17.5 4.5,5.7 10.7,9 16.7,8.6 0.2,-2.6 -6.5,-14.5 -21.8,-26.1 z"
   class="st6"
   inkscape:connector-curvature="0"
   style="fill:#ffffff" />
				</g>
			</g>
		</g>
		<g
   id="HANDS">
			<g
   id="LEFT_1_">
				<path
   id="path9504"
   d="m 3035,1460.4 h -640 c -15.8,0 -25.3,-17.4 -16.9,-30.7 l 85.2,-133.8 c 11.1,-17.4 30.2,-27.9 50.8,-27.9 h 433.2 z"
   class="st9"
   inkscape:connector-curvature="0"
   style="fill:#e57281" />
				<path
   id="path9506"
   d="m 2528.2,1268.1 51,-84 c 3,-5 8.5,-8.1 14.3,-8.1 v 0 c 13.1,0 21.1,14.3 14.3,25.5 l -40.5,66.6 z"
   class="st21"
   inkscape:connector-curvature="0"
   style="fill:#fe5244" />
				<path
   id="path9508"
   d="m 3035,1460.4 h -143.9 c -0.3,-0.3 -0.7,-0.7 -1,-1 -35,-36 -49.9,-90.6 -30.2,-143.2 l 20.5,-48.2 h 66.9 z"
   class="st10"
   inkscape:connector-curvature="0"
   style="fill:#9a3b82" />
				<path
   id="path9510"
   d="m 2485.4,1370.6 h -80.2 c -5.4,0 -10.4,2.9 -13.1,7.6 l -8.5,14.8 c -5.7,10 1.5,22.5 13.1,22.5 h 64.5 c 11.2,0 21.6,-5.8 27.5,-15.4 l 6.9,-11.3 c 4.8,-8 -0.9,-18.2 -10.2,-18.2 z"
   class="st9"
   inkscape:connector-curvature="0"
   style="fill:#e57281" />
				<path
   id="path9512"
   d="m 2464.7,1415.5 h -80.2 c -5.4,0 -10.4,2.9 -13.1,7.6 l -8.5,14.8 c -5.7,10 1.5,22.5 13.1,22.5 h 64.5 c 11.2,0 21.6,-5.8 27.5,-15.4 l 6.9,-11.3 c 4.9,-8 -0.9,-18.2 -10.2,-18.2 z"
   class="st9"
   inkscape:connector-curvature="0"
   style="fill:#e57281" />
				<path
   id="path9514"
   d="m 2508.3,1325.1 h -80.2 c -5.4,0 -10.4,2.9 -13.1,7.6 l -8.5,14.8 c -5.7,10 1.5,22.5 13.1,22.5 h 64.5 c 11.2,0 21.6,-5.8 27.5,-15.4 l 6.9,-11.3 c 4.9,-8 -0.9,-18.2 -10.2,-18.2 z"
   class="st9"
   inkscape:connector-curvature="0"
   style="fill:#e57281" />
				<path
   id="path9516"
   d="m 2485.4,1370.6 h -80.2 c -5.4,0 -10.4,2.9 -13.1,7.6 l -8.5,14.8 c -5.7,10 1.5,22.5 13.1,22.5 h 64.5 c 11.2,0 21.6,-5.8 27.5,-15.4 l 6.9,-11.3 c 4.8,-8 -0.9,-18.2 -10.2,-18.2 z"
   class="st20"
   inkscape:connector-curvature="0"
   style="fill:none;stroke:#9a3b82;stroke-width:5;stroke-linecap:round;stroke-miterlimit:10" />
				<path
   id="path9518"
   d="m 2464.7,1415.5 h -80.2 c -5.4,0 -10.4,2.9 -13.1,7.6 l -8.5,14.8 c -5.7,10 1.5,22.5 13.1,22.5 h 64.5 c 11.2,0 21.6,-5.8 27.5,-15.4 l 6.9,-11.3 c 4.9,-8 -0.9,-18.2 -10.2,-18.2 z"
   class="st20"
   inkscape:connector-curvature="0"
   style="fill:none;stroke:#9a3b82;stroke-width:5;stroke-linecap:round;stroke-miterlimit:10" />
				<path
   id="path9520"
   d="m 2508.3,1325.1 h -80.2 c -5.4,0 -10.4,2.9 -13.1,7.6 l -8.5,14.8 c -5.7,10 1.5,22.5 13.1,22.5 h 64.5 c 11.2,0 21.6,-5.8 27.5,-15.4 l 6.9,-11.3 c 4.9,-8 -0.9,-18.2 -10.2,-18.2 z"
   class="st20"
   inkscape:connector-curvature="0"
   style="fill:none;stroke:#9a3b82;stroke-width:5;stroke-linecap:round;stroke-miterlimit:10" />
				<path
   id="path9522"
   d="m 2624.4,1392 c -24.1,0 -47.3,-8.7 -65.5,-24.6 l -30.4,-26.6 h -28 l -7.2,7.7 c -12.9,13.8 -28.8,21.7 -47.7,21.7 h -13.4 c -7,0 -11.3,-7.8 -7.5,-13.7 l 33.7,-52.8 h 166.1 v 88.3 z"
   class="st9"
   inkscape:connector-curvature="0"
   style="fill:#e57281" />
				<path
   id="path9524"
   d="m 2458.4,1303.7 -33.7,52.8 c -3.8,5.9 0.5,13.7 7.5,13.7 h 13.4 c 18.9,0 34.8,-7.8 47.7,-21.7 l 7.2,-7.7 h 28 l 30.4,26.6 c 18.1,15.8 41.4,24.6 65.5,24.6"
   class="st20"
   inkscape:connector-curvature="0"
   style="fill:none;stroke:#9a3b82;stroke-width:5;stroke-linecap:round;stroke-miterlimit:10" />
			</g>
			<g
   id="RIGHT_1_">
				<path
   id="path9527"
   d="M 3299.6,1273.4 3146.9,1444 c -32.1,35.9 -78,56.4 -126.2,56.4 v 0 c -95.2,0 -161.1,-95 -127.7,-184.2 L 3074.4,890 3013.1,855.7 c -8.7,-6.8 -12.9,-17.9 -11,-28.7 l 10.4,-70.1 c 3.2,-15.6 19.1,-27.8 34.6,-31.4 l 71.8,-16.2 c 6.1,-1.4 11.7,3.8 10.7,9.9 l -10.4,54.1 c -4.1,26.4 13.7,49.2 40.1,53.7 v 0 c 21.6,3.7 36.8,25.4 34.8,47.2 l -48.9,305 c -0.1,0.2 50,78.3 154.4,94.2 z"
   class="st9"
   inkscape:connector-curvature="0"
   style="fill:#e57281" />
				<line
   id="line9529"
   y2="1329.8"
   x2="3123.5"
   y1="946.70001"
   x1="3182.5"
   class="st20"
   style="fill:none;stroke:#9a3b82;stroke-width:5;stroke-linecap:round;stroke-miterlimit:10" />
				<path
   id="path9531"
   d="m 3060.2,762 -0.8,24.8 c -0.3,10.2 5.8,19.2 14.6,21.7 l 91.9,18.6"
   class="st20"
   inkscape:connector-curvature="0"
   style="fill:none;stroke:#9a3b82;stroke-width:5;stroke-linecap:round;stroke-miterlimit:10" />
				<path
   id="path9533"
   d="m 3228.4,835.1 -73.5,-9.8 c -24.2,-4.3 -40.7,-26.9 -37.3,-51.2 l 9.5,-54.3 c 0.9,-5.1 -3.7,-9.4 -8.7,-8.2 l -75,17.5"
   class="st20"
   inkscape:connector-curvature="0"
   style="fill:none;stroke:#9a3b82;stroke-width:5;stroke-linecap:round;stroke-miterlimit:10" />
				<line
   id="line9535"
   y2="1176.8"
   x2="3386.6001"
   y1="1398"
   x1="3187.8"
   class="st18"
   style="fill:none;stroke:#fe5244;stroke-width:6;stroke-miterlimit:10" />
				<line
   id="line9537"
   y2="890.09998"
   x2="3111.6001"
   y1="890.09998"
   x1="3076.5"
   class="st20"
   style="fill:none;stroke:#9a3b82;stroke-width:5;stroke-linecap:round;stroke-miterlimit:10" />
				<path
   id="path9539"
   d="m 3060.3,768.6 v 8 c 0,9.5 6.9,17.3 15.4,17.3 h 11 c 4.8,0 8.6,-4.3 8.6,-9.7 L 3096,732 c 0.1,-8.1 -8.5,-13.1 -15.5,-11.4"
   class="st20"
   inkscape:connector-curvature="0"
   style="fill:none;stroke:#9a3b82;stroke-width:5;stroke-linecap:round;stroke-miterlimit:10" />
				<path
   id="path9541"
   d="m 3096,768.6 v 8 c 0,9.5 6.9,17.3 15.4,17.3 h 7"
   class="st20"
   inkscape:connector-curvature="0"
   style="fill:none;stroke:#9a3b82;stroke-width:5;stroke-linecap:round;stroke-miterlimit:10" />
			</g>
		</g>
	</g>
	<g
   id="CHAIR_1_">
		<line
   id="line9546"
   y2="2996"
   x2="3876.2"
   y1="2029.8"
   x1="3760.1001"
   class="st4"
   style="fill:none;stroke:#66b0f0;stroke-width:6;stroke-miterlimit:10" />
		<line
   id="line9548"
   y2="2996"
   x2="3140.8"
   y1="2029.8"
   x1="3256.8999"
   class="st4"
   style="fill:none;stroke:#66b0f0;stroke-width:6;stroke-miterlimit:10" />
		<line
   id="line9550"
   y2="2664.2"
   x2="3836.3"
   y1="2664.2"
   x1="3180.6001"
   class="st4"
   style="fill:none;stroke:#66b0f0;stroke-width:6;stroke-miterlimit:10" />
		<path
   id="path9552"
   d="m 3190,2032.8 h 631 c 8.4,0 15.2,-6.8 15.2,-15.2 V 1997 c 0,-8.4 -6.8,-15.2 -15.2,-15.2 h -631 c -8.4,0 -15.2,6.8 -15.2,15.2 v 20.6 c 0,8.4 6.8,15.2 15.2,15.2 z"
   class="st15"
   inkscape:connector-curvature="0"
   style="fill:#ffffff;stroke:#ffcf2d;stroke-width:6;stroke-miterlimit:10" />
	</g>
</g><g
     id="GIRL">
	<g
   id="PAPER">
		<polygon
   id="polygon9556"
   points="1868.8,1301.6 2140,1301.6 2043.4,1500.4 1751.5,1500.4 "
   class="st22"
   style="fill:#ffffff;stroke:#3fb1b5;stroke-width:5;stroke-miterlimit:10" />
		<path
   id="path9558"
   d="m 2076,1350.1 c 0,0 -12.7,-21.7 -43.2,-16.1 -22.8,4.1 -49.8,22.9 -66.4,12.8 -16.6,-10.1 -31.3,-22.7 -52.8,-16.7 -21.5,6 -37.4,17.5 -37.4,17.5"
   class="st23"
   inkscape:connector-curvature="0"
   style="fill:none;stroke:#3fb1b5;stroke-width:5;stroke-miterlimit:10" />
		<path
   id="path9560"
   d="m 2066,1381.1 c 0,0 -12.7,-21.7 -43.2,-16.1 -22.8,4.1 -49.8,22.9 -66.4,12.8 -16.6,-10.1 -31.3,-22.7 -52.8,-16.7 -21.5,6 -37.4,17.5 -37.4,17.5"
   class="st23"
   inkscape:connector-curvature="0"
   style="fill:none;stroke:#3fb1b5;stroke-width:5;stroke-miterlimit:10" />
	</g>
	<g
   id="GIRL_1_">
		<g
   id="LEGS">
			<g
   id="LEFT">
				<path
   id="path9563"
   d="m 2249.8,2193.8 c 0,26.7 -74.1,48.3 -166.9,48.3 -92.8,0 -164.7,-21.6 -164.7,-48.3 0,-26.7 71.9,-48.3 164.7,-48.3 92.8,0 166.9,21.7 166.9,48.3 z"
   class="st21"
   inkscape:connector-curvature="0"
   style="fill:#fe5244" />
				<g
   id="g9569">
					<path
   id="path9565"
   d="m 2207.1,2161.3 v 345 l -10.5,-49.8 c -11.3,-53.6 -58.6,-91.9 -113.4,-91.9 -16.5,0 -32.7,3.5 -47.4,10.1 -0.5,0.2 -1,0.5 -1.6,0.7 l -38.5,-140.4 -21.4,-78.1 c 29.3,-7.1 67.2,-11.4 108.6,-11.4 49.2,0 93.5,6.1 124.2,15.8 z"
   class="st24"
   inkscape:connector-curvature="0"
   style="fill:#a0505a" />
					<path
   id="path9567"
   d="m 2207.1,2161.3 v 65 c -30.7,9.7 -75,15.8 -124.2,15.8 -31.9,0 -61.7,-2.6 -87.2,-7 l -21.4,-78.1 c 29.3,-7.1 67.2,-11.4 108.6,-11.4 49.2,-0.1 93.5,6 124.2,15.7 z"
   class="st25"
   inkscape:connector-curvature="0"
   style="fill:#73325a" />
				</g>
				<g
   id="g9619">
					<g
   id="g9575">
						<g
   id="g9573">
							<path
   id="path9571"
   d="m 2199.7,2496.2 c 2.7,0.8 28.1,7.9 50.6,7.9 12.2,0 23.5,-2.1 29.9,-8.5 5.5,-5.5 6.8,-13.5 3.9,-23.6 -2.6,-9 -7.6,-14.6 -14.9,-16.6 -13.4,-3.6 -32,6.4 -46.7,16.9 22.9,-27.8 45.5,-63.1 37.1,-86.2 -3,-8.2 -9.8,-13.7 -18.3,-14.7 -7.1,-0.8 -13.7,1.7 -16.8,6.4 -14.4,21.9 -26.2,111.8 -26.7,115.6 z m 29,-115.6 c 1.8,-2.7 5.6,-4.3 10,-4.3 0.7,0 1.4,0 2.1,0.1 3.2,0.4 10.9,2.2 14.2,11.4 2.2,6.1 3,17.3 -5.9,36.1 -8.4,17.8 -23.6,38.7 -45.2,62.4 3.2,-22.8 13.4,-88.4 24.8,-105.7 z m 48,111.5 c -6.6,6.6 -21.6,8.6 -43.5,5.8 -11.5,-1.5 -22.2,-3.9 -27.9,-5.4 4.3,-3.8 12.3,-10.7 21.6,-17.1 17.8,-12.3 32,-17.6 41.1,-15.1 5.5,1.5 9.2,5.8 11.4,13.1 2.4,8.4 1.5,14.5 -2.7,18.7 z"
   class="st5"
   inkscape:connector-curvature="0"
   style="fill:#ffcf2d" />
						</g>
					</g>
					<path
   id="path9577"
   d="m 1996.7,2403.4 -23.1,25.9 c -26.2,29.4 -30.5,72.2 -10.6,106.2 l 101.7,174.4 c 19.9,34.1 56.4,55 95.8,55 h 42.1 c 30.5,0 53.2,-28 46.9,-57.8 l -53,-250.5 c -11.3,-53.6 -58.6,-91.9 -113.4,-91.9 v 0 c -32.9,-0.1 -64.4,14 -86.4,38.7 z"
   class="st22"
   inkscape:connector-curvature="0"
   style="fill:#ffffff;stroke:#3fb1b5;stroke-width:5;stroke-miterlimit:10" />
					<path
   id="path9579"
   d="m 2075.4,2478.8 131.3,254.4 c 6.2,11.5 13.9,18.9 22.7,23.6 -7.6,5.1 -16.8,8.2 -26.8,8.2 h -42.1 c -39.5,0 -76,-21 -95.8,-55 L 1963,2535.5 c -4.1,-7.1 -7.2,-14.5 -9.3,-22.2 -14.4,-53.5 46.5,-95.5 92.2,-64.1 10.4,7.1 20.6,16.7 29.5,29.6 z"
   class="st11"
   inkscape:connector-curvature="0"
   style="fill:#3fb1b5" />
					<g
   id="g9617">
						<g
   id="g9583">
							<path
   id="path9581"
   d="m 2075.7,2479.4 h -121.2 c 0.6,-1.9 1.3,-3.7 2.1,-5.4 h 115.2 c 1.2,1.6 2.4,3.2 3.6,4.9 z"
   class="st6"
   inkscape:connector-curvature="0"
   style="fill:#ffffff" />
						</g>
						<g
   id="g9587">
							<path
   id="path9585"
   d="m 2093.5,2513.8 h -139.6 c 0,-0.2 -0.1,-0.4 -0.1,-0.5 -0.4,-1.6 -0.8,-3.3 -1.1,-4.9 h 138.1 z"
   class="st6"
   inkscape:connector-curvature="0"
   style="fill:#ffffff" />
						</g>
						<g
   id="g9591">
							<polygon
   id="polygon9589"
   points="2108.5,2542.8 2111.3,2548.3 1970.5,2548.3 1967.3,2542.8 "
   class="st6"
   style="fill:#ffffff" />
						</g>
						<g
   id="g9595">
							<polygon
   id="polygon9593"
   points="2126.3,2577.3 2129.1,2582.8 1990.6,2582.8 1987.4,2577.3 "
   class="st6"
   style="fill:#ffffff" />
						</g>
						<g
   id="g9599">
							<polygon
   id="polygon9597"
   points="2144.1,2611.8 2146.9,2617.2 2010.7,2617.2 2007.5,2611.8 "
   class="st6"
   style="fill:#ffffff" />
						</g>
						<g
   id="g9603">
							<polygon
   id="polygon9601"
   points="2161.8,2646.2 2164.7,2651.7 2030.8,2651.7 2027.6,2646.2 "
   class="st6"
   style="fill:#ffffff" />
						</g>
						<g
   id="g9607">
							<polygon
   id="polygon9605"
   points="2179.6,2680.7 2182.5,2686.2 2050.9,2686.2 2047.7,2680.7 "
   class="st6"
   style="fill:#ffffff" />
						</g>
						<g
   id="g9611">
							<path
   id="path9609"
   d="m 2200.2,2720.6 h -128.4 c -1.3,-1.8 -2.6,-3.6 -3.8,-5.4 h 129.4 z"
   class="st6"
   inkscape:connector-curvature="0"
   style="fill:#ffffff" />
						</g>
						<g
   id="g9615">
							<path
   id="path9613"
   d="m 2226.5,2755.1 h -111.6 c -3.6,-1.6 -7.1,-3.4 -10.5,-5.4 h 114.9 c 2.3,2 4.7,3.8 7.2,5.4 z"
   class="st6"
   inkscape:connector-curvature="0"
   style="fill:#ffffff" />
						</g>
					</g>
				</g>
			</g>
			<g
   id="RIGHT">
				<path
   id="path9622"
   d="m 1840.2,2186.7 c -0.9,26.4 -75.8,47.8 -168,47.8 -92.2,0 -167.1,-21.3 -168,-47.8 v -207.9 h 336 z"
   class="st25"
   inkscape:connector-curvature="0"
   style="fill:#73325a" />
				<g
   id="g9628">
					<path
   id="path9624"
   d="m 1817.9,2221.2 -0.5,24.7 -4.8,241.1 v -7 c 0,-61.9 -50.2,-112.1 -112.1,-112.1 h -6.8 c -31.6,0 -60.1,12.3 -81.2,32.1 l -14.7,-99.4 -9.1,-61.5 c 24.6,4.1 53.1,6.4 83.4,6.4 62.4,-0.1 116.7,-9.9 145.8,-24.3 z"
   class="st24"
   inkscape:connector-curvature="0"
   style="fill:#a0505a" />
					<path
   id="path9626"
   d="m 1817.9,2221.2 -0.5,24.7 c -37.2,26.4 -152.1,58.9 -219.5,54.6 l -9.1,-61.5 c 24.6,4 53.1,6.4 83.4,6.4 62.3,0 116.6,-9.8 145.7,-24.2 z"
   class="st25"
   inkscape:connector-curvature="0"
   style="fill:#73325a" />
				</g>
				<g
   id="g9672">
					<path
   id="path9630"
   d="m 1705.6,2768.2 h 18.6 c 48.8,0 88.4,-39.6 88.4,-88.4 V 2480 c 0,-61.9 -50.2,-112.1 -112.1,-112.1 h -6.8 c -72,0 -127.5,63.5 -117.8,134.9 l 23.5,172.8 c 7.3,53 52.6,92.6 106.2,92.6 z"
   class="st22"
   inkscape:connector-curvature="0"
   style="fill:#ffffff;stroke:#3fb1b5;stroke-width:5;stroke-miterlimit:10" />
					<path
   id="path9632"
   d="m 1784.8,2744.1 c -15.8,14.9 -37.2,24.1 -60.6,24.1 h -18.6 c -53.6,0 -98.9,-39.6 -106.1,-92.6 L 1576,2502.8 c -0.4,-3.3 -0.8,-6.6 -0.9,-9.8 6,-38.3 39.1,-67.6 79.1,-67.6 19.7,0 37.9,7.2 52,19.2 14.1,12 24,28.9 27.1,48.4 l 30.9,210.9 c 2.3,15.7 9.7,29.7 20.6,40.2 z"
   class="st11"
   inkscape:connector-curvature="0"
   style="fill:#3fb1b5" />
					<g
   id="g9670">
						<g
   id="g9636">
							<path
   id="path9634"
   d="m 1724,2466.3 h -139.7 c 1,-1.9 2.2,-3.7 3.4,-5.4 h 133 c 1.2,1.7 2.3,3.5 3.3,5.4 z"
   class="st6"
   inkscape:connector-curvature="0"
   style="fill:#ffffff" />
						</g>
						<g
   id="g9640">
							<path
   id="path9638"
   d="m 1734.4,2500.7 h -158.7 c -0.2,-1.8 -0.4,-3.6 -0.5,-5.4 h 158.4 z"
   class="st6"
   inkscape:connector-curvature="0"
   style="fill:#ffffff" />
						</g>
						<g
   id="g9644">
							<polygon
   id="polygon9642"
   points="1738.7,2529.8 1739.5,2535.2 1580.4,2535.2 1579.6,2529.8 "
   class="st6"
   style="fill:#ffffff" />
						</g>
						<g
   id="g9648">
							<polygon
   id="polygon9646"
   points="1743.7,2564.2 1744.5,2569.7 1585.1,2569.7 1584.3,2564.2 "
   class="st6"
   style="fill:#ffffff" />
						</g>
						<g
   id="g9652">
							<polygon
   id="polygon9650"
   points="1748.8,2598.7 1749.6,2604.1 1589.8,2604.1 1589,2598.7 "
   class="st6"
   style="fill:#ffffff" />
						</g>
						<g
   id="g9656">
							<polygon
   id="polygon9654"
   points="1753.8,2633.2 1754.6,2638.6 1594.4,2638.6 1593.7,2633.2 "
   class="st6"
   style="fill:#ffffff" />
						</g>
						<g
   id="g9660">
							<polygon
   id="polygon9658"
   points="1758.9,2667.6 1759.7,2673.1 1599.1,2673.1 1598.4,2667.6 "
   class="st6"
   style="fill:#ffffff" />
						</g>
						<g
   id="g9664">
							<path
   id="path9662"
   d="M 1764.8,2707.5 H 1609 c -0.9,-1.8 -1.7,-3.6 -2.4,-5.4 h 157.3 l 0.3,1.8 c 0.2,1.2 0.4,2.4 0.6,3.6 z"
   class="st6"
   inkscape:connector-curvature="0"
   style="fill:#ffffff" />
						</g>
						<g
   id="g9668">
							<path
   id="path9666"
   d="m 1782.7,2742 h -147.3 c -2,-1.7 -4,-3.6 -5.8,-5.4 h 148.5 c 1.4,1.9 3,3.7 4.6,5.4 z"
   class="st6"
   inkscape:connector-curvature="0"
   style="fill:#ffffff" />
						</g>
					</g>
				</g>
			</g>
		</g>
		<g
   id="CLOTHES">
			<g
   id="g9680">
				<path
   id="path9676"
   d="m 1912.9,1106.1 v 168.4 c -7.3,-19.1 -65.1,-16.4 -128.7,7.7 -54.5,20.7 -95.4,49.1 -101.4,68.8 v -237 c 0,-70.5 37.7,-133.5 95.6,-167.9 75.2,13.1 134.5,78.6 134.5,160 z"
   class="st5"
   inkscape:connector-curvature="0"
   style="fill:#ffcf2d" />
				<path
   id="path9678"
   d="m 1678.4,953.7 c -51.2,35.6 -83.8,94.7 -83.8,160.3 v 195.5 h -284.7 l 39.3,-169.2 c 16.7,-72.1 68.9,-129.6 136.9,-154.1 z"
   class="st5"
   inkscape:connector-curvature="0"
   style="fill:#ffcf2d" />
			</g>
			<g
   id="g9696">
				<path
   id="path9682"
   d="M 2254.2,1790.5 V 2183 c 0,-26.7 -78.5,-48.3 -171.3,-48.3 -92.8,0 -168,21.6 -168,48.3 v -188.1 c 0,-8.8 -7.2,-16 -16,-16 h -510.4 c -153.5,0 -267,-142.9 -232.3,-292.4 l 123.2,-530.8 c 19.6,-84.7 88.2,-149.2 173.9,-163.8 l 32.8,-5.6 c -68,24.5 -120.2,82 -136.9,154.1 l -39.3,169.2 h 284.7 V 1114 c 0,-65.6 32.7,-124.8 83.8,-160.3 v 0 l 45,-7.6 c 9.3,-1.6 18.4,-2.3 27.5,-2.3 1.2,0 2.3,0 3.5,0 1.1,0 2.2,0.1 3.2,0.1 0.2,0 0.4,0 0.6,0 0.8,0 1.7,0.1 2.5,0.1 0.1,0 0.3,0 0.4,0 0.5,0 1,0.1 1.4,0.1 0.9,0.1 1.7,0.1 2.6,0.2 1,0.1 2.1,0.2 3.1,0.3 1,0.1 1.9,0.2 2.9,0.3 0.2,0 0.4,0.1 0.7,0.1 1,0.1 2.1,0.3 3.1,0.4 0.1,0 0.2,0 0.2,0 1.1,0.2 2.2,0.3 3.3,0.5 -57.9,34.4 -95.6,97.4 -95.6,167.9 v 480.5 h 375.4 c 108.2,0.2 196,87.9 196,196.2 z"
   class="st21"
   inkscape:connector-curvature="0"
   style="fill:#fe5244" />
				<path
   id="path9684"
   d="m 1684.9,949.3 c -51.2,35.6 -90.4,99.1 -90.4,164.7 v 195.5 h -284.7 l 39.3,-169.2 c 16.7,-72.1 64.5,-130.7 132.6,-155.2"
   class="st13"
   inkscape:connector-curvature="0"
   style="fill:none;stroke:#ffffff;stroke-width:6;stroke-linecap:round;stroke-miterlimit:10" />
				<path
   id="path9686"
   d="m 1914.9,1934.6 c 0,-55.7 19.7,-109.6 55.6,-152.1"
   class="st13"
   inkscape:connector-curvature="0"
   style="fill:none;stroke:#ffffff;stroke-width:6;stroke-linecap:round;stroke-miterlimit:10" />
				<g
   id="g9690">
					<path
   id="path9688"
   d="m 1499,1914.7 c -0.5,0 -1,-0.1 -1.4,-0.4 l -13.2,-7.2 c -1.5,-0.8 -2,-2.6 -1.2,-4.1 0.8,-1.5 2.6,-2 4.1,-1.2 l 13.2,7.2 c 1.5,0.8 2,2.6 1.2,4.1 -0.6,1 -1.6,1.6 -2.7,1.6 z m 13.2,-3.4 c -1.1,0 -2.1,-0.6 -2.6,-1.6 -0.8,-1.5 -0.3,-3.3 1.2,-4.1 l 13.2,-7.2 c 1.5,-0.8 3.3,-0.2 4.1,1.2 0.8,1.5 0.3,3.3 -1.2,4.1 l -13.2,7.2 c -0.5,0.2 -1,0.4 -1.5,0.4 z m -39.6,-10.9 c -0.5,0 -1,-0.1 -1.4,-0.4 l -13.2,-7.2 c -1.5,-0.8 -2,-2.6 -1.2,-4.1 0.8,-1.5 2.6,-2 4.1,-1.2 l 13.2,7.2 c 1.5,0.8 2,2.6 1.2,4.1 -0.6,1 -1.6,1.6 -2.7,1.6 z m 65.9,-3.5 c -1.1,0 -2.1,-0.6 -2.6,-1.6 -0.8,-1.5 -0.3,-3.3 1.2,-4.1 l 13.2,-7.2 c 2.3,-1.2 4.4,-2.6 6.5,-4.1 1.3,-1 3.2,-0.7 4.2,0.6 1,1.3 0.7,3.2 -0.6,4.2 -2.3,1.7 -4.7,3.2 -7.2,4.6 l -13.2,7.2 c -0.5,0.3 -1,0.4 -1.5,0.4 z m -92,-11.3 c -0.6,0 -1.2,-0.2 -1.8,-0.6 -4.2,-3.1 -8.1,-6.7 -11.4,-10.8 -1.1,-1.3 -0.9,-3.2 0.4,-4.2 1.3,-1.1 3.2,-0.9 4.2,0.4 3,3.7 6.5,6.9 10.3,9.7 1.3,1 1.6,2.9 0.7,4.2 -0.5,0.9 -1.4,1.3 -2.4,1.3 z m 122.9,-10.5 c -0.7,0 -1.3,-0.2 -1.9,-0.7 -1.3,-1 -1.5,-2.9 -0.4,-4.2 3,-3.7 5.5,-7.7 7.5,-12.1 0.7,-1.5 2.5,-2.2 4,-1.5 1.5,0.7 2.2,2.5 1.5,4 -2.2,4.8 -5,9.3 -8.3,13.3 -0.7,0.8 -1.5,1.2 -2.4,1.2 z m -141.7,-12.4 c -1.1,0 -2.2,-0.6 -2.7,-1.7 -2.2,-4.8 -3.8,-9.8 -4.8,-15 -0.3,-1.6 0.8,-3.2 2.4,-3.5 1.6,-0.3 3.2,0.8 3.5,2.4 0.9,4.7 2.3,9.2 4.3,13.5 0.7,1.5 0,3.3 -1.5,4 -0.4,0.2 -0.8,0.3 -1.2,0.3 z m 154.1,-14.6 c -0.2,0 -0.4,0 -0.5,0 -1.6,-0.3 -2.7,-1.9 -2.4,-3.5 0.6,-3.3 0.9,-6.6 0.9,-9.9 v -4.5 c 0,-1.7 1.3,-3 3,-3 1.7,0 3,1.3 3,3 v 4.5 c 0,3.7 -0.3,7.4 -1,11 -0.3,1.4 -1.6,2.4 -3,2.4 z m -159.6,-14.6 c -1.7,0 -3,-1.3 -3,-3 v -15 c 0,-1.7 1.3,-3 3,-3 1.7,0 3,1.3 3,3 v 15 c 0,1.6 -1.4,3 -3,3 z m 160.5,-15.3 c -1.7,0 -3,-1.3 -3,-3 v -15 c 0,-1.7 1.3,-3 3,-3 1.7,0 3,1.3 3,3 v 15 c 0,1.7 -1.3,3 -3,3 z m -160.5,-14.7 c -1.7,0 -3,-1.3 -3,-3 v -15 c 0,-1.7 1.3,-3 3,-3 1.7,0 3,1.3 3,3 v 15 c 0,1.6 -1.4,3 -3,3 z m 160.5,-15.3 c -1.7,0 -3,-1.3 -3,-3 v -15 c 0,-1.7 1.3,-3 3,-3 1.7,0 3,1.3 3,3 v 15 c 0,1.7 -1.3,3 -3,3 z m -160.5,-14.7 c -1.7,0 -3,-1.3 -3,-3 v -15 c 0,-1.7 1.3,-3 3,-3 1.7,0 3,1.3 3,3 v 15 c 0,1.6 -1.4,3 -3,3 z m 160.5,-15.3 c -1.7,0 -3,-1.3 -3,-3 v -15 c 0,-1.7 1.3,-3 3,-3 1.7,0 3,1.3 3,3 v 15 c 0,1.7 -1.3,3 -3,3 z m -160.5,-14.7 c -1.7,0 -3,-1.3 -3,-3 v -12.9 h 8.1 c 1.7,0 3,1.3 3,3 0,1.7 -1.3,3 -3,3 h -2.1 v 6.9 c 0,1.6 -1.4,3 -3,3 z m 155.1,-9.9 h -15 c -1.7,0 -3,-1.3 -3,-3 0,-1.7 1.3,-3 3,-3 h 15 c 1.7,0 3,1.3 3,3 0,1.7 -1.3,3 -3,3 z m -30,0 h -15 c -1.7,0 -3,-1.3 -3,-3 0,-1.7 1.3,-3 3,-3 h 15 c 1.7,0 3,1.3 3,3 0,1.7 -1.3,3 -3,3 z m -30,0 h -15 c -1.7,0 -3,-1.3 -3,-3 0,-1.7 1.3,-3 3,-3 h 15 c 1.7,0 3,1.3 3,3 0,1.7 -1.3,3 -3,3 z m -30,0 h -15 c -1.7,0 -3,-1.3 -3,-3 0,-1.7 1.3,-3 3,-3 h 15 c 1.7,0 3,1.3 3,3 0,1.7 -1.3,3 -3,3 z m -30,0 h -15 c -1.7,0 -3,-1.3 -3,-3 0,-1.7 1.3,-3 3,-3 h 15 c 1.7,0 3,1.3 3,3 0,1.7 -1.3,3 -3,3 z"
   class="st6"
   inkscape:connector-curvature="0"
   style="fill:#ffffff" />
				</g>
				<g
   id="g9694">
					<path
   id="path9692"
   d="m 1216,1898.1 c -1.1,0 -2.1,-0.6 -2.6,-1.6 -0.8,-1.5 -0.3,-3.3 1.2,-4.1 l 12.2,-6.7 c 0.3,-0.2 0.6,-0.3 0.9,-0.5 1.4,-0.8 3.3,-0.3 4.1,1.1 0.8,1.4 0.3,3.3 -1.1,4.1 -0.3,0.2 -0.6,0.4 -1,0.5 l -12.2,6.7 c -0.5,0.4 -1,0.5 -1.5,0.5 z m 25.3,-16 c -0.8,0 -1.6,-0.3 -2.2,-1 -1.1,-1.2 -1,-3.1 0.2,-4.2 3.5,-3.2 6.6,-6.9 9.3,-10.8 0.9,-1.4 2.8,-1.7 4.2,-0.8 1.4,0.9 1.7,2.8 0.8,4.2 -2.9,4.3 -6.4,8.3 -10.2,11.9 -0.7,0.5 -1.4,0.7 -2.1,0.7 z m 16.7,-24.6 c -0.4,0 -0.7,-0.1 -1.1,-0.2 -1.5,-0.6 -2.3,-2.3 -1.7,-3.9 1.7,-4.5 2.9,-9.1 3.6,-13.8 0.2,-1.6 1.7,-2.8 3.4,-2.6 1.6,0.2 2.8,1.7 2.6,3.4 -0.7,5.2 -2,10.3 -3.9,15.2 -0.6,1.2 -1.7,1.9 -2.9,1.9 z m 4.3,-29.4 c -1.7,0 -3,-1.3 -3,-3 v -15 c 0,-1.7 1.3,-3 3,-3 1.7,0 3,1.3 3,3 v 15 c 0,1.6 -1.3,3 -3,3 z m 0,-30 c -1.7,0 -3,-1.3 -3,-3 v -15 c 0,-1.7 1.3,-3 3,-3 1.7,0 3,1.3 3,3 v 15 c 0,1.6 -1.3,3 -3,3 z m 0,-30 c -1.7,0 -3,-1.3 -3,-3 v -15 c 0,-1.7 1.3,-3 3,-3 1.7,0 3,1.3 3,3 v 15 c 0,1.6 -1.3,3 -3,3 z m 0,-30 c -1.7,0 -3,-1.3 -3,-3 v -1.5 h -7.5 c -1.7,0 -3,-1.3 -3,-3 0,-1.7 1.3,-3 3,-3 h 13.5 v 7.5 c 0,1.6 -1.3,3 -3,3 z m -25.5,-4.5 h -15 c -1.7,0 -3,-1.3 -3,-3 0,-1.7 1.3,-3 3,-3 h 15 c 1.7,0 3,1.3 3,3 0,1.7 -1.4,3 -3,3 z m -30,0 h -15 c -1.7,0 -3,-1.3 -3,-3 0,-1.7 1.3,-3 3,-3 h 15 c 1.7,0 3,1.3 3,3 0,1.7 -1.4,3 -3,3 z m -30,0 h -15 c -1.7,0 -3,-1.3 -3,-3 0,-1.7 1.3,-3 3,-3 h 15 c 1.7,0 3,1.3 3,3 0,1.7 -1.4,3 -3,3 z"
   class="st6"
   inkscape:connector-curvature="0"
   style="fill:#ffffff" />
				</g>
			</g>
		</g>
		<g
   id="HAND">
			<path
   id="path9699"
   d="m 1912.9,1274.5 c 7.3,19.1 -38.9,53 -102.4,77.1 -63.5,24.1 -120.4,27.8 -127.7,8.6 -7.3,-19.2 37.8,-53.8 101.4,-77.9 63.6,-24.1 121.4,-27 128.7,-7.8 z"
   class="st21"
   inkscape:connector-curvature="0"
   style="fill:#fe5244" />
			<path
   id="path9701"
   d="m 1948.4,1894.9 v 10.6 c -3.3,-0.8 -6.8,-1.2 -10.3,-1.2 h -12.9 c -19.1,0 -35.4,-12.2 -41.6,-29.2 l 36.6,-4.9 c 14.9,-2 28.2,9.6 28.2,24.7 z"
   class="st25"
   inkscape:connector-curvature="0"
   style="fill:#73325a" />
			<path
   id="path9703"
   d="m 1982.2,1948.4 v 81.4 c 0,19 -15.4,34.4 -34.4,34.4 h -38.3 c -9.5,0 -18.1,-3.8 -24.3,-10.1 -6.2,-6.2 -10.1,-14.8 -10.1,-24.3 h 24.9 c 8.2,0 14.8,-6.6 14.8,-14.8 v -21.3 c 0,-8.2 -6.6,-14.8 -14.8,-14.8 h -127.3 c -49.7,0 -90,-40.3 -90,-90 v -537.8 c 6,-19.7 46.9,-48.2 101.4,-68.8 37.2,-14.1 72.5,-20.9 96.8,-20.3 v 598.2 c 0,24.4 19.8,44.2 44.2,44.2 h 12.9 c 24.4,-0.1 44.2,19.6 44.2,44 z"
   class="st24"
   inkscape:connector-curvature="0"
   style="fill:#a0505a" />
			<path
   id="path9705"
   d="m 1880.9,1261.9 v 54.4 c -18.1,12.2 -42.6,24.7 -70.5,35.2 -63.6,24.1 -120.4,27.8 -127.7,8.6 v -9.1 c 6,-19.7 46.9,-48.2 101.4,-68.8 37.3,-14.1 72.5,-20.9 96.8,-20.3 z"
   class="st25"
   inkscape:connector-curvature="0"
   style="fill:#73325a" />
		</g>
		<g
   id="HEAD_1_">
			<g
   id="NECK">
				<polygon
   id="polygon9708"
   points="1533.8,856.8 1714.6,856.8 1677,953.7 1483.2,988.4 "
   class="st24"
   style="fill:#a0505a" />
				<polygon
   id="polygon9710"
   points="1533.8,856.8 1714.6,856.8 1694.3,909.2 1502.1,939.2 "
   class="st25"
   style="fill:#73325a" />
			</g>
			<g
   id="HAIR">
				<path
   id="path9713"
   d="m 1828.2,659.6 c 0,13.1 -22.7,27.6 -48.9,39.8 -35.7,16.7 -77.8,29.4 -77.8,29.4 l -28.4,53.5 c 38.6,20.5 53.7,57.3 59.7,83 3.8,16.4 3.8,28.1 3.8,28.1 h -272.2 c 0,0 -71.5,-231.6 100.8,-287 105.4,-33.9 263,22.1 263,53.2 z"
   class="st26"
   inkscape:connector-curvature="0"
   style="fill:#ffffff;stroke:#ffcf2d;stroke-width:6;stroke-linecap:round;stroke-miterlimit:10" />
				<circle
   id="circle9715"
   r="67.699997"
   cy="571.70001"
   cx="1540"
   class="st26"
   style="fill:#ffffff;stroke:#ffcf2d;stroke-width:6;stroke-linecap:round;stroke-miterlimit:10" />
			</g>
			<g
   id="HEAD">
				<path
   id="path9718"
   d="m 1732.7,865.3 c -5.6,-24.3 -19.6,-58.9 -54.1,-79.8 h -8.9 c -8.2,0 -15.7,-3.3 -21.1,-8.7 -5.4,-5.4 -8.7,-12.9 -8.7,-21.1 0,-16.5 13.3,-29.8 29.8,-29.8 l 37.7,0.8 c 0,0 0,0 0,0 h 1 c 0.7,-0.2 1.4,-0.5 2.2,-0.7 10.2,-2.2 42.5,-10 69.3,-23.4 l 3.1,18.5 10,59.3 c 6.8,40.7 -21.1,78.2 -60.3,84.9 z"
   class="st24"
   inkscape:connector-curvature="0"
   style="fill:#a0505a" />
				<path
   id="path9720"
   d="m 1782.9,721 c -32.8,13.3 -75.6,5.6 -75.6,5.6 0,0 40.3,-8 72.5,-24.1 z"
   class="st25"
   inkscape:connector-curvature="0"
   style="fill:#73325a" />
				<path
   id="path9722"
   d="m 1692.9,761.4 c 0,-11.4 -9.2,-20.6 -20.6,-20.6"
   class="st27"
   inkscape:connector-curvature="0"
   style="fill:none;stroke:#73325a;stroke-width:5;stroke-linecap:round;stroke-miterlimit:10" />
			</g>
		</g>
	</g>
	<g
   id="CHAIR">
		<line
   id="line9727"
   y2="2996"
   x2="1914.9"
   y1="2029.8"
   x1="1798.8"
   class="st4"
   style="fill:none;stroke:#66b0f0;stroke-width:6;stroke-miterlimit:10" />
		<line
   id="line9729"
   y2="2996"
   x2="1179.5"
   y1="2029.8"
   x1="1295.5"
   class="st4"
   style="fill:none;stroke:#66b0f0;stroke-width:6;stroke-miterlimit:10" />
		<line
   id="line9731"
   y2="2664.2"
   x2="1875"
   y1="2664.2"
   x1="1219.3"
   class="st4"
   style="fill:none;stroke:#66b0f0;stroke-width:6;stroke-miterlimit:10" />
		<path
   id="path9733"
   d="m 1194.6,2029.8 h 705.1 c 8.4,0 15.2,-6.8 15.2,-15.2 V 1994 c 0,-8.4 -6.8,-15.2 -15.2,-15.2 h -705.1 c -8.4,0 -15.2,6.8 -15.2,15.2 v 20.6 c 0.1,8.4 6.9,15.2 15.2,15.2 z"
   class="st15"
   inkscape:connector-curvature="0"
   style="fill:#ffffff;stroke:#ffcf2d;stroke-width:6;stroke-miterlimit:10" />
	</g>
</g></g></svg>