<?xml version="1.0" encoding="UTF-8" standalone="no"?>
<!-- Generator: Adobe Illustrator 24.2.1, SVG Export Plug-In . SVG Version: 6.00 Build 0)  -->

<svg
   xmlns:dc="http://purl.org/dc/elements/1.1/"
   xmlns:cc="http://creativecommons.org/ns#"
   xmlns:rdf="http://www.w3.org/1999/02/22-rdf-syntax-ns#"
   xmlns:svg="http://www.w3.org/2000/svg"
   xmlns="http://www.w3.org/2000/svg"
   xmlns:sodipodi="http://sodipodi.sourceforge.net/DTD/sodipodi-0.dtd"
   xmlns:inkscape="http://www.inkscape.org/namespaces/inkscape"
   version="1.1"
   id="Слой_1"
   x="0px"
   y="0px"
   viewBox="0 0 5000 3500"
   style="enable-background:new 0 0 5000 3500;"
   xml:space="preserve"
   sodipodi:docname="shapes 1.svg"
   inkscape:version="0.92.5 (2060ec1f9f, 2020-04-08)"><metadata
   id="metadata1700"><rdf:RDF><cc:Work
       rdf:about=""><dc:format>image/svg+xml</dc:format><dc:type
         rdf:resource="http://purl.org/dc/dcmitype/StillImage" /><dc:title /></cc:Work></rdf:RDF></metadata><defs
   id="defs1698" /><sodipodi:namedview
   pagecolor="#ffffff"
   bordercolor="#666666"
   borderopacity="1"
   objecttolerance="10"
   gridtolerance="10"
   guidetolerance="10"
   inkscape:pageopacity="0"
   inkscape:pageshadow="2"
   inkscape:window-width="1920"
   inkscape:window-height="1012"
   id="namedview1696"
   showgrid="false"
   inkscape:zoom="0.16122035"
   inkscape:cx="2222.5648"
   inkscape:cy="1575.7323"
   inkscape:window-x="0"
   inkscape:window-y="35"
   inkscape:window-maximized="1"
   inkscape:current-layer="Слой_1" />
<style
   type="text/css"
   id="style1385">
	.st0{fill:#D0F0E4;}
	.st1{fill:none;stroke:#FFCF2D;stroke-width:6;stroke-miterlimit:10;}
	.st2{fill:#FFCF2D;stroke:#FFFFFF;stroke-width:6;stroke-miterlimit:10;}
	.st3{fill:none;stroke:#9A3B82;stroke-width:6;stroke-linecap:round;stroke-miterlimit:10;}
	.st4{fill:#66B0F0;}
	.st5{fill:#9A3B82;}
	.st6{fill:#FFFFFF;stroke:#FFCF2D;stroke-width:6;stroke-miterlimit:10;}
	.st7{fill:#FE5244;}
	.st8{fill:#FFCF2D;}
	.st9{fill:none;stroke:#FFCF2D;stroke-width:6;stroke-linecap:round;stroke-miterlimit:10;}
	.st10{fill:#FFFFFF;stroke:#9A3B82;stroke-width:6;stroke-linecap:round;stroke-miterlimit:10;}
	.st11{fill:#FFFFFF;stroke:#3FB1B5;stroke-width:6;stroke-miterlimit:10;}
	.st12{fill:none;stroke:#3FB1B5;stroke-width:6;stroke-miterlimit:10;}
	.st13{fill:none;stroke:#9A3B82;stroke-width:6;stroke-linecap:round;stroke-linejoin:round;stroke-miterlimit:10;}
	.st14{fill:#FFFFFF;}
	.st15{fill:none;stroke:#FE5244;stroke-width:5;stroke-miterlimit:10;}
	.st16{fill:#FFFFFF;stroke:#FE5244;stroke-width:6;stroke-miterlimit:10;}
	.st17{fill:none;stroke:#FE5244;stroke-width:6;stroke-miterlimit:10;}
	.st18{fill:#3FB1B5;}
	.st19{fill:none;stroke:#9A3B82;stroke-width:6;stroke-miterlimit:10;}
	.st20{fill:none;stroke:#FFFFFF;stroke-width:6;stroke-miterlimit:10;}
	.st21{fill:#E57281;}
	.st22{fill:none;stroke:#9A3B82;stroke-width:5;stroke-linecap:round;stroke-miterlimit:10;}
	.st23{fill:#FE5244;stroke:#FE5244;stroke-width:6;stroke-miterlimit:10;}
	.st24{fill:none;stroke:#FFFFFF;stroke-width:6;stroke-linecap:round;stroke-miterlimit:10;}
</style>
<g
   id="g1788"><circle
     r="241.90495"
     cy="1093.3558"
     cx="967.61981"
     id="path1728"
     style="opacity:1;fill:#ff7951;fill-opacity:1;stroke:none;stroke-width:2.4000001;stroke-miterlimit:4;stroke-dasharray:none;stroke-opacity:1;paint-order:markers fill stroke" /><ellipse
     ry="434.57343"
     rx="464.2984"
     cy="1521.7266"
     cx="1624.2017"
     id="path1730"
     style="opacity:1;fill:#ff7951;fill-opacity:1;stroke:none;stroke-width:2.4000001;stroke-miterlimit:4;stroke-dasharray:none;stroke-opacity:1;paint-order:markers fill stroke" /><circle
     r="151.96593"
     cy="724.29578"
     cx="1708.8414"
     id="path1732"
     style="opacity:1;fill:#ff7951;fill-opacity:1;stroke:none;stroke-width:2.4000001;stroke-miterlimit:4;stroke-dasharray:none;stroke-opacity:1;paint-order:markers fill stroke" /><circle
     r="241.90495"
     cy="721.1944"
     cx="1345.984"
     id="path1734"
     style="opacity:1;fill:#ffa62c;fill-opacity:1;stroke:none;stroke-width:2.4000001;stroke-miterlimit:4;stroke-dasharray:none;stroke-opacity:1;paint-order:markers fill stroke" /><circle
     r="130.25652"
     cy="1980.3407"
     cx="570.64758"
     id="path1738"
     style="opacity:1;fill:#ff7951;fill-opacity:1;stroke:none;stroke-width:2.4000001;stroke-miterlimit:4;stroke-dasharray:none;stroke-opacity:1;paint-order:markers fill stroke" /><circle
     r="164.37131"
     cy="2889.0349"
     cx="480.70856"
     id="path1740"
     style="opacity:1;fill:#ff9551;fill-opacity:1;stroke:none;stroke-width:2.4000001;stroke-miterlimit:4;stroke-dasharray:none;stroke-opacity:1;paint-order:markers fill stroke" /><ellipse
     ry="97.616203"
     rx="126.0874"
     cy="2139.9839"
     cx="1106.1125"
     id="path1742"
     style="opacity:1;fill:#ff7951;fill-opacity:1;stroke:none;stroke-width:2.4000001;stroke-miterlimit:4;stroke-dasharray:none;stroke-opacity:1;paint-order:markers fill stroke" /><circle
     r="62.026909"
     cy="1812.868"
     cx="942.80902"
     id="path1744"
     style="opacity:1;fill:#ff9a51;fill-opacity:1;stroke:none;stroke-width:2.4000001;stroke-miterlimit:4;stroke-dasharray:none;stroke-opacity:1;paint-order:markers fill stroke" /><circle
     r="58.925564"
     cy="1512.0375"
     cx="716.41083"
     id="path1748"
     style="opacity:1;fill:#ff7951;fill-opacity:1;stroke:none;stroke-width:2.4000001;stroke-miterlimit:4;stroke-dasharray:none;stroke-opacity:1;paint-order:markers fill stroke" /><ellipse
     ry="385.27298"
     rx="403.26065"
     cy="1013.427"
     cx="3120.0393"
     id="path1750"
     style="opacity:1;fill:#ffa051;fill-opacity:1;stroke:none;stroke-width:2.4000001;stroke-miterlimit:4;stroke-dasharray:none;stroke-opacity:1;paint-order:markers fill stroke" /><circle
     r="80.634987"
     cy="318.0195"
     cx="3206.7913"
     id="path1752"
     style="opacity:1;fill:#ff7951;fill-opacity:1;stroke:none;stroke-width:2.4000001;stroke-miterlimit:4;stroke-dasharray:none;stroke-opacity:1;paint-order:markers fill stroke" /><circle
     r="49.621529"
     cy="820.43744"
     cx="3765.0334"
     id="path1754"
     style="opacity:1;fill:#ff7951;fill-opacity:1;stroke:none;stroke-width:2.4000001;stroke-miterlimit:4;stroke-dasharray:none;stroke-opacity:1;paint-order:markers fill stroke" /><circle
     r="46.520184"
     cy="581.63385"
     cx="3464.2029"
     id="path1756"
     style="opacity:1;fill:#ff7951;fill-opacity:1;stroke:none;stroke-width:2.4000001;stroke-miterlimit:4;stroke-dasharray:none;stroke-opacity:1;paint-order:markers fill stroke" /><circle
     r="424.88434"
     cy="848.34955"
     cx="4202.3232"
     id="path1758"
     style="opacity:1;fill:#ff7951;fill-opacity:1;stroke:none;stroke-width:2.4000001;stroke-miterlimit:4;stroke-dasharray:none;stroke-opacity:1;paint-order:markers fill stroke" /><circle
     r="319.4386"
     cy="2206.739"
     cx="3929.4048"
     id="path1762"
     style="opacity:1;fill:#ff7951;fill-opacity:1;stroke:none;stroke-width:2.4000001;stroke-miterlimit:4;stroke-dasharray:none;stroke-opacity:1;paint-order:markers fill stroke" /><circle
     r="691.60004"
     cy="2653.3328"
     cx="2403.5427"
     id="path1764"
     style="opacity:1;fill:#ff9551;fill-opacity:1;stroke:none;stroke-width:2.4000001;stroke-miterlimit:4;stroke-dasharray:none;stroke-opacity:1;paint-order:markers fill stroke" /><circle
     r="77.533638"
     cy="1859.3882"
     cx="4456.6333"
     id="path1766"
     style="opacity:1;fill:#ff7951;fill-opacity:1;stroke:none;stroke-width:2.4000001;stroke-miterlimit:4;stroke-dasharray:none;stroke-opacity:1;paint-order:markers fill stroke" /><circle
     r="139.56055"
     cy="2541.6843"
     cx="4760.5654"
     id="path1768"
     style="opacity:1;fill:#ff9b51;fill-opacity:1;stroke:none;stroke-width:2.4000001;stroke-miterlimit:4;stroke-dasharray:none;stroke-opacity:1;paint-order:markers fill stroke" /></g>




<style
   id="style834"
   type="text/css">
	.st0{fill:#D0F0E4;}
	.st1{fill:none;stroke:#FFCF2D;stroke-width:6;stroke-miterlimit:10;}
	.st2{fill:#FFCF2D;stroke:#FFFFFF;stroke-width:6;stroke-miterlimit:10;}
	.st3{fill:none;stroke:#9A3B82;stroke-width:6;stroke-linecap:round;stroke-miterlimit:10;}
	.st4{fill:#66B0F0;}
	.st5{fill:#9A3B82;}
	.st6{fill:#FFFFFF;stroke:#FFCF2D;stroke-width:6;stroke-miterlimit:10;}
	.st7{fill:#FE5244;}
	.st8{fill:#FFCF2D;}
	.st9{fill:none;stroke:#FFCF2D;stroke-width:6;stroke-linecap:round;stroke-miterlimit:10;}
	.st10{fill:#FFFFFF;stroke:#9A3B82;stroke-width:6;stroke-linecap:round;stroke-miterlimit:10;}
	.st11{fill:#FFFFFF;stroke:#3FB1B5;stroke-width:6;stroke-miterlimit:10;}
	.st12{fill:none;stroke:#3FB1B5;stroke-width:6;stroke-miterlimit:10;}
	.st13{fill:none;stroke:#9A3B82;stroke-width:6;stroke-linecap:round;stroke-linejoin:round;stroke-miterlimit:10;}
	.st14{fill:#FFFFFF;}
	.st15{fill:none;stroke:#FE5244;stroke-width:5;stroke-miterlimit:10;}
	.st16{fill:#FFFFFF;stroke:#FE5244;stroke-width:6;stroke-miterlimit:10;}
	.st17{fill:none;stroke:#FE5244;stroke-width:6;stroke-miterlimit:10;}
	.st18{fill:#3FB1B5;}
	.st19{fill:none;stroke:#9A3B82;stroke-width:6;stroke-miterlimit:10;}
	.st20{fill:none;stroke:#FFFFFF;stroke-width:6;stroke-miterlimit:10;}
	.st21{fill:#E57281;}
	.st22{fill:none;stroke:#9A3B82;stroke-width:5;stroke-linecap:round;stroke-miterlimit:10;}
	.st23{fill:#FE5244;stroke:#FE5244;stroke-width:6;stroke-miterlimit:10;}
	.st24{fill:none;stroke:#FFFFFF;stroke-width:6;stroke-linecap:round;stroke-miterlimit:10;}
</style><g
   id="g1315"
   transform="translate(75.247015,-11.51422)"><g
     id="LAMP">
	<polygon
   id="polygon836"
   points="3637.1,3171 1092.1,3171 2132.1,701.6 2597.1,701.6 "
   class="st0"
   style="opacity:0.67699998;fill:#d0f0e4" />
	<polyline
   id="polyline838"
   points="2320.5,515.8 2364.6,471.7 2408.7,515.8  "
   class="st1"
   style="fill:none;stroke:#ffcf2d;stroke-width:6;stroke-miterlimit:10" />
	<line
   id="line840"
   y2="324"
   x2="2364.6001"
   y1="471.70001"
   x1="2364.6001"
   class="st1"
   style="fill:none;stroke:#ffcf2d;stroke-width:6;stroke-miterlimit:10" />
	<circle
   id="circle842"
   r="71"
   cy="707.59998"
   cx="2364.6001"
   class="st2"
   style="fill:#ffcf2d;stroke:#ffffff;stroke-width:6;stroke-miterlimit:10" />
	<path
   id="path844"
   d="m 2597.1,701.6 h -464.9 l 6.2,-28.3 c 20.4,-93.2 115.5,-160.8 226.3,-160.8 55.4,0 106.9,16.9 147,45.4 40.2,28.5 69,68.7 79.2,115.3 z"
   class="st3"
   inkscape:connector-curvature="0"
   style="fill:none;stroke:#9a3b82;stroke-width:6;stroke-linecap:round;stroke-miterlimit:10" />
</g><g
     id="BOOKSHELF">
	<g
   id="g865">
		<rect
   id="rect847"
   height="298"
   width="47.200001"
   class="st4"
   y="2294.2"
   x="3033.8999"
   style="fill:#66b0f0" />
		<path
   id="path849"
   d="m 3938.2,2592.2 h -268.7 c -9.7,0 -17.2,-8.4 -16,-18 l 37.4,-315.7 c 1,-8.1 7.9,-14.2 16,-14.2 h 268.7 c 9.7,0 17.2,8.4 16,18 l -37.4,315.7 c -1,8.1 -7.9,14.2 -16,14.2 z"
   class="st5"
   inkscape:connector-curvature="0"
   style="fill:#9a3b82" />
		<path
   id="path851"
   d="m 3791.8,2592.2 h -212.2 c -13,0 -23.1,-11.4 -21.6,-24.3 l 27.2,-229.9 c 1.3,-10.9 10.6,-19.2 21.6,-19.2 h 217.3 z"
   class="st6"
   inkscape:connector-curvature="0"
   style="fill:#ffffff;stroke:#ffcf2d;stroke-width:6;stroke-miterlimit:10" />
		<path
   id="path853"
   d="m 3815.6,2592.2 h -202.5 c -13,0 -23.1,-11.4 -21.6,-24.3 l 27.2,-229.9 c 1.3,-10.9 10.6,-19.2 21.6,-19.2 h 205.1 c 6.5,0 11.6,5.7 10.8,12.2 l -29.8,251.5 c -0.6,5.6 -5.3,9.7 -10.8,9.7 z"
   class="st6"
   inkscape:connector-curvature="0"
   style="fill:#ffffff;stroke:#ffcf2d;stroke-width:6;stroke-miterlimit:10" />
		<rect
   id="rect855"
   height="253.2"
   width="81.900002"
   class="st3"
   y="2339"
   x="3084.1001"
   style="fill:none;stroke:#9a3b82;stroke-width:6;stroke-linecap:round;stroke-miterlimit:10" />
		<rect
   id="rect857"
   height="253.2"
   width="115.3"
   class="st3"
   y="2339"
   x="3137.5"
   style="fill:none;stroke:#9a3b82;stroke-width:6;stroke-linecap:round;stroke-miterlimit:10" />
		<polygon
   id="polygon859"
   points="3392.5,2592.2 3360.6,2592.2 3241.9,2311.2 3273.8,2311.2 "
   class="st3"
   style="fill:none;stroke:#9a3b82;stroke-width:6;stroke-linecap:round;stroke-miterlimit:10" />
		<polygon
   id="polygon861"
   points="3453.3,2592.2 3393.9,2592.2 3291.7,2353.9 3351.1,2353.9 "
   class="st3"
   style="fill:none;stroke:#9a3b82;stroke-width:6;stroke-linecap:round;stroke-miterlimit:10" />
		<rect
   id="rect863"
   height="253.2"
   width="82.599998"
   class="st3"
   y="2339"
   x="2948.3"
   style="fill:none;stroke:#9a3b82;stroke-width:6;stroke-linecap:round;stroke-miterlimit:10" />
	</g>
	<g
   id="g889">
		<g
   id="g875">
			<rect
   id="rect867"
   height="49.400002"
   width="384.20001"
   class="st3"
   y="2144.8999"
   x="2948.3"
   style="fill:none;stroke:#9a3b82;stroke-width:6;stroke-linecap:round;stroke-miterlimit:10" />
			<rect
   id="rect869"
   height="39.799999"
   width="486.70001"
   class="st7"
   y="2107.1001"
   x="2948.3"
   style="fill:#fe5244" />
			<rect
   id="rect871"
   height="56.400002"
   width="328.5"
   class="st8"
   y="2049.7"
   x="2948.3"
   style="fill:#ffcf2d" />
			<rect
   id="rect873"
   height="42.099998"
   width="384.20001"
   class="st3"
   y="2006.6"
   x="2948.3"
   style="fill:none;stroke:#9a3b82;stroke-width:6;stroke-linecap:round;stroke-miterlimit:10" />
		</g>
		<g
   id="g887">
			<path
   id="path877"
   d="m 3995.4,1895.6 -0.3,1.7 -45.4,297 h -421.2 l 45.4,-297 0.6,-4.2 c 7.2,-14.6 51.2,-25.9 104.5,-25.9 58.3,0 105.5,13.5 105.5,30.1 0,-16.6 47.2,-30.1 105.5,-30.1 56.3,0.1 102.2,12.6 105.4,28.4 z"
   class="st6"
   inkscape:connector-curvature="0"
   style="fill:#ffffff;stroke:#ffcf2d;stroke-width:6;stroke-miterlimit:10" />
			<line
   id="line879"
   y2="1897.4"
   x2="3784.6001"
   y1="2194.3999"
   x1="3739.6001"
   class="st1"
   style="fill:none;stroke:#ffcf2d;stroke-width:6;stroke-miterlimit:10" />
			<path
   id="path881"
   d="m 3739.6,2194.4 c 0,-16.6 -47.2,-30.1 -105.5,-30.1 -58.3,0 -105.5,13.5 -105.5,30.1 z"
   class="st8"
   inkscape:connector-curvature="0"
   style="fill:#ffcf2d" />
			<path
   id="path883"
   d="m 3950.6,2194.4 c 0,-16.6 -47.2,-30.1 -105.5,-30.1 -58.3,0 -105.5,13.5 -105.5,30.1 z"
   class="st8"
   inkscape:connector-curvature="0"
   style="fill:#ffcf2d" />
			<path
   id="path885"
   d="m 3741.2,2188.1 c -0.6,-16.6 46.1,-31.7 104.4,-33.8 36.4,-1.3 72.3,3.8 91.2,11.1 l 45,-282.9"
   class="st9"
   inkscape:connector-curvature="0"
   style="fill:none;stroke:#ffcf2d;stroke-width:6;stroke-linecap:round;stroke-miterlimit:10" />
		</g>
	</g>
	<g
   id="g915">
		<path
   id="path891"
   d="m 3961.8,1796.5 h -378.2 v -84.2 c 0,-8.3 6.7,-15 15,-15 h 348.3 c 8.3,0 15,6.7 15,15 v 84.2 z"
   class="st10"
   inkscape:connector-curvature="0"
   style="fill:#ffffff;stroke:#9a3b82;stroke-width:6;stroke-linecap:round;stroke-miterlimit:10" />
		<path
   id="path893"
   d="m 3992,1693.3 h -325.9 c -5.1,0 -9.1,-4.1 -9.1,-9.1 v -33.5 c 0,-5.1 4.1,-9.1 9.1,-9.1 H 3992 c 5.1,0 9.1,4.1 9.1,9.1 v 33.5 c 0,5 -4.1,9.1 -9.1,9.1 z"
   class="st8"
   inkscape:connector-curvature="0"
   style="fill:#ffcf2d" />
		<rect
   id="rect895"
   height="31.4"
   width="386.60001"
   class="st7"
   y="1610.2"
   x="3618.1001"
   style="fill:#fe5244" />
		<path
   id="path897"
   d="m 3997.7,1610.2 h -295.1 c -3.9,0 -7,-3.2 -7,-7 v -25.3 c 0,-3.9 3.2,-7 7,-7 h 295.1 c 3.9,0 7,3.2 7,7 v 25.3 c 0,3.8 -3.1,7 -7,7 z"
   class="st10"
   inkscape:connector-curvature="0"
   style="fill:#ffffff;stroke:#9a3b82;stroke-width:6;stroke-linecap:round;stroke-miterlimit:10" />
		<rect
   id="rect899"
   height="308.89999"
   width="113.5"
   class="st3"
   y="1487.6"
   x="3072.3999"
   style="fill:none;stroke:#9a3b82;stroke-width:6;stroke-linecap:round;stroke-miterlimit:10" />
		<rect
   id="rect901"
   height="308.89999"
   width="45.799999"
   class="st10"
   y="1487.6"
   x="3026.6001"
   style="fill:#ffffff;stroke:#9a3b82;stroke-width:6;stroke-linecap:round;stroke-miterlimit:10" />
		<rect
   id="rect903"
   height="308.89999"
   width="77"
   class="st10"
   y="1487.6"
   x="2949.6001"
   style="fill:#ffffff;stroke:#9a3b82;stroke-width:6;stroke-linecap:round;stroke-miterlimit:10" />
		<rect
   id="rect905"
   height="253.2"
   width="99.5"
   class="st3"
   y="1543.4"
   x="3200.8999"
   style="fill:none;stroke:#9a3b82;stroke-width:6;stroke-linecap:round;stroke-miterlimit:10" />
		<path
   id="path907"
   d="m 3208.1,1796.5 h -39.2 c -3.8,0 -7,-3.1 -7,-7 v -239.3 c 0,-3.8 3.1,-7 7,-7 h 39.2 c 3.8,0 7,3.1 7,7 v 239.3 c -0.1,3.9 -3.2,7 -7,7 z"
   class="st10"
   inkscape:connector-curvature="0"
   style="fill:#ffffff;stroke:#9a3b82;stroke-width:6;stroke-linecap:round;stroke-miterlimit:10" />
		<polygon
   id="polygon909"
   points="3300.4,1682.2 3246.5,1543.4 3300.4,1543.4 "
   class="st5"
   style="fill:#9a3b82" />
		<path
   id="path911"
   d="m 3530.8,1796.5 h -159.2 c -3.5,0 -6.7,-2.2 -7.9,-5.4 l -103.4,-266.2 c -2.2,-5.6 1.9,-11.6 7.9,-11.6 h 159.2 c 3.5,0 6.7,2.2 7.9,5.4 l 103.4,266.2 c 2.2,5.6 -1.9,11.6 -7.9,11.6 z"
   class="st6"
   inkscape:connector-curvature="0"
   style="fill:#ffffff;stroke:#ffcf2d;stroke-width:6;stroke-miterlimit:10" />
		<path
   id="path913"
   d="m 3556.8,1796.5 h -159.2 c -3.5,0 -6.7,-2.2 -7.9,-5.4 l -103.4,-266.2 c -2.2,-5.6 1.9,-11.6 7.9,-11.6 h 159.2 c 3.5,0 6.7,2.2 7.9,5.4 l 103.4,266.2 c 2.2,5.6 -1.9,11.6 -7.9,11.6 z"
   class="st6"
   inkscape:connector-curvature="0"
   style="fill:#ffffff;stroke:#ffcf2d;stroke-width:6;stroke-miterlimit:10" />
	</g>
	<g
   id="g925">
		<path
   id="path917"
   d="m 3836.4,1331.1 c -14.9,4.2 -30.7,6.5 -46.9,6.5 -94.7,0 -171.4,-76.7 -171.4,-171.4 0,-78.1 52.3,-144.1 123.8,-164.7 z"
   class="st1"
   inkscape:connector-curvature="0"
   style="fill:none;stroke:#ffcf2d;stroke-width:6;stroke-miterlimit:10" />
		<line
   id="line919"
   y2="1398.7"
   x2="3789.5"
   y1="1337.6"
   x1="3789.5"
   class="st1"
   style="fill:none;stroke:#ffcf2d;stroke-width:6;stroke-miterlimit:10" />
		<circle
   id="circle921"
   r="145.2"
   cy="1166.2"
   cx="3789.5"
   class="st11"
   style="fill:#ffffff;stroke:#3fb1b5;stroke-width:6;stroke-miterlimit:10" />
		<polygon
   id="polygon923"
   points="3729.3,1398.3 3789.3,1368.2 3850.2,1398.3 "
   class="st6"
   style="fill:#ffffff;stroke:#ffcf2d;stroke-width:6;stroke-miterlimit:10" />
	</g>
	<path
   id="path927"
   d="M 4004.7,1398.7 V 3171 H 3950 v -129 c 0,-28.7 -23.3,-52 -52,-52 h -843.6 c -28.7,0 -52,23.3 -52,52 v 129 h -54.1 V 1398.7 Z"
   class="st3"
   inkscape:connector-curvature="0"
   style="fill:none;stroke:#9a3b82;stroke-width:6;stroke-linecap:round;stroke-miterlimit:10" />
	<path
   id="path929"
   d="m 3928.8,2940.9 h -906.6 c -11.5,0 -20.9,-9.3 -20.9,-20.9 v -260.9 c 0,-11.5 9.3,-20.9 20.9,-20.9 h 906.6 c 11.5,0 20.9,9.3 20.9,20.9 V 2920 c 0,11.6 -9.4,20.9 -20.9,20.9 z"
   class="st12"
   inkscape:connector-curvature="0"
   style="fill:none;stroke:#3fb1b5;stroke-width:6;stroke-miterlimit:10" />
	<g
   id="g941">
		<polygon
   id="polygon931"
   points="3523.3,1398.7 3438.1,1398.7 3523.3,1155.3 "
   class="st5"
   style="fill:#9a3b82" />
		<path
   id="path933"
   d="m 3523.3,1155.3 -0.6,1.8 -84.1,241.6 h -391 l 84.1,-241.6 2.7,-7.7 v 0 c 12.6,-18.1 47.5,-31.3 89.1,-32 0.7,0 1.3,0 2,0 0.7,0 1.3,0 2,0 48.6,0 91.9,16.9 99.8,39.1 7.8,-22.2 49.2,-39.1 97.8,-39.1 47.6,0 89.3,16.3 98.2,37.9 z"
   class="st6"
   inkscape:connector-curvature="0"
   style="fill:#ffffff;stroke:#ffcf2d;stroke-width:6;stroke-miterlimit:10" />
		<line
   id="line935"
   y2="1393.7"
   x2="3242.3"
   y1="1156.5"
   x1="3327.2"
   class="st9"
   style="fill:none;stroke:#ffcf2d;stroke-width:6;stroke-linecap:round;stroke-miterlimit:10" />
		<path
   id="path937"
   d="m 3242.1,1395.7 h -194.5 c 7.2,-22.5 47.6,-39.8 96.2,-39.8 48.8,0 91.1,17.3 98.3,39.8 z"
   class="st8"
   inkscape:connector-curvature="0"
   style="fill:#ffcf2d" />
		<path
   id="path939"
   d="m 3438.1,1395.7 h -194.5 c 7.2,-22.5 47.6,-39.8 96.2,-39.8 48.8,0 91.1,17.3 98.3,39.8 z"
   class="st8"
   inkscape:connector-curvature="0"
   style="fill:#ffcf2d" />
	</g>
	<path
   id="path943"
   d="m 3410.4,2715.5 c 0,-7.8 6.3,-14.2 14.2,-14.2 h 106.1 c 7.8,0 14.2,6.3 14.2,14.2"
   class="st3"
   inkscape:connector-curvature="0"
   style="fill:none;stroke:#9a3b82;stroke-width:6;stroke-linecap:round;stroke-miterlimit:10" />
	<line
   id="line945"
   y2="2194.3999"
   x2="4004.7"
   y1="2194.3999"
   x1="2948.3"
   class="st3"
   style="fill:none;stroke:#9a3b82;stroke-width:6;stroke-linecap:round;stroke-miterlimit:10" />
	<line
   id="line947"
   y2="1796.5"
   x2="4004.7"
   y1="1796.5"
   x1="2948.3"
   class="st3"
   style="fill:none;stroke:#9a3b82;stroke-width:6;stroke-linecap:round;stroke-miterlimit:10" />
	<line
   id="line949"
   y2="2592.2"
   x2="4004.7"
   y1="2592.2"
   x1="2948.3"
   class="st3"
   style="fill:none;stroke:#9a3b82;stroke-width:6;stroke-linecap:round;stroke-miterlimit:10" />
	<polyline
   id="polyline951"
   points="3078.3,1027.1 2948.3,1398.7 4004.7,1398.7 4134.7,1027.1  "
   class="st13"
   style="fill:none;stroke:#9a3b82;stroke-width:6;stroke-linecap:round;stroke-linejoin:round;stroke-miterlimit:10" />
</g><g
     id="PLANT">
	<g
   id="g998">
		<path
   id="path954"
   d="m 4253.3,3075.6 c 0,20.1 -3.7,39.4 -10.5,57.3 -9.9,26 -35,43 -62.9,43 h -211.7 c -27.8,0 -53,-17 -62.8,-43 -6.8,-17.9 -10.5,-37.2 -10.5,-57.3 0,-58 30.7,-109.2 77.6,-139.8 V 2902 c 0,14.8 45.5,26.8 101.5,26.8 56.1,0 101.5,-12 101.5,-26.8 v 33.9 c 47.1,30.5 77.8,81.7 77.8,139.7 z"
   class="st7"
   inkscape:connector-curvature="0"
   style="fill:#fe5244" />
		<g
   id="g958">
			<path
   id="path956"
   d="m 4175.7,2926.6 v 9 c -16.1,12.8 -59.9,19.6 -101.5,19.6 -41.6,0 -85.4,-6.8 -101.5,-19.6 v -9 c 1.9,4.3 10,9.9 28,14.6 19.6,5.2 45.7,8 73.5,8 27.8,0 53.9,-2.8 73.5,-8 18,-4.8 26,-10.4 28,-14.6 z"
   class="st14"
   inkscape:connector-curvature="0"
   style="fill:#ffffff" />
		</g>
		<path
   id="path960"
   d="m 4175.7,2902 c 0,14.8 -45.5,26.8 -101.5,26.8 -56,0 -101.5,-12 -101.5,-26.8 0,-1.9 0.7,-3.7 2.1,-5.5 9.6,-12.1 50.4,-21.3 99.4,-21.3 49,0 89.8,9.1 99.4,21.3 1.3,1.8 2.1,3.6 2.1,5.5 z"
   class="st4"
   inkscape:connector-curvature="0"
   style="fill:#66b0f0" />
		<g
   id="g996">
			<circle
   id="circle962"
   r="12.8"
   cy="3020.3"
   cx="3938.3"
   class="st1"
   style="fill:none;stroke:#ffcf2d;stroke-width:6;stroke-miterlimit:10" />
			<circle
   id="circle964"
   r="12.8"
   cy="3051.8"
   cx="3981.7"
   class="st1"
   style="fill:none;stroke:#ffcf2d;stroke-width:6;stroke-miterlimit:10" />
			<circle
   id="circle966"
   r="12.8"
   cy="3014.3999"
   cx="4035.7"
   class="st1"
   style="fill:none;stroke:#ffcf2d;stroke-width:6;stroke-miterlimit:10" />
			<circle
   id="circle968"
   r="12.8"
   cy="3099.3999"
   cx="4028.1001"
   class="st1"
   style="fill:none;stroke:#ffcf2d;stroke-width:6;stroke-miterlimit:10" />
			<circle
   id="circle970"
   r="12.8"
   cy="3136.7"
   cx="3980.1001"
   class="st1"
   style="fill:none;stroke:#ffcf2d;stroke-width:6;stroke-miterlimit:10" />
			<circle
   id="circle972"
   r="12.8"
   cy="3099.3999"
   cx="3931.7"
   class="st1"
   style="fill:none;stroke:#ffcf2d;stroke-width:6;stroke-miterlimit:10" />
			<circle
   id="circle974"
   r="12.8"
   cy="2972.8"
   cx="3988.7"
   class="st1"
   style="fill:none;stroke:#ffcf2d;stroke-width:6;stroke-miterlimit:10" />
			<circle
   id="circle976"
   r="12.8"
   cy="2982.5"
   cx="4090.6001"
   class="st1"
   style="fill:none;stroke:#ffcf2d;stroke-width:6;stroke-miterlimit:10" />
			<circle
   id="circle978"
   r="12.8"
   cy="3060.1001"
   cx="4079.8999"
   class="st1"
   style="fill:none;stroke:#ffcf2d;stroke-width:6;stroke-miterlimit:10" />
			<circle
   id="circle980"
   r="12.8"
   cy="3111.1001"
   cx="4116.8999"
   class="st1"
   style="fill:none;stroke:#ffcf2d;stroke-width:6;stroke-miterlimit:10" />
			<circle
   id="circle982"
   r="12.8"
   cy="3149.5"
   cx="4068.8999"
   class="st1"
   style="fill:none;stroke:#ffcf2d;stroke-width:6;stroke-miterlimit:10" />
			<circle
   id="circle984"
   r="12.8"
   cy="3029.5"
   cx="4130.6001"
   class="st1"
   style="fill:none;stroke:#ffcf2d;stroke-width:6;stroke-miterlimit:10" />
			<circle
   id="circle986"
   r="12.8"
   cy="2977"
   cx="4167.7002"
   class="st1"
   style="fill:none;stroke:#ffcf2d;stroke-width:6;stroke-miterlimit:10" />
			<circle
   id="circle988"
   r="12.8"
   cy="3019.5"
   cx="4209.8999"
   class="st1"
   style="fill:none;stroke:#ffcf2d;stroke-width:6;stroke-miterlimit:10" />
			<circle
   id="circle990"
   r="12.8"
   cy="3061.3999"
   cx="4161.6001"
   class="st1"
   style="fill:none;stroke:#ffcf2d;stroke-width:6;stroke-miterlimit:10" />
			<circle
   id="circle992"
   r="12.8"
   cy="3088.2"
   cx="4219.3999"
   class="st1"
   style="fill:none;stroke:#ffcf2d;stroke-width:6;stroke-miterlimit:10" />
			<circle
   id="circle994"
   r="12.8"
   cy="3137.3999"
   cx="4180.5"
   class="st1"
   style="fill:none;stroke:#ffcf2d;stroke-width:6;stroke-miterlimit:10" />
		</g>
	</g>
	<g
   id="g1014">
		<path
   id="path1000"
   d="m 4298.4,2746.2 c 0,0 95,-51.3 110.7,38.3 18.2,103.5 -105.4,194.6 -105.4,194.6 0,0 -26.6,-65.9 -97.9,-122.7 -61.7,-49.1 -10.5,-179.3 92.6,-110.2 z"
   class="st6"
   inkscape:connector-curvature="0"
   style="fill:#ffffff;stroke:#ffcf2d;stroke-width:6;stroke-miterlimit:10" />
		<path
   id="path1002"
   d="m 4111.9,2632.1 c 45.1,0.4 109.9,-91.2 48.7,-191.7 -73.9,-121.4 -86.6,-191.7 -86.6,-191.7 0,0 -108.7,143.8 -90.2,254.1 20.3,120.8 128.1,129.3 128.1,129.3 z"
   class="st8"
   inkscape:connector-curvature="0"
   style="fill:#ffcf2d" />
		<path
   id="path1004"
   d="m 4119.7,2571.1 c 65.9,17.4 128.5,-22.7 129.8,-114.1 2.3,-161.6 32.9,-214.2 32.9,-214.2 0,0 -205.3,73.9 -236.4,188.7 -29.6,109.4 73.7,139.6 73.7,139.6 z"
   class="st6"
   inkscape:connector-curvature="0"
   style="fill:#ffffff;stroke:#ffcf2d;stroke-width:6;stroke-miterlimit:10" />
		<path
   id="path1006"
   d="m 3844.3,2677.5 c -2.4,0.2 -4.9,0.4 -7.6,0.6 -141.8,10.6 -182.6,140.4 -182.6,140.4 0,0 -8.7,-9.4 -6.9,-41.9 3.4,-83.8 80.5,-170.4 168.5,-115.4 9.8,6.2 19.4,11.5 28.6,16.3 z"
   class="st8"
   inkscape:connector-curvature="0"
   style="fill:#ffcf2d" />
		<path
   id="path1008"
   d="m 4005.1,2709.4 c -25,1.6 -82.1,8.5 -160.8,-31.9 -9.2,-4.7 -18.8,-10.1 -28.6,-16.3 -88,-55 -163.1,31.6 -166.5,115.4 -0.2,4.1 0.8,8.2 1,12.2 -8.3,-72.8 -8.1,-254 212.2,-247.9 151.4,4.4 142.7,168.5 142.7,168.5 z"
   class="st6"
   inkscape:connector-curvature="0"
   style="fill:#ffffff;stroke:#ffcf2d;stroke-width:6;stroke-miterlimit:10" />
		<path
   id="path1010"
   d="m 4041.1,2896.7 c 0,0 26.1,-363.7 -326.6,-316.2"
   class="st1"
   inkscape:connector-curvature="0"
   style="fill:none;stroke:#ffcf2d;stroke-width:6;stroke-miterlimit:10" />
		<path
   id="path1012"
   d="m 4282.4,2242.8 c -222.2,227 -180.8,653.9 -180.8,653.9 -23.4,-163.3 120.2,-325.6 196.7,-154.8 22.8,50.8 5.3,237.1 5.3,237.1"
   class="st1"
   inkscape:connector-curvature="0"
   style="fill:none;stroke:#ffcf2d;stroke-width:6;stroke-miterlimit:10" />
	</g>
</g><g
     id="CHAIR__x26__TABLE">
	<g
   id="CHAIR">
		<path
   id="path1017"
   d="m 990,2610.8 -29.8,26.1 c -4.8,-5.7 -9.1,-12 -12.8,-18.9 L 761.6,2271.8 c -7.8,-14.5 2.7,-32 19.1,-32 h 26 c 20.8,0 39.8,11.4 49.6,29.7 l 146.1,272.2 c 12.6,23.2 7.4,51.9 -12.4,69.1 z"
   class="st8"
   inkscape:connector-curvature="0"
   style="fill:#ffcf2d" />
		<path
   id="path1019"
   d="m 1495.8,2618.4 v 0 l -432.3,88.8 v -9 c 0,-43.1 30.3,-80.2 72.5,-88.9 l 278.5,-57.2 c 42,-8.6 81.3,23.5 81.3,66.3 z"
   class="st8"
   inkscape:connector-curvature="0"
   style="fill:#ffcf2d" />
		<path
   id="path1021"
   d="m 1446.8,3171 v -433.1 c 0,-35.9 -32.9,-62.7 -68.1,-55.5 l -271.5,55.7 c -32.3,6.6 -58.9,29.2 -70.7,60 L 893.2,3171"
   class="st3"
   inkscape:connector-curvature="0"
   style="fill:none;stroke:#9a3b82;stroke-width:6;stroke-linecap:round;stroke-miterlimit:10" />
		<path
   id="path1023"
   d="m 760.5,2269.9 211.1,393.3 c 18.1,33.7 56.1,51.5 93.6,43.8 l 431.6,-88.6"
   class="st3"
   inkscape:connector-curvature="0"
   style="fill:none;stroke:#9a3b82;stroke-width:6;stroke-linecap:round;stroke-miterlimit:10" />
	</g>
	<g
   id="BOOKS">
		<rect
   id="rect1026"
   height="48.799999"
   width="365.29999"
   class="st4"
   y="2297.2"
   x="1283.8"
   style="fill:#66b0f0" />
		<g
   id="g1038">
			<path
   id="path1028"
   d="m 1582.5,2244.2 c 4.4,4.1 7.1,11.5 7.1,17.7 0,12.4 -10.8,25.1 -24.2,25.1 h -333.2 v 0 c 0,5.8 4.7,10.5 10.5,10.5 h 402.1 c 10.8,0 20.5,-4 27.6,-10.6 7.1,-6.5 11.4,-15.6 11.4,-25.6 0,-20 -17.5,-36.1 -39,-36.1 h -402.1 c -5.8,0 -10.5,4.7 -10.5,10.5 v 1.9 h 333.2 c 6.7,0.1 12.7,2.6 17.1,6.6 z"
   class="st7"
   inkscape:connector-curvature="0"
   style="fill:#fe5244" />
			<path
   id="path1030"
   d="m 1256.3,2237.7 v 48.4 h -24 v 4 h 334.3 c 3.7,0 7.3,-0.7 10.5,-2 0,0 0,0 0,0 3.6,-1.4 6.8,-3.6 9.4,-6.2 5.1,-5.1 8.3,-12.2 8.3,-20 0,-15.6 -12.7,-28.2 -28.2,-28.2 h -334.3 v 4 z"
   class="st7"
   inkscape:connector-curvature="0"
   style="fill:#fe5244" />
			<path
   id="path1032"
   d="m 1247,2237.7 v 48.4 h 318.4 c 13.4,0 24.2,-10.8 24.2,-24.2 0,-6.7 -2.7,-12.7 -7.1,-17.1 -4.4,-4.4 -10.4,-7.1 -17.1,-7.1 z"
   class="st14"
   inkscape:connector-curvature="0"
   style="fill:#ffffff" />
			<line
   id="line1034"
   y2="2286.1001"
   x2="1247"
   y1="2237.7"
   x1="1247"
   class="st15"
   style="fill:none;stroke:#fe5244;stroke-width:5;stroke-miterlimit:10" />
			<path
   id="path1036"
   d="m 1520.9,2272 v 40.4 h 27.9 v -35.2 c 0,-8.4 6.8,-15.2 15.2,-15.2 h 12.4 v -5.2 H 1536 c -8.2,0 -15.1,6.8 -15.1,15.2 z"
   class="st8"
   inkscape:connector-curvature="0"
   style="fill:#ffcf2d" />
		</g>
	</g>
	<g
   id="TABLE">
		<path
   id="path1041"
   d="m 1078.7,2387.8 c 0,-21.3 17.3,-38.6 38.6,-38.6 h 759 c 21.3,0 38.6,17.3 38.6,38.6"
   class="st3"
   inkscape:connector-curvature="0"
   style="fill:none;stroke:#9a3b82;stroke-width:6;stroke-linecap:round;stroke-miterlimit:10" />
		<path
   id="path1043"
   d="m 1915.5,3171 -214.3,-746.4 c -9.5,-33 -42.2,-56 -79.6,-56 h -249.7 c -37.4,0 -70.1,23 -79.6,56 L 1078.1,3171"
   class="st3"
   inkscape:connector-curvature="0"
   style="fill:none;stroke:#9a3b82;stroke-width:6;stroke-linecap:round;stroke-miterlimit:10" />
	</g>
</g><g
     id="CHARACTER">
	<g
   id="SHOES">
		<g
   id="g1055">
			<path
   id="path1047"
   d="m 2095.4,3041.8 v 108.8 c 0,11.3 9.1,20.4 20.4,20.4 h 272 c 0,0 1.6,-50.5 -39.8,-64.6 -70.3,-23.9 -103.1,-64.6 -103.1,-64.6 z"
   class="st16"
   inkscape:connector-curvature="0"
   style="fill:#ffffff;stroke:#fe5244;stroke-width:6;stroke-miterlimit:10" />
			<path
   id="path1049"
   d="m 2246.7,3097.5 c 11.1,-3.1 51.1,-25.2 37.4,-38.9 -6.5,-6.5 -22.1,0 -22.1,0"
   class="st17"
   inkscape:connector-curvature="0"
   style="fill:none;stroke:#fe5244;stroke-width:6;stroke-miterlimit:10" />
			<path
   id="path1051"
   d="m 2287.7,3112.5 c 11.1,-3.1 49.5,-27.8 34.4,-39.9 -11.4,-9.2 -28.5,8.6 -28.5,8.6"
   class="st17"
   inkscape:connector-curvature="0"
   style="fill:none;stroke:#fe5244;stroke-width:6;stroke-miterlimit:10" />
			<path
   id="path1053"
   d="m 2253.3,3050.6 -157.9,49.1 v -57.9 H 2245 c 0,0 2.7,3.4 8.3,8.8 z"
   class="st7"
   inkscape:connector-curvature="0"
   style="fill:#fe5244" />
		</g>
		<g
   id="g1065">
			<path
   id="path1057"
   d="m 2436.4,3041.8 v 108.8 c 0,11.3 9.1,20.4 20.4,20.4 h 272 c 0,0 1.6,-50.5 -39.8,-64.6 -70.3,-23.9 -103.1,-64.6 -103.1,-64.6 z"
   class="st16"
   inkscape:connector-curvature="0"
   style="fill:#ffffff;stroke:#fe5244;stroke-width:6;stroke-miterlimit:10" />
			<path
   id="path1059"
   d="m 2587.7,3097.5 c 11.1,-3.1 51.1,-25.2 37.4,-38.9 -6.5,-6.5 -22.1,0 -22.1,0"
   class="st17"
   inkscape:connector-curvature="0"
   style="fill:none;stroke:#fe5244;stroke-width:6;stroke-miterlimit:10" />
			<path
   id="path1061"
   d="m 2628.7,3112.5 c 11.1,-3.1 49.5,-27.8 34.4,-39.9 -11.4,-9.2 -28.5,8.6 -28.5,8.6"
   class="st17"
   inkscape:connector-curvature="0"
   style="fill:none;stroke:#fe5244;stroke-width:6;stroke-miterlimit:10" />
			<path
   id="path1063"
   d="m 2594.3,3050.6 -157.9,49.1 v -57.9 H 2586 c 0,0 2.7,3.4 8.3,8.8 z"
   class="st7"
   inkscape:connector-curvature="0"
   style="fill:#fe5244" />
		</g>
	</g>
	<g
   id="LEGS">
		<polygon
   id="polygon1068"
   points="2422.2,2596.8 2422.2,2990 2636.7,2990 2636.7,2549.1 2522.3,1958.8 2168.9,1958.8 2070.4,2990 2276.4,2990 2379.9,2490.3 "
   class="st18"
   style="fill:#3fb1b5" />
		<line
   id="line1070"
   y2="2990"
   x2="2180.3999"
   y1="2206.5"
   x1="2276.2"
   class="st19"
   style="fill:none;stroke:#9a3b82;stroke-width:6;stroke-miterlimit:10" />
		<polyline
   id="polyline1072"
   points="2525.7,2990 2525.7,2549.1 2391.3,2008.8   "
   class="st19"
   style="fill:none;stroke:#9a3b82;stroke-width:6;stroke-miterlimit:10" />
		<path
   id="path1074"
   d="m 2419.2,2596.8 -128.4,-372.9 c -4.4,-12.8 -16.5,-21.4 -30.1,-21.4"
   class="st20"
   inkscape:connector-curvature="0"
   style="fill:none;stroke:#ffffff;stroke-width:6;stroke-miterlimit:10" />
		<polygon
   id="polygon1076"
   points="2152.6,2129.3 2168.9,1958.8 2522.3,1958.8 2532.4,2011.2 "
   class="st5"
   style="fill:#9a3b82" />
		<path
   id="path1078"
   d="m 2637.1,3041.8 h -215.7 c -8.1,0 -14.7,-6.6 -14.7,-14.7 v -22.4 c 0,-8.1 6.6,-14.7 14.7,-14.7 h 215.7 c 8.1,0 14.7,6.6 14.7,14.7 v 22.4 c -0.1,8.1 -6.6,14.7 -14.7,14.7 z"
   class="st5"
   inkscape:connector-curvature="0"
   style="fill:#9a3b82" />
		<path
   id="path1080"
   d="m 2280.1,3041.8 h -215.7 c -8.1,0 -14.7,-6.6 -14.7,-14.7 v -22.4 c 0,-8.1 6.6,-14.7 14.7,-14.7 h 215.7 c 8.1,0 14.7,6.6 14.7,14.7 v 22.4 c -0.1,8.1 -6.6,14.7 -14.7,14.7 z"
   class="st5"
   inkscape:connector-curvature="0"
   style="fill:#9a3b82" />
	</g>
	<g
   id="BOOK">
		<path
   id="path1083"
   d="m 2855.8,1989 67.6,252.9 -337,90.1 -67.7,-253.1 c -2.1,-7.9 -7.2,-14.1 -13.7,-17.9 -6.5,-3.8 -14.5,-5.1 -22.4,-3 -15.7,4.2 -25.1,20.4 -20.9,36.1 l 67.7,253.1 -7.4,2 -67.6,-252.9 c -5.4,-20.1 6.2,-40.7 26,-46.7 0.4,-0.1 0.8,-0.2 1.2,-0.3 l 327.2,-87.5 c 20.5,-5.4 41.5,6.8 47,27.2 z"
   class="st4"
   inkscape:connector-curvature="0"
   style="fill:#66b0f0" />
		<path
   id="path1085"
   d="m 2526.2,2077.2 67.6,252.9 -7.4,2 -67.7,-253.1 c -2.1,-7.9 -7.2,-14.1 -13.7,-17.9 -6.5,-3.8 -14.5,-5.1 -22.4,-3 -15.7,4.2 -25.1,20.4 -20.9,36.1 l 67.7,253.1 -7.4,2 -67.6,-252.9 c -5.4,-20.1 6.2,-40.7 26,-46.7 20.1,-4.7 40.4,7.4 45.8,27.5 z"
   class="st5"
   inkscape:connector-curvature="0"
   style="fill:#9a3b82" />
		<path
   id="path1087"
   d="m 2518.7,2078.9 63.5,237.6 -57,15.2 -63.5,-237.6 c -4.2,-15.7 5.1,-31.9 20.9,-36.1 7.9,-2.1 15.9,-0.8 22.4,3 6.5,3.8 11.6,10 13.7,17.9 z"
   class="st14"
   inkscape:connector-curvature="0"
   style="fill:#ffffff" />
	</g>
	<g
   id="SHIRT">
		<path
   id="path1090"
   d="m 2856.8,2123 -153.3,52.8 -121,-217 h -469 c -79.7,0 -139.3,-73.3 -123,-151.3 l 48.8,-234.4 c 15.3,-73.4 80,-126 154.9,-126 h 320.7 c 77.7,0 143.9,56.4 156.2,133.1 l 48.3,228.2 z"
   class="st2"
   inkscape:connector-curvature="0"
   style="fill:#ffcf2d;stroke:#ffffff;stroke-width:6;stroke-miterlimit:10" />
		<path
   id="path1092"
   d="m 2088.5,1956.3 c -55.2,-11.1 -96.2,-58.1 -100.4,-113.5 4.2,-2.9 8.9,-5.4 13.9,-7.2 36.3,-13.4 77.8,8.6 92.9,49.1 9.3,25.4 6.1,52 -6.4,71.6 z"
   class="st14"
   inkscape:connector-curvature="0"
   style="fill:#ffffff" />
	</g>
	<g
   id="HEAD">
		<polygon
   points="2437.7,1306.5 2437.7,1447.2 2282.4,1447.2 2318.2,1353.6 "
   class="st21"
   id="NECK"
   style="fill:#e57281" />
		<path
   d="m 2473.4,1247.3 c -0.1,0 -0.3,0.1 -0.4,0.1 v 0 0 l -46.1,12.2 c -16.5,4.4 -29.2,16.6 -34.6,32 h -17.7 c -11.2,0 -20.3,9.1 -20.3,20.3 v 0.3 c 0,10.6 8.1,19.3 18.5,20.2 -0.1,0.1 -0.1,0.1 -0.1,0.1 0,0 -8.2,39 -56.1,25.9 0,0 1.9,-102.6 3.9,-134.5 1.7,-26.3 141.2,-76.1 154.1,-54.9 11.4,18.8 -1.8,27.6 -13,31.5 19.8,-4.2 57.2,-9.8 61,6.9 4.4,19.4 -35.1,36.2 -49.2,39.9 z"
   class="st5"
   id="HAIR"
   inkscape:connector-curvature="0"
   style="fill:#9a3b82" />
		<g
   id="HEAD_1_">
			<path
   id="path1097"
   d="m 2482.4,1319.2 h -4.9 l 1.4,24 c 1,17.2 -12.8,31.8 -30,31.8 h -21.6 c -20.8,0 -37.7,-16.9 -37.7,-37.7 v -4.7 h -14.9 c -11.2,0 -20.3,-9.1 -20.3,-20.3 v -0.3 c 0,-11.2 9.1,-20.3 20.3,-20.3 h 17.7 c 5.4,-15.4 18.1,-27.7 34.6,-32 l 46.1,-12.2 v 0 l 15.8,63.3 c 1.6,4 -2.2,8.4 -6.5,8.4 z"
   class="st21"
   inkscape:connector-curvature="0"
   style="fill:#e57281" />
			<g
   id="g1107">
				<path
   id="path1099"
   d="m 2394.3,1339.2 c -2.1,22 19.9,37.7 40.7,37.7"
   class="st22"
   inkscape:connector-curvature="0"
   style="fill:none;stroke:#9a3b82;stroke-width:5;stroke-linecap:round;stroke-miterlimit:10" />
				<path
   id="path1101"
   d="m 2386.2,1315.7 c 0,-7.8 -6.3,-14.1 -14.1,-14.1"
   class="st22"
   inkscape:connector-curvature="0"
   style="fill:none;stroke:#9a3b82;stroke-width:5;stroke-linecap:round;stroke-miterlimit:10" />
				<ellipse
   id="ellipse1103"
   ry="7.6999998"
   rx="3.7"
   cy="1293.7"
   cx="2465.3999"
   class="st5"
   style="fill:#9a3b82" />
				<path
   id="path1105"
   d="m 2449.4,1277.5 c 0,0 12.3,-9.4 29.9,-9.4"
   class="st22"
   inkscape:connector-curvature="0"
   style="fill:none;stroke:#9a3b82;stroke-width:5;stroke-linecap:round;stroke-miterlimit:10" />
			</g>
		</g>
	</g>
	<g
   id="BACKPACK">
		<path
   id="path1111"
   d="m 2401.8,2022.9 c 0,0 122.5,5.3 165.6,-93 l -22.8,-41.7 -68.1,26.2 z"
   class="st16"
   inkscape:connector-curvature="0"
   style="fill:#ffffff;stroke:#fe5244;stroke-width:6;stroke-miterlimit:10" />
		<path
   id="path1113"
   d="m 2499.9,1421.4 c -5.9,0.5 -11.3,3.1 -15.3,7.1 -4.4,4.4 -7.2,10.5 -7.2,17.3 v 492.7 c 0,47 -38.1,85.1 -85.1,85.1 h -188.9 c -50.8,0 -90,-44.1 -84.6,-94.2 v -0.1 l 68,-467.7 c 3.4,-23.1 23.1,-40.2 46.5,-40.2 z"
   class="st23"
   inkscape:connector-curvature="0"
   style="fill:#fe5244;stroke:#fe5244;stroke-width:6;stroke-miterlimit:10" />
		<path
   id="path1115"
   d="m 2480.9,1421.4 c -5.9,0.5 -11.3,3.1 -15.3,7.1 -3.7,3.7 -6.2,8.5 -6.9,13.9 -0.1,1.1 -0.2,2.2 -0.2,3.3 l -4,37.7 -48,455 c 0,47 -38.1,85.1 -85.1,85.1 h -117.9 c -50.8,0 -90,-44.1 -84.6,-94.2 v -0.1 l 30.7,-211.4 37.3,-256.3 c 0.3,-2.2 0.8,-4.4 1.4,-6.6 5.8,-19.7 24,-33.6 45,-33.6 h 247.6 z"
   class="st16"
   inkscape:connector-curvature="0"
   style="fill:#ffffff;stroke:#fe5244;stroke-width:6;stroke-miterlimit:10" />
		<path
   id="path1117"
   d="m 2438.8,1519.5 -17.9,134.3 c -5.9,27.5 -27.3,42.2 -58.3,47.2 l -212,30.8 30.9,-212.4 h 257.3 z"
   class="st8"
   inkscape:connector-curvature="0"
   style="fill:#ffcf2d" />
		<path
   id="path1119"
   d="m 2473.3,1421.4 h -5.3 c -9.6,-0.1 -18,6.7 -19.9,16.2 l -31.2,201.3 c -5.9,27.5 -30.2,47.2 -58.3,47.2 h -195.1 c -23.6,0 -41.2,-21.8 -36.1,-44.9 l 37.6,-170.8 c 6.3,-28.6 31.7,-49 61,-49 z"
   class="st23"
   inkscape:connector-curvature="0"
   style="fill:#fe5244;stroke:#fe5244;stroke-width:6;stroke-miterlimit:10" />
		<path
   id="path1121"
   d="m 2312.5,1742.1 49.7,-303.9 c 1,-6.1 6.3,-10.7 12.5,-10.7 v 0 c 7.8,0 13.8,7 12.5,14.8 l -49.7,303.9 c -1,6.1 -6.3,10.7 -12.5,10.7 v 0 c -7.8,0 -13.8,-7 -12.5,-14.8 z"
   class="st16"
   inkscape:connector-curvature="0"
   style="fill:#ffffff;stroke:#fe5244;stroke-width:6;stroke-miterlimit:10" />
		<path
   id="path1123"
   d="m 2201.4,1742.1 49.7,-303.9 c 1,-6.1 6.3,-10.7 12.5,-10.7 v 0 c 7.8,0 13.8,7 12.5,14.8 l -49.7,303.9 c -1,6.1 -6.3,10.7 -12.5,10.7 v 0 c -7.8,0 -13.8,-7 -12.5,-14.8 z"
   class="st16"
   inkscape:connector-curvature="0"
   style="fill:#ffffff;stroke:#fe5244;stroke-width:6;stroke-miterlimit:10" />
		<path
   id="path1125"
   d="m 2526.4,1447.3 -48.9,0.2 v -1.7 c 0,-6.8 2.7,-12.9 7.2,-17.3 4,-4 9.3,-6.6 15.3,-7.1 h 4 c 12.3,1 22,11.4 22.4,25.9 z"
   class="st16"
   inkscape:connector-curvature="0"
   style="fill:#ffffff;stroke:#fe5244;stroke-width:6;stroke-miterlimit:10" />
	</g>
	<g
   id="HAND">
		<g
   id="g1136">
			<path
   id="path1128"
   d="m 2838.5,2129.3 41.2,106.3 c 6.6,17.1 -3,36.1 -20.6,41 l -90.5,24.8 c -5.5,1.5 -11.3,0.2 -15.6,-3.5 l -9.2,-8 18.8,-5 c 8.3,-2.2 13.9,-9.9 13.5,-18.5 l -2.1,-21.2 c -0.4,-9.5 -8.1,-17.1 -17.6,-17.4 h 1 c -11.5,-0.4 -22.7,-7.5 -27.2,-18.1 l -14.4,-38.3 z"
   class="st21"
   inkscape:connector-curvature="0"
   style="fill:#e57281" />
			<path
   id="path1130"
   d="m 2745.7,2292 14.8,-4 c 8.3,-2.2 13.9,-8.9 13.5,-17.5 l -1.1,-23.2 c -0.4,-9.5 -8.1,-17.1 -17.6,-17.4 v 0 c -11.5,-0.4 -21.7,-7.5 -26.2,-18.1 l -15.4,-36.3"
   class="st24"
   inkscape:connector-curvature="0"
   style="fill:none;stroke:#ffffff;stroke-width:6;stroke-linecap:round;stroke-miterlimit:10" />
			<path
   id="path1132"
   d="m 2794.1,2291.8 c 10.6,-2.8 17.8,-12.6 17.3,-23.6 l -1.4,-29.6"
   class="st24"
   inkscape:connector-curvature="0"
   style="fill:none;stroke:#ffffff;stroke-width:6;stroke-linecap:round;stroke-miterlimit:10" />
			<path
   id="path1134"
   d="m 2832.4,2281.9 c 10.6,-2.8 17.8,-12.6 17.3,-23.6 l -1.4,-29.6"
   class="st24"
   inkscape:connector-curvature="0"
   style="fill:none;stroke:#ffffff;stroke-width:6;stroke-linecap:round;stroke-miterlimit:10" />
		</g>
		<path
   id="path1138"
   d="m 2489.8,1686.1 24.2,126.6 c 4.1,21.6 11.7,42.5 22.4,61.7 l 167,301.4 153.3,-52.8"
   class="st20"
   inkscape:connector-curvature="0"
   style="fill:none;stroke:#ffffff;stroke-width:6;stroke-miterlimit:10" />
		<path
   id="path1140"
   d="m 2591.1,1973.2 -54.7,-98.8 c -9.2,-16.7 -16.1,-34.5 -20.5,-53 5.2,-1.7 10.6,-2.9 16.3,-3.4 43.2,-3.8 81.5,32.5 85.6,81 2.4,29.4 -8.3,56.5 -26.7,74.2 z"
   class="st14"
   inkscape:connector-curvature="0"
   style="fill:#ffffff" />
	</g>
</g></g></svg>